/* XPM */
static char * arrow_down_xpm[] = {
"6 8 3 1",
" 	c None",
".	c #999ABD",
"+	c #000000",
"..++..",
"..++..",
"..++..",
"..++..",
"++++++",
"++++++",
".++++.",
"..++.."};
