/* XPM */
static char * mouse_right_xpm[] = {
"61 91 49 1",
" 	c None",
".	c #7B84A1",
"+	c #697392",
"@	c #757C94",
"#	c #848CAA",
"$	c #5C6888",
"%	c #BABEDA",
"&	c #9FA1C0",
"*	c #4A5778",
"=	c #122450",
"-	c #AFB0CD",
";	c #9A9ABE",
">	c #A7A9C8",
",	c #253359",
"'	c #4D283C",
")	c #C42F14",
"!	c #B52E19",
"~	c #FF3300",
"{	c #E1310A",
"]	c #6B2A32",
"^	c #21254B",
"/	c #5C2937",
"(	c #3E2741",
"_	c #972C23",
":	c #3E4862",
"<	c #F03205",
"[	c #A62D1E",
"}	c #7A2B2D",
"|	c #892C28",
"1	c #D3300F",
"2	c #11244D",
"3	c #0E1A3A",
"4	c #FF5300",
"5	c #FF4000",
"6	c #FF6600",
"7	c #FF3900",
"8	c #302646",
"9	c #FF7300",
"0	c #FF8000",
"a	c #FF9300",
"b	c #FF4600",
"c	c #FF8600",
"d	c #FF7900",
"e	c #FF9900",
"f	c #FF6000",
"g	c #FF4D00",
"h	c #FF8C00",
"i	c #FF6C00",
"j	c #FF5900",
"...                                                          ",
"+++@@@                                                       ",
"#@$$$++++                                                    ",
"%%%&.*===++                                                  ",
"-%%%.======$$                                                ",
";>%%,=')'====$$                                              ",
";;-;==!~~{]====*$                                            ",
";;;*=^~~~~~{/====**                                          ",
";;;==]~~~~~~~)(===***                                        ",
";;#==_~~~~~~~~~_^===*:                                       ",
";;@==)~~~~~~~~~~</===:*                                      ",
";;+==~~~~~~~~~~~~~[^==:::                                    ",
";>:=(~~~~~~~~~~~~~~{(===::                                   ",
";%==/~~~~~~~~~~~~~~~~}===,:                                  ",
";%==|~~~~~~~~~~~~~~~~~[^==:,                                 ",
">;==_~~~~~~~~~~~~~~~~~~1^==:,,                               ",
"-;==)~~~~~~~~~~~~~~~~~~~{(==:,,                              ",
"%+==1~~~~~~~~~~~~~~~~~~~~<(==,,,                             ",
"%$==~~~~~~~~~~~~~~~~~~~~~~<]==:,,                            ",
"%*==~~~~~~~~~~~~~~~~~~~~~~~~]==,,2                           ",
"%:='~~~~~~~~~~~~~~~~~~~~~~~~~]==,,2                          ",
"%:='~~~~~~~~~~~~~~~~~~~~~~~~~~]==,22                         ",
"%==/~~~~~~~~~~~~~~~~~~~~~~~~~~~'==,22                        ",
"%==|~~~~~~~~~~~~~~~~~~~~~~~~~~~<(==,22                       ",
"%==|~~~~~~~~~~~~~~~~~~~~~~~~~~~~<(==,2                       ",
"%==|~~~~~~~~~~~~~~~~~~~~~~~~~~~~~1^==22                      ",
"&==)~~~~~~~~~~~~~~~~~~~~~~~~~~~~~~1===22                     ",
";==)~~~~~~~~~~~~~~~~~~~~~~~~~~~~~~~[===22                    ",
";==)~~~~~~~~~~~~~~~~~~~~~~~~~~~~~~~~}==222                   ",
";==)~~~~~~~~~~~~~~~~~~~~~~~~~~~~~~~~~'==22                   ",
";==<~~~~~~~~~~~~~~~~~~~~~~~~~~~~~~~~~<^==32                  ",
"#==~~~~~~~~~~~~~~~~~~~~~~~~~~~~~~~~~~~)===22                 ",
"+==~~~~~~~~~~~~~~~~~~~~~~~~~~~~~~~~~~~~|==222                ",
"+==~~~~~~~~~~~~~~~~~~~~~~~~~~~~~~~~~~~~~'==22                ",
"+==~~~~~~~~~~~~~~~~~~~~~~~~~~~~~~~~~~~~~{^==22               ",
"+==~~~~~~~~~~~~~~~~~~~~~~~~~~~~~~~~45~~~~[==232              ",
"$==~~~~~~~~~~~~~~~~~~~~~~~~~~~~~~~~~67~~~~/==22              ",
"+=8~~~~~~~~~~~~~~~~~~~~~~~~~~~~~~~~~79~~~~<^==32             ",
"+='~~~~~~~~~~~~~~~~~~~~~~~~~~~~~~~~~~46~~~~[==222            ",
"+='~~~~~~~~~~~~~~~~~~~~~~~~~~~~~~~~~~~04~~~~'==23            ",
"+='~~~~~~~~~~~~~~~~~~~~~~~~~~~~~~~~~~~5ab~~~{^==22           ",
"+='~~~~~~~~~~~~~~~~~~~~~~~~~~~~~~~~~~~~6c7~~~|==232          ",
"*='~~~~~~~~~~~~~~~~~~~~~~~~~~~~~~~~~~~~7ad~~~~8==23          ",
":='~~~~~~~~~~~~~~~~~~~~~~~~~~~~~~~~~~~~~6ef~~~)==222         ",
":='~~~~~~~~~~~~~~~~~~~~~~~~~~~~~~~~~~~~~7eeg~~~/==23         ",
":='~~~~~~~~~~~~~~~~~~~~~~~~~~~~~~~~~~~~~~9ea7~~{===22        ",
":='~~~~~~~~~~~~~~~~~~~~~~~~~~~~~~~~~~~~~~bee0~~~|==23        ",
":='~~~~~~~~~~~~~~~~~~~~~~~~~~~~~~~~~~~~~~~ceef~~<^==22       ",
":='~~~~~~~~~~~~~~~~~~~~~~~~~~~~~~~~~~~~~~~feeeb~~_==232      ",
":='~~~~~~~~~~~~~~~~~~~~~~~~~~~~~~~~~~~~~~~5eeec7~~8==23      ",
"$='~~~~~~~~~~~~~~~~~~~~~~~~~~~~~~~~~~~~~~~~heeei~~[==223     ",
"+==~~~~~~~~~~~~~~~~~~~~~~~~~~~~~~~~~~~~~~~~ieeeeg~~8==32     ",
"$==~~~~~~~~~~~~~~~~~~~~~~~~~~~~~~~~~~~~~~~~jeeeeh7~!==232    ",
"+==~~~~~~~~~~~~~~~~~~~~~~~~~~~~~~~~~~~~~~~~beeeeei~~'==23    ",
"+==~~~~~~~~~~~~~~~~~~~~~~~~~~~~~~~~~~~~~~~~~eeeeeeg~)==223   ",
"+==~~~~~~~~~~~~~~~~~~~~~~~~~~~~~~~~~~~~~~~~~aeeeeeh~~(==32   ",
"+==~~~~~~~~~~~~~~~~~~~~~~~~~~~~~~~~~~~~~~~~~0eeeeee6~[==233  ",
";==1~~~~~~~~~~~~~~~~~~~~~~~~~~~~~~~~~~~~~~~~0eeeeeea5~8==22  ",
"#==)~~~~~~~~~~~~~~~~~~~~~~~~~~~~~~~~~~~~~~~~0eeeeeee9~[==23  ",
";==)~~~~~~~~~~~~~~~~~~~~~~~~~~~~~~~~~~~~~~~~0eeeeeeee5~8=223 ",
";==)~~~~~~~~~~~~~~~~~~~~~~~~~~~~~~~~~~~~~~~~aeeeeeeee9~_==22 ",
"%==|~~~~~~~~~~~~~~~~~~~~~~~~~~~~~~~~~~~~~~~~eeeeeeeeee5<^=233",
"%==|~~~~~~~~~~~~~~~~~~~~~~~~~~~~~~~~~~~~~~~geeeeeeeeee9~}==23",
"%==|~~~~~~~~~~~~~~~~~~~~~~~~~~~~~~~~~~~~~~~feeeeeeeeeea7{==22",
"%:=/~~~~~~~~~~~~~~~~~~~~~~~~~~~~~~~~~~~~~~~0eeeeeeeeeeej~/=22",
"-:='~~~~~~~~~~~~~~~~~~~~~~~~~~~~~~~~~~~~~~5eeeeeeeeeeee9~]=23",
"%:=(~~~~~~~~~~~~~~~~~~~~~~~~~~~~~~~~~~~~~~6eeeeeeeeeeee0~'=22",
"%+==~~~~~~~~~~~~~~~~~~~~~~~~~~~~~~~~~~~~~7aeeeeeeeeeeeee~^=22",
"%+==~~~~~~~~~~~~~~~~~~~~~~~~~~~~~~~~~~~~~6eeeeeeeeeeeeec1==22",
"%#==)~~~~~~~~~~~~~~~~~~~~~~~~~~~~~~~~~~~5aeeeeeeeeeeeee6}==22",
"%;==)~~~~~~~~~~~~~~~~~~~~~~~~~~~~~~~~~~~0eeeeeeeeeeeeeh7^=22,",
"%>==_~~~~~~~~~~~~~~~~~~~~~~~~~~~~~~~~~~6eeeeeeeeeeeeeeb_==22@",
"%%==|~~~~~~~~~~~~~~~~~~~~~~~~~~~~~~~~~jeeeeeeeeeeeeeej{^==2,%",
"%%,=/~~~~~~~~~~~~~~~~~~~~~~~~~~~~~~~~jeeeeeeeeeeeeeej~'==22#%",
"%%:='~~~~~~~~~~~~~~~~~~~~~~~~~~~~~~~jeeeeeeeeeeeeea4~]==22$%%",
"%%$==~~~~~~~~~~~~~~~~~~~~~~~~~~~~~~6eeeeeeeeeeeeec5~]==22,-%-",
"%%@=={~~~~~~~~~~~~~~~~~~~~~~~~~~~7deeeeeeeeeeeea6~~]==22:-%-;",
"%%;==)~~~~~~~~~~~~~~~~~~~~~~~~~~gheeeeeeeeeeee95~<'==22:-%-;;",
"%->==|~~~~~~~~~~~~~~~~~~~~~~~~79eeeeeeeeeeee95~~!^==22*-%&;;;",
"%%%==]~~~~~~~~~~~~~~~~~~~~~~76aeeeeeeeeeea65~~{'===22+%-&;;;;",
"%%%:=(~~~~~~~~~~~~~~~~~~~~76aeeeeeeeeeed4~~~{]====2,;--;;;;;;",
"%-%$==~~~~~~~~~~~~~~~~~~56aeeeeeeeeedj7~~~{]====2,+%-&;;;;;;;",
"%%%@==)~~~~~~~~~~~~~~~4deeeeeeeeci4~~~~~['====22*>%-&;;;;;;#;",
"%%%&==_~~~~~~~~~~~~49aeeeeee0i47~~~~~!]^====22*>%-;;;;;;;;;;;",
"%%%%==]~~~~~~~~7j9aeeee0ifg~~~~~~<[]^=====2,+%%-&;;;;;;;;;;;;",
"%-%%:=8~~~~74ice006fg7~~~~~~~{!}(======22$#%%-&;;;;;;;#;;;;;;",
"%%%%+==1~~bggb~~~~~~~~~~<)|/8=======2,*.-%%>&;;;;;;;;;;;;;;;#",
"%-%%&==_~~~~~~~~~~1)|}'^========22:$;%%%%-;;;;;;;;#;;;;;;;;;;",
"%%%%%,=(~1)!||/'8===========22:+#-%%%%-&;;;;;;;;;;;;;;;;;;;;;",
";#+$+:================23,:+.&%%%%%%-&;;;;;;;;;;;;;;;;;;#;;;;;",
"222222=========22,:*$.;-%%%%%%%%>&&;;;;;;;;;;;;;;;;#;;;;;;;;;"};
