/* XPM */
static char * mouse_left_xpm[] = {
"59 91 48 1",
" 	c None",
".	c #AFB0CD",
"+	c #A7A9C8",
"@	c #9FA1C0",
"#	c #9A9ABE",
"$	c #848CAA",
"%	c #697392",
"&	c #7B84A1",
"*	c #122450",
"=	c #757C94",
"-	c #BABEDA",
";	c #4D283C",
">	c #B52E19",
",	c #5C2937",
"'	c #C42F14",
")	c #FF3300",
"!	c #D3300F",
"~	c #302646",
"{	c #4A5778",
"]	c #7A2B2D",
"^	c #21254B",
"/	c #892C28",
"(	c #E1310A",
"_	c #FF4000",
":	c #FF6000",
"<	c #FF7300",
"[	c #FF7900",
"}	c #972C23",
"|	c #FF5900",
"1	c #FF8000",
"2	c #FF9900",
"3	c #FF4D00",
"4	c #3E2741",
"5	c #FF8C00",
"6	c #FF9300",
"7	c #3E4862",
"8	c #6B2A32",
"9	c #F03205",
"0	c #FF5300",
"a	c #FF3900",
"b	c #FF4600",
"c	c #FF8600",
"d	c #FF6600",
"e	c #5C6888",
"f	c #FF6C00",
"g	c #A62D1E",
"h	c #11244D",
"i	c #253359",
"                                                         .+",
"                                                      .++@@",
"                                                    .++#$%&",
"                                                 .***$=$@--",
"                                               .******&---.",
"                                             .****;>,**--##",
"                                           .****;'))!**=-@#",
"                                          ****;')))))~*{-.#",
"                                        .***~')))))))]**--#",
"                                       .**^/)))))))))>**$-.",
"                                     .***;()))_:<[_))(**=-.",
"                                    .**^})))|122223)))^*{--",
"                                   ***4!))|5222226))));*7--",
"                                 .***89)052222222|))))]**--",
"                                .***})_1222222221)))))/**+.",
"                               .**^')|6222222226a)))))'**#-",
"                              .**~!a<2222222226b))))))'**=-",
"                             +**49bc2222222222|))))))))**%-",
"                            +**49b62222222222d)))))))))**e.",
"                           +**49|22222222222<))))))))));*7-",
"                          +**49|22222222222<)))))))))));*7-",
"                         +**49|22222222222ca))))))))))),**-",
"                        +**49|22222222222ca))))))))))))/**-",
"                       +**49|22222222222ca)))))))))))))/**-",
"                      +**^(b22222222222ca))))))))))))))}**-",
"                      **^!b622222222226b)))))))))))))))'**#",
"                     ***>a522222222226b))))))))))))))))'**#",
"                    +**})122222222226b)))))))))))))))))'**#",
"                   @**8)f22222222226b))))))))))))))))))(**$",
"                  @**49|22222222226b))))))))))))))))))))**$",
"                  **^!_62222222226b)))))))))))))))))))))**%",
"                 @**>)c2222222226b))))))))))))))))))))))**e",
"                @**])d22222222220)))))))))))))))))))))))**%",
"               @**4932222222222|))))))))))))))))))))))))**e",
"               ***!a5222222222|)))))))))))))))))))))))))4*%",
"              @**/)f222222222|))))))))))))))))))))))))));*e",
"             @**;)3222222222|)))))))))))))))))))))))))));*{",
"             **^()c22222222|))))))))))))))))))))))))))));*7",
"            #**/)d22222222|)))))))))))))))))))))))))))));*7",
"           #**4)_62222222|))))))))))))))))))))))))))))));*7",
"           #**!)[2222222:)))))))))))))))))))))))))))))));*7",
"          @**])32222222<))))))))))))))))))))))))))))))));*7",
"          **^9)5222222<)))))))))))))))))))))))))))))))));*7",
"         #**g)|222222<))))))))))))))))))))))))))))))))));*7",
"        #**;)a622222<)))))))))))))))))))))))))))))))))));*7",
"        #**')d22222[))))))))))))))))))))))))))))))))))));*7",
"       #**8)a62222ca))))))))))))))))))))))))))))))))))));*7",
"       $*^()f2222ca)))))))))))))))))))))))))))))))))))));*7",
"      #**/)_22225a))))))))))))))))))))))))))))))))))))));*7",
"      **^9)<2226b)))))))))))))))))))))))))))))))))))))));*7",
"     #**/)_2226b))))))))))))))))))))))))))))))))))))))));*{",
"     **~))<2220)))))))))))))))))))))))))))))))))))))))));*7",
"    #**g)a222|))))))))))))))))))))))))))))))))))))))))));*7",
"    **~))d22f)))))))))))))))))))))))))))))))))))))))))))4*e",
"   #**g)a62[))))))))))))))))))))))))))))))))))))))))))))**%",
"   **~)):2ca))))))))))))))))))))))))))))))))))))))))))))**%",
"  #**g))56b)))))))))))))))))))))))))))))))))))))))))))))**%",
"  $*^))|20))))))))))))))))))))))))))))))))))))))))))))))**%",
" $**/))1f))))))))))))))))))))))))))))))))))))))))))))))9**=",
" $*^9)bc)))))))))))))))))))))))))))))))))))))))))))))))'**#",
"$**/))<b)))))))))))))))))))))))))))))))))))))))))))))))'**$",
"$**()a:))))))))))))))))))))))))))))))))))))))))))))))))'**#",
"**8))|_))))))))))))))))))))))))))))))))))))))))))))))))}**#",
"**!)):)))))))))))))))))))))))))))))))))))))))))))))))))/**-",
"*4))0_)))))))))))))))))))))))))))))))))))))))))))))))))/**-",
"*;))3)))))))))))))))))))))))))))))))))))))))))))))))))),*h-",
"*4)))))))))))))))))))))))))))))))))))))))))))))))))))));*7-",
"**)))))))))))))))))))))))))))))))))))))))))))))))))))))4*7-",
"**>))))))))))))))))))))))))))))))))))))))))))))))))))))**{-",
"**8))))))))))))))))))))))))))))))))))))))))))))))))))))**e-",
"h*^9))))))))))))))))))))))))))))))))))))))))))))))))))'**%-",
"7**/))))))))))))))))))))))))))))))))))))))))))))))))))'**$-",
"#h**!)))))))))))))))))))))))))))))))))))))))))))))))))/**#-",
"-7**49))))))))))))))))))))))))))))))))))))))))))))))))]**.-",
"-+i**8))))))))))))))))))))))))))))))))))))))))))))))));*h--",
"--$h**8)))))))))))))))))))))))))))))))))))))))))))))))~*7--",
"---=h**89)))))))))))))))))))))))))))))))))))))))))))))**{.-",
".---eh**4()))))))))))))))))))))))))))))))))))))))))))'**%--",
"-----&h**^}))))))))))))))))))))))))))))))))))))))))))g**$--",
"-.--.-#i***;!))))))))))))))))))))))))))))))))))))))))/**#--",
"------..{****8())))))))))))))))))))))))))))))))))))));*h--.",
"-.-------$i****8!))))))))))))))))))))))))))))))))))))^*7---",
"---.------.%i****4g9))))))))))))))))))))))))))))))))(**{---",
"------------.%i****^8>))))))))))))))))))))))))))))))>**&.--",
".---.--.------.&i*****^,g())))))))))))))))))))))))))]**+---",
"-.------.--.-----@{h******~8g())))))))))))))))))))))4*i----",
"-----.-------.------${i*******~,/'())))))))))))))))9**{--.-",
"--.-----.-----.--------@%7h********^;8/'!))))))))))g**$----",
"-----------.----.----------#%{h***********^;,//>'');**-.---",
"----.---.----------.-.-.--.----.$%77h****************h{e%ee",
"-.------------.-------------.------.-##%e77h*********hhhhhh"};
