/* XPM */
static char * mouse_3b_mini_xpm[] = {
"105 175 33 1",
" 	c None",
".	c #0C1834",
"+	c #FE9A02",
"@	c #303C5D",
"#	c #AB8128",
"$	c #E7A418",
"%	c #DAA22A",
"&	c #95742E",
"*	c #E6A929",
"=	c #747C98",
"-	c #62543B",
";	c #F7B01E",
">	c #FEA005",
",	c #B7944C",
"'	c #ACAECB",
")	c #816834",
"!	c #7C85A3",
"~	c #AFB2CF",
"{	c #A28C5E",
"]	c #5F6A8B",
"^	c #E2A62E",
"/	c #14254C",
"(	c #424E6E",
"_	c #FEB212",
":	c #BABEDA",
"<	c #6B7491",
"[	c #848BA9",
"}	c #9A9ABE",
"|	c #D6A236",
"1	c #A6A8C7",
"2	c #9FA0C0",
"3	c #515D7F",
"4	c #CB9420",
"                                                ]]}3.                                                    ",
"                                                3]}(.                                                    ",
"                                                ]<}@.                                                    ",
"                                                3=}@.                                                    ",
"                                                3=}/                                                     ",
"                                                3!}/                                                     ",
"                                                3!}.                                                     ",
"                                                (!}.                                                     ",
"                                                3[}.                                                     ",
"                                                ([}.                                                     ",
"                                                (}}.                                                     ",
"                                                (!}.                                                     ",
"                                                (!}.                                                     ",
"                                                (!}/                                                     ",
"                                                (=}/                                                     ",
"                                                (=}@                                                     ",
"                                                ]<}@.                                                    ",
"                                                ==}<@@                                                   ",
"                                               !!}}}!@/                                                  ",
"                                               3}}}}}[/                                                  ",
"                                               (}}}}}}/                                                  ",
"                                               @}}}}}}(.                                                 ",
"                                               ([}}}}}3.                                                 ",
"                                               (!}}}}}<.                                                 ",
"                                               3!}}}}}!/                                                 ",
"                                               ](@@@@@@/(                                                ",
"                                           '2}[]3<]==<]3]]===                                            ",
"                                         2}[2'::~'~1111'':1}=]]]                                         ",
"                                      ~2[=(:22}}}}}}}}}}}}2:[/3(]3                                       ",
"                                     2[,_$/}1}}}}}}}}}}}}}}2(@_%-(33                                     ",
"                                   '[,;___(]'}}}}}}}}}}}}}}}/)___4(((                                    ",
"                                  2[^_;>__)@:}}}}}}}}}[}}}}!/#_____&@((                                  ",
"                                ~}{_>+++__#/:1}}}}}}}}}}}}}</$______4@@@                                 ",
"                               '[,;>+++>__4/~~}}}}}}}}}}}}2]/________;-@@                                ",
"                              1!%>+++++___*/}:2}}[}}}}}}}}13@_________;)@@                               ",
"                             2!*>+++++_____/[:'}}}}}}}}}}}1@-_________;;)/@                              ",
"                            1!$++++++______@=::}}}}}}}[}}}~@-____________)//                             ",
"                           2!%++++++_______(]::'}}}}}}}}}}:/&_____________)@/                            ",
"                          1!%>+++++>_______-3:~:}}}}}}}}}}:/)______________-//                           ",
"                          [,>+++++_________-3:::2}[}}}}}}}1/#_______________(//                          ",
"                         }{>+++++>_________)3:::~2}}}}}}[21/#_______________$@//                         ",
"                        }=_+++++;__________)(~:::2}}}}}}}}1/4________________4//                         ",
"                       2!$+++++>___________)(:~::~}}}}}}}2}/4_________________&//                        ",
"                       [4>++++_____________&(:::::2}[}}}}2[/4__________________(//                       ",
"                      }{;++++>_____________#@~::~:~2}}}}}2}/%__________________$//                       ",
"                     }=*++++_______________&@::::::2}}}}}}}/*________________>__&//                      ",
"                     !4>+++>_______________#@~:::::~}}}}}}[/$_________________>__(/.                     ",
"                    [!_+++>________________&@:~:~:::2}}[}2!/*__________________>_%//                     ",
"                    =*>++>_________________#@:::::::~}}}}}!/%__________________>>_)/.                    ",
"                   [{_++>__________________&@~:::~:::'}}}}!/*__________________;+;;//                    ",
"                  }<;++>___________________#@::~::::::2}}}!/*___________________++_&//                   ",
"                  !,;+>____________________&@::::~:::~:}}1[/*___________________>+>;@/                   ",
"                 [=_+>_____________________&@~:::::::::~1~}/$___________________>>+;&//                  ",
"                 !,;>______________________)(::::~:::~::::}/|___________________;+++_@/                  ",
"                [=_>;______________________)(:~:::::::::::}/4____________________+++>#./                 ",
"                [{_>_______________________-(::::~::~:::~:1/,___________________>++++;@.                 ",
"                <__________________________]3::~::::::::::~/#____________________++++>&//                ",
"               !#__________________________(]:::::::~:~::::/#___________________>+++++;/.                ",
"               <|;_________________________@]::::~:::::~:::@)___________________>+++++>-/.               ",
"              [(4__________________________@!:~:::~:~::::::@)__________________;++++++>-//               ",
"              =@)__________________________.[:::::::::::~::((__________________>++++++>///               ",
"             !<<@_________________________%/}:::~::::~:::::](_________________>+++++++#/@3.              ",
"             ![~/)________________________,/':~:::::::~::::</_________________+++++++$//[2/              ",
"             <~:[/,_______________________&/::::~:~::::::::[/________________+++++++>(/3::@.             ",
"            !<:::</#______________________)@::::::::~::~:::1/,______________++++++>$@/3~2:</             ",
"            =}::::!/3_____________________(3:~::::~:::::::::/{____________++++++>_#//]'}}1'.             ",
"            ]~:::::2(/)___________________@<:::~:::::~:~:~::@)___________>++++>_#(/@[12}}}:(.            ",
"           !=::~:::::!@@]|_______________%/}:~::::~:::::::::3(________>++>>>_$&@//=~2}}}}}~=/            ",
"           =}:::::~::::!(/@],*___________#/~:::::::::::~::::</________>__;4)@//([~2}}}}}}}1'/            ",
"           ]~::~::~::::::'=3/@@3&,*______-(::~:~::~:~:::::::'/,_____$4&)@///(=''2}}}}}}}}}2:@.           ",
"          ==::::::::~::::::::2=3(///@(-)&/3}}1111::::::~121}[@(&)-@////@3=2::1}}}}}}}}}}}}}~=/           ",
"          =[::::::::::~:::~:::::::~[!<3(@@/////////////////////@(3]=[2::~'1}}}}}}}}}}}[}}}}11.           ",
"          ]~:~:~::~::~:::~::::~:::~''~~:::::~1112[}[[}[}111~::::~:::~'122}}}}}}}}}}}}}}}}}}2:@.          ",
"         =<::::::::::::::::~::::::::~1}}2221'~~~:~:::::::~:~~~''112}}}}}}}}}}}}}}}}}}}}}}}}}~].          ",
"         =[:::::~::~:::~:::::~::~::::::12}}}}}}}}}}}}}}}}}}}}}}}}}}}}}}}}}}}}}}}[}}}}}}[}}}}'[/          ",
"         ]1~:~:::::~::::~::::::::::::::::~2}}}}}}}}}}}}}}}}}}}}}}}}}}}}}}}}}}}}}}}}}}}}}}}}}1~/          ",
"         ]::::::~:::::~::::~::~:~:~:~:~::::~1}}}}}}}}}}[2}}}}[}}}}}}}}}}}}[}}}}}}}}}}}}}}}}}}:(.         ",
"        ==::::::::::::::~::::::::::::::::::::~1}}}}}}}}}}}}}}}}}}}}}}}[}}}}}}[}}}}[}}}}}}}}}}'<.         ",
"        <[:~::::::~:::~::::~::::~::::::~:~:::::~12[}}}}}}}}}}}}[}}}}}}}}}}}}}}}}}}}}}}}[}}}}}1}.         ",
"        <1:::~:~::::::::~::::~::::~:~:::::::::::::'}}}}}[}}}}}}}}}}}}}}}}}}}}}}}}}}}}}}}}}}}}2:/         ",
"        ]::::::::~:~:::::::::::::::::~::::~::::::::~'2}}}}}}}}}}}[}}}}}[}}}}}[}}}}[}}}}}}}}}}}:(.        ",
"       <=::::~:::::::~:::~::::~:::::::::::::~:~:::::::'}}}}}[}}}}}}}}}}}}}}}}}}}}}}}}}}}}[}}}}'].        ",
"       <[:~::::~:::::::::::~:::~:~:~::~:~::::::~::::~::~'}}}}}}}}}}}}}}}}}}}}}}}}}}}}}}}}}}}}}1[/        ",
"       ]1::~:::~::~:~:::::::::::::::::::::~::::::~::::::~:1}}}}}}}}[}}}}}[}}}}}}[}}}}}}}}}[}}}2~.        ",
"       ]::::::::::::::~:~::~:~::::::~:~::::::~::::~::::::::~2}}}}}}}}}[}}}}}[}}}}}}[}}}}}}}}}}}:@        ",
"      <]:::::::~:::~:::::::::::~::~::::::::~:::~::::~::::::::'}}}}}}}}}}}}}}}}}}}}}}}}}}}}}}}}}'3.       ",
"      <!~::::::::~::::::~:::::::::::::~:~::::::::::::~:~::::::~1}}}}}}}}}}}}}}}}}}}}}}}}}}}}}}}1=.       ",
"      <[::~:~:::::::::~:::::~:::~:~::::::::~::::~:::::::~:~:::::~2}{}}}}[}}}}}}}[}}}}[}}}}}}}}}2}.       ",
"      ]1:::::::::::~::::~::::~::::::~:::~:::~::::~:~::::::::~:::::~2}}}}}}}}[}}}}}}}}}}}}}}[}}}}~/       ",
"      ]:::~:~:~:~:::::::::~:::::::~:::~:::::::~::::::~:::~::::::::~:2}}}}}}}}}}}}}}}}}}}}}}}}}}}~@       ",
"      ]:~::::::::~::~:~::::~:~::::::::::::~::::~:::::::::::~::~:~::::~}}}}}}}}}}[}}}}[}}}}}}}}}}'(.      ",
"     ]!:~:::::::::::::::~::::::~::~:::~:~:::~:::::~::~::~::::::::::::::2}}}}}}}}}}}}}}}}}}}}}}}}1].      ",
"     ][~~:~:~:~:::~::::::::::::::::~::::::::::::::::::::::~::~::::~:::::'}}}}}}}}}}}}}}}}}}[}}}}2[.      ",
"     ]2':::::::::::::~:::~:::~:~::::::::~:::::~:~::~:::~::::::::::::~::::~}}}[}}}[}}}}[}}}}}}}}}}2.      ",
"     ]~1:::::~:~:::~::~:::~::::::~::~::::~:~:::::::::~:::~::~::~::~:::~::::'}}}}}}}}}}}}}}}}}}}}}~/      ",
"     3:2~:~::::::~::::::::::::::::::::::::::::::~:~:::::::::::::::::::::::::~}}}}}}}}}}}}}}}}}}}}'@      ",
"     <:1::::::::::::~:~:~:~::~:~::~:~::~:::~:~:::::::::~::~::~:::::~::~::~::::2}}}[}}}}[}}}}[}}}}1(.     ",
"    ]<'1::~:~::~:~:::::::::::::::::::::::::::::::~::~:::::::::~:~::::::::::~:::2}}}}}}}}}}}}}}}}}13.     ",
"    ][11::::::::::::::::::~::~::~:::~:::~:::::::::::::~::~:::::::::~::~::::::~::'}}}[}}}}}}}}}}}}2<.     ",
"    ][1':::::~::::~::::~::::::::::::::~::~:~:~:~:~:~::::::~:~::::::::::::~:::::::~}}}}}}[}}}}}}}}}[.     ",
"    ]22'::~::::~:::~::::~:~:::~::~:::::::::::::::::::~::::::::~:~::::~:~::::~::~::~2}}}}}}}}}[}}}}}.     ",
"    3'}~~:::~::::::::~::::::::::::::~:~::::~:~::~::::::~::::~:::::~:::::~::::::::::~}}}}}}}}}}}}}}'.     ",
"    3:}~::::::::~:::::::::~:~::~:~::::::~:::::::::~::::::~::::~:::::::::::~::~::~::::2}}}[}}}}}}}}~/     ",
"    ]~}~::~::~:::~:~::~::::::::::::::::::::::~:~:::~::~:::::~:::~::~::::::::::::::::::2}}}}}}}}}}}~/     ",
"    ]~}~::::~:::::::::::~::::~:::~:::~::::::::::::::::::~:::::::::::~::~::::~::::~::~::1}}}}}}}[}}~(     ",
"   ]<1}~~:::::~::::~::~::::~:::::::~::~:~:~::::~:::::~:::::~:::::~:::::::~::::~:::::::~:2}}}}}}}}}1(.    ",
"   ]=1}~::~:::::~::::::::~::::~:::::::::::::~::::~:~:::~::::~:~::::::~:::::::::::~:::::::2}}}}}}}}13.    ",
"   3!1}~::::::~::::~::~::::::::~:~:~::~:::~:::~:::::::::::~:::::::~:::~:::~:::~::::~:::~::2}}}}}}}1].    ",
"   ][1}~:~:~:::::::::::~::~:~::::::::::~::::::::::::~:~:::::~::~:::::::~:::~:::::::::~:::::2}}}}}}2=.    ",
"   3[}}'::::::~:~::~:::::::::::::::~::::::~::~:~:~:::::~::~::::::~:~::::::::::::~:::::::~:~:2}}}}}1=.    ",
"   312}':::~:::::::::~::~::::~:~:::::~:::::::::::::::::::::::~:::::::::~:~::~:~:::~:::~::::::}}}}}2}.    ",
"   3}}}'~:::::::~:::::::::~::::::::::::~::~:~::::~:~:::::~:::::::~::~::::::::::::::~::::::~:~:}}}}1[.    ",
"   31}}1::~::~:::~:~::~::::::::~:~:~:::::::::::~:::::~:~::~:~:~::::::~::~:~::~::~:::::::~:::::~}}}22.    ",
"   (~}}2:::::::::::::::::::~:~:::::::::~::::~:::::~:::::::::::::::~::::::::::::::::~:~:::::::::~}}11.    ",
"   3'}}2::~::~:~::::~::~:~:::::::~::~::::~::::::::::~::::~:::~:~:::~:::::~::~::::~::::::::~:::::~2'1.    ",
"   3~}}}::::::::::~::::::::::::~:::::::~:::~::~::~::::~:::::::::::::::~:::::::~::::::~:~::::~::::::~.    ",
"   (:}}}~:~:::::~::::~:::~::~:::::~:::::::::::::::::::::~:~:::~:~::~::::::~::::::::~:::::~::::~::~::.    ",
"   (:}}}~:::~:~:::~::::~::::::::::::~::~::~::~::~:~::~::::::::::::::::~:~::~::~:~:::::~::::~::::::::.    ",
"   (:}}}':::::::::::::::::~::~:~:::::::::::::::::::::::~::~:~::~:~:~:::::::::::::::::::::::::~:::::~/    ",
"   (:}}}2:~:::~:::~:~::~:::::::::~::~::~::~::~:::~::~::::::::::::::::~::~::::~::~::~:::~::~::::~:~::.    ",
"   (:1}}}::::::~::::::::~::~:::::::::::::::::::~::::::~:::~::~::::::::::::~::::::::::~::::::~::::::~.    ",
"   (:2}}}~:~::::::~::~:::::::~:~:~::~::~:~::~::::::~:::~:::::::~:~::~::~::::~::~::~::::::~::::::~:::.    ",
"   ('1}}}~:::~:::::::::~:~:::::::::::::::::::::::~:::::::~::::::::::::::::::::::::::~::~:::~::::::~1.    ",
"   (11}}}2:~:::~:~::~::::::::::::~::~::~:~::~:~:::::~:::::::~:::~::~::~:~::~::~::~::::::::::~::~:::2.    ",
"   (}~}}}}::::::::::::::~:~:~:::::::::::::::::::::::::~:~:::::~::::::::::::::::::::~::::~::::::::::[.    ",
"   @[~}}}}~~::~:::~::~::::::::~::~::~::::~::::~:~::~:::::::~::::~::~:::~::~::~::~::::~::::::~::~:::=.    ",
"   (!~}}}}1:::::~:::::::::~:::::::::::~::::~:::::::::~:::~:::::::::::~::::::::::::~::::~::~::::::~:].    ",
"   @]:2[}}}::~::::~::~:~::::::~::~::~::~:::::::~::~:::~::::::~::::~::::::~::~::~::::::::::::::~::::(.    ",
"   @3:}}}}}1:::~::::~:::::~:::::::::::::::~::~::::::::::~::~:::~:::::::~:::::::::~::~:~:::::~:::::~@     ",
"    @:1}}}}2:::::~::::::~:::~:~::~::~::~:::::::~:::~::::::::::::::~:~::::::~::~::::::::~:~:::::~::~.     ",
"    @2~}}}}}~~::::::~::::::::::::::::::::~:::::::~:::~:~::::~:~::::::::::~::::::~::~:::::::::::::~[.     ",
"    /!:}[}}}2:~::~::::~:~:~:::~::~:::~:::::~:::::::::::::~:::::::~::~:~::::::~:::::::::::~:~::~:::].     ",
"    @3:}}}}}}~:::::~::::::::::::::::::::~::::~:~::~::::::::::::~:::::::::::~:::~::~::~::::::::::::@.     ",
"     @:1}}}}}2:~::::~::::::~::~::~:~:~:::::::::::::~:~::~:~:~::::::~::~:~:::::::::::::~:::~::~:~:~.      ",
"     /}~}}}}}}1:::::::~:~::::::::::::::~::~:::~::::::::::::::::::~::::::::::~:::~::~::::~::::::::!.      ",
"     /]~}}}}}}2~~::~:::::::~::~::~::~::::::~::::~:::~::~::::~:~::::~:::~:~:::~::::::::::::~::::~:(.      ",
"      @:1}[}}}}2:::::~::~:::::::::::::::~:::::::::~::::::~:::::::::::~:::::::::~::::~:::::::~:::'/       ",
"      /[~}}}}}}}~~:::::::::~::~::~:~:~::::::~::~::::::~::::~:::~:::::::::~::~::::~::::~:::::::::=.       ",
"      /3:}}}}}}}}~::~::::::::::::::::::~::~:::::::::~::::::::~:::~:~:::~::::::~::::~::::~:~::~:~@.       ",
"       /~1}}[}}}}}~::::~:~:~::~:::~:::::::::~::~:~:::::~::~:::::::::~::::::~:::::::::::::::::::2.        ",
"       /<:}}}}}}}}2~:~:::::::::::::~::~:::::::::::::::::::::~::~:::::::::~:::~::~:~::~:::~::~::3.        ",
"        /~1}2[}}}}}}:::::::~::~:~:::::::~::~::~::~:~::~::~::::::~:::~:~:::::::::::::::~:::::::1.         ",
"        /=~}}}}}}}}}}~::::::::::::~:~::::::::::::::::::::::~::::::~::::::::~::~::::~::::~::~::3.         ",
"        /@~1}}}}}}}}}}~:~::~::~:::::::::~::~::~:::~::~::~:::~:::::::::~:~:::::::~::::::::::::1.          ",
"         /<:}}[}}}}}}}}~:::::::~::~::~::::::::::~:::::::::::::~:~:::~:::::~::~::::~::~:~::~::3.          ",
"          /1'}}}}[}}}}}}1~:~::::::::::::::~::~::::~::~::~::::::::~:::::~::::::::::::::::::::}.           ",
"          /3:}}}}}}}}}}}}2~::::~:~::~::~::::::::::::::::::~:~::::::::::::~::~::~:~::~:::~::~@.           ",
"           /[~}}}}}[}}}}}}}1~~:::::::::::~::~::~::::~::~:::::~:::::~::~::::::::::::::~:::::!.            ",
"           /@~1}}}}}}}}}}}}}21:~:::~:::::::::::::~:::::::~:::::~:~::::::~::~::~:::~::::~::1/.            ",
"            /3:}}}}}}}[}}}}}}}}'~::::~::~::~::~::::~::~::::::::::::::~:::::::::~:::::::::~(.             ",
"             /[:}}}}}}}}}}}}}}}}}2':~:::::::::::~:::::::~::~::~:::~::::~::~:::::::::~::::<.              ",
"             //1~}}}}}}}}}}}}}}}}}}}1':~::~::~:::::::~:::::::::~:::::::::::~:::~:~::::~:}..              ",
"              /@~'}}}}}[}}}}}}}}}}}}}}}21~~::::~::~::::~::~::::::~::~:~::::::~:::::::::'@.               ",
"               /(:1}}}}}}}}}}}}}}}}}}}}}}}}}211~~~:::::::::~:::::::::::~::~::::::~:~::~@.                ",
"                /3:1}}}}}[}}}}}}}}}}}}}}}}}}}}}}}}}}}22'~::::~:~::~:::::::::::~::::::~3.                 ",
"                 /]:'}}}}}}[}}[}}}}}}}}}}}}}}}}}}}}}}}}}}}1~:::::::~:::~:::~::::::::~].                  ",
"                  /<:'}}}}}}}}}}}[}}[}}}}}}}}}}}}}}[}}}}}}}}2~:~:::::~:::~:::~:~:~::].                   ",
"                   /<:~}}}}}}}}}}}}}}}}}}[}}}}}}}}}}}}}}}}}}}}2:::~::::::::::::::::].                    ",
"                    .3::1}}}}}}}}}}}}}}}}}}}}[}}}}}}}}}}}}}}}}}}~::::~::~:~:::::~:3.                     ",
"                     /(~:'}}}}}}}}}}}}}}}}}}}}}}}}}}}}}[}}}}}}}}}~~::::::::~:~::~(.                      ",
"                      .@2:~1}[}}}}}[}}}}}}}}}}}}}}}}}}}}}}[}}}}}}}:~::~::::::::1@.                       ",
"                       ./!::~2}[}}}}}[}}}}}}}}}[}}}}}}}}}}}}}}}}}}2::::~::~:::[/.                        ",
"                        ./3~::~2}}}}}}}}}}}}}}}}}}}[}}}}}}}}}[}}}}}~::::::::~]..                         ",
"                          //[:::'2}}}}}}}[}}}}}}}}}}}}}}}}}}}}}}}}}~~::~:~:}@.                           ",
"                           ./(1:::~1}}}}}}}}}}}}}}}}}}}[}}}}}}}}}}}~:::::'3..                            ",
"                             ./31:::~1}}}}}}}}}[}}}}}}}}}}}}}}}}}}}~~::~=/.                              ",
"                               ./32::::~12}}[}}}}}}}}}}}}}}[}}}}}}1::~</..                               ",
"                                 ./([::::~:~'2}}}}[}}}}}}}}}}[}}}':2]/..                                 ",
"                                   ../3}::::::~~'122}}}}}}}}}2211<@..                                    ",
"                                      ../(<}~::::::~:~~'~~~~1!]@...                                      ",
"                                         ....@(3<=[[[[[<]3@/....                                         ",
"                                              .............                                              ",
"                                                                                                         ",
"                                                                                                         ",
"                                                                                                         "};
