/* XPM */
static char * mouse_3b+_mini_xpm[] = {
"105 175 33 1",
" 	c None",
".	c #0C1530",
"+	c #FE9A02",
"@	c #212F55",
"#	c #7C6535",
"$	c #E8A518",
"%	c #B68725",
"&	c #DAA22A",
"*	c #95742E",
"=	c #E6A929",
"-	c #757C98",
";	c #F7B01E",
">	c #B2924F",
",	c #FDA106",
"'	c #61543C",
")	c #ACAECB",
"!	c #7E84A0",
"~	c #AFB2CD",
"{	c #878DAC",
"]	c #13234A",
"^	c #E2A62E",
"/	c #8D6F32",
"(	c #5B6485",
"_	c #3A4461",
":	c #BABEDA",
"<	c #9A9ABD",
"[	c #FEB212",
"}	c #D6A236",
"|	c #465173",
"1	c #A6A8C6",
"2	c #9EA0C0",
"3	c #697293",
"4	c #313C5E",
"                                                (3<|.                                                    ",
"                                                ((<|.                                                    ",
"                                                (-<4.                                                    ",
"                                                (-<4.                                                    ",
"                                                (3<@.                                                    ",
"                                                (!<].                                                    ",
"                                               (|!<..                                                    ",
"                                               (|!<].                                                    ",
"                                               ((!{].                                                    ",
"                                               (|<<..                                                    ",
"                                               ||{<].                                                    ",
"                                               (_!<..                                                    ",
"                                               (|!<].                                                    ",
"                                               (|!<].                                                    ",
"                                                _!<@.                                                    ",
"                                                |3<@.                                                    ",
"                                                33<4]                                                    ",
"                                               2--<-@4                                                   ",
"                                              {!!<<<!_]                                                  ",
"                                              (|<<<<<!]]                                                 ",
"                                              |_2<<<<<@.                                                 ",
"                                              |_{<<<<<_.                                                 ",
"                                              ||{<<<<<|]                                                 ",
"                                              |_!<<<<<3.                                                 ",
"                                              -(-<<<<<!].                                                ",
"                                             )13|_444__]_-!                                              ",
"                                          ~)1{!((33-333((33---                                           ",
"                                       ~~1{{<~::~)11)111~:)<-(33                                         ",
"                                     ~~2{/|:12<<<<<<<<<<<<<:{]||((                                       ",
"                                    ~1{>;=@{2<<<<<<<<<<<<<<<|4[&'|||                                     ",
"                                  ~){>;[[[|3)<<<<<<<<<<<<<<<]#[[[}||||                                   ",
"                                 ~1!^[;,;[#_:<<<<<<{<<<{<<<{]%[[[[;*4__                                  ",
"                                ~<>;,+++[[%]:1<<<<<<<<<<<<<3]&[[[[[[&___                                 ",
"                               ){>,,++++[[>]1~<<<<((((<<<<2(@[[[[[[[[='44                                ",
"                              1!&,+++++[[[$]<:2<<@....]{<<1|4[[[[[[[[[;#@4@                              ",
"                             1!^,+++++[[[[[@!:)<<@....]{<<)_'[[[[[[[[[;[#@@@                             ",
"                            1!$++++++[[[[[[4-::<<].....{<<~@'[[[[[[[[[[[[#@@                             ",
"                           1!&++++++[[[[[[[_3::1<4....4{<<:]/[[[[[[[[[[[[[#@@                            ",
"                          1!&,+++++,[[[[[[['(:::<].....{<<:]/[[[[[[[[[[[[[;'@]                           ",
"                         1!}++++++;[[[[[[[['|:~:14....4{<<1]%[[[[[[[[[[[[[[[_@]                          ",
"                        1<>$+++++,[[[[[[[[[#|:::~@....]{<<1]%[[[[[[[[[[[[[[[$4]]                         ",
"                       1<!,+++++[[[[[[[[[[;/|::::4]..]4{<21]>[[[[[[[[[[[[[[[[>]]]                        ",
"                       2-;+++++,[[[[[[[[[[[/_::::......{<<{]}[[[[[[[[[[[[[[[[[*]]                        ",
"                      2!}+++++[[[[[[[[[[[[;/_:~::_....4{<2<]%[[[[[[[[[[[[[[[[[;']]                       ",
"                     1<*;++++,[[[[[[[[[[[[[%@::::].....{<<{]$[[[[[[[[[[[[[[[[[[&@]]                      ",
"                     <-;++++;[[[[[[[[[[[[[[*4:::~@....@{<2<]=[[[[[[[[[[[[[[[[,[[*]]                      ",
"                    2!>,+++,[[[[[[[[[[[[[[[%@::::......{<<<]$[[[[[[[[[[[[[[[[[,[[_]]                     ",
"                   <<![+++,[[[[[[[[[[[[[[[[*4:~::_...]4{<<!]=[[[[[[[[[[[[[[[[[[,[&]]]                    ",
"                   <-$,++,[[[[[[[[[[[[[[[[[%@::::].....{<<!]&[[[[[[[[[[[[[[[[[[,,[#]]                    ",
"                  <{%;++,[[[[[[[[[[[[[[[[[;*4:::~_....4{<<!]=[[[[[[[[[[[[[[[[[[,+[$@]]                   ",
"                  <3=,+,[[[[[[[[[[[[[[[[[[[%@::~:......!<<!]=[[[[[[[[[[[[[[[[[[[+,[*]]                   ",
"                 <!>;+,[[[[[[[[[[[[[[[[[[[[*@::::_...]_{<1{]=[[[[[[[[[[[[[[[[[[[,+,;@]]                  ",
"                 <3[,+[[[[[[[[[[[[[[[[[[[[[*_::::......21:{]=[[[[[[[[[[[[[[[[[[[,++[*]]                  ",
"                <!>;+[[[[[[[[[[[[[[[[[[[[[[/_:~::_]..]_)::<]}[[[[[[[[[[[[[[[[[[[;+++[4]]                 ",
"                <3[,,[[[[[[[[[[[[[[[[[[[[[[/_::::......1::2]>[[[[[[[[[[[[[[[[[[[[+++,*]]                 ",
"               {!>[[[[[[[[[[[[[[[[[[[[[[[[[(|:~::|]..]|)::1]}[[[[[[[[[[[[[[[[[[[,++++[@]]                ",
"               {-;[[[[[[[[[[[[[[[[[[[[[[[[['(::::......1::~]*[[[[[[[[[[[[[[[[[[[;++++,/]]                ",
"              {{*[[[[[[[[[[[[[[[[[[[[[[[[[[_(::~:_]..]_)~::]%[[[[[[[[[[[[[[[[[[[,+++++,]]]               ",
"              {3&[[[[[[[[[[[[[[[[[[[[[[[[[[_3::::......1:::@/[[[[[[[[[[[[[[[[[[[++++++;']]               ",
"              {|%[[[[[[[[[[[[[[[[[[[[[[[[[[@-::~:4]..]_):::4#[[[[[[[[[[[[[[[[[[;++++++,_]]               ",
"             {-_/[[[[[[[[[[[[[[[[[[[[[[[[[[]{::::......2:::||[[[[[[[[[[[[[[[[[[,++++++,@]]]              ",
"             {33@[[[[[[[[[[[[[[[[[[[[[[[[[&]<:::~_]..]_1:::(|[[[[[[[[[[[[[[[[[,+++++++*]4(.              ",
"             !{~@#[[[[[[[[[[[[[[[[[[[[[[[[%]~::::......1:::3][[[[[[[[[[[[[[[[[+++++++$@]{<]]             ",
"            !3):{@>[[[[[[[[[[[[[[[[[[[[[[[*@:~:::(]..]3):~:{@[[[[[[[[[[[[[[[[+++++++,_]|::4]             ",
"            !-::~3]*[[[[[[[[[[[[[[[[[[[[[[#_:::~::-(33:::::2]>[[[[[[[[[[[[[[++++++,$_](~2~3.             ",
"           {-<~:::!@(;[[[[[[[[[[[[[[[[[[[[||::::::::~:::::::]>[[[[[[[[[[[[+++++++;%@]()2<)1]]            ",
"           !3~:::::24@/;[[[[[[[[[[[[[[[[[[@-:~::~:::::~:~:~:4'[[[[[[[[[[[+++++,[%_]4{1<<<2:_]            ",
"           !-:::::~::!4@(}[[[[[[[[[[[[[[[$]{::::::::::::::::(|[[[[[[[[,++,,,[$/4]@312<<<<<~-]            ",
"          {-<~:~::::~::{|@@#>=[[[[[[[[[[[%]~:::::~::~:~:::::-][[[[[[[,[[;;%/_]]|!~1<<<<<<<11]]           ",
"          !(~::::::::::::~!|@@4(*>=[[[[[['|:~:~:::~:::::::~:1]}[[[[[$%*#4@]]|-1~2<<<<{<<<<2:4]           ",
"          --:::::~:::~:::::::2-(4@]@4|'#/@({<111)::::::~2)1<{@_/#'_@]]]4'-2~:22<<<<<<<<<<<<~3.           ",
"         !-{::~::~:::~::~:::::::::){!((|_@@]]]]]]]]]]]]]]]]]]]@4||(-{1~::~22<<<<<<<<<<<<<<<11]]          ",
"         -3~:::::::::::::::~::~::~~~)~~::::~:1112{<{<{<{)11~:::~::::~)12<<<<<<<<<<<{<<<{<<<2:@.          ",
"         !3:::::::~::~::~:::::::::::~1<<<2111)~~~:~::::::~:~~~~111<<2<<<<<<<<<<<<<<<<<<<<<<<:(]          ",
"         -{:~:~::~:::::::::~::~::::::::12<<<<<<<2<<<<<2<<<<<<<<<<<<<<<<<<<<<<<<{<<<<<<<<<<<<1{]          ",
"        -32::::::::~:::~:::::::~:::::::::~2<<<<2{<<<<2{2{<<<<<<<<<<<<<<<<<<{<<<<<<<<<<<<<{<<1~]]         ",
"        -(:::::~:::::~::::~::::::~:~:~:::::~1<<<<<<<<{2<2<<<<<<<<<<<{<<<<<<<<<<<<<<{<<{<<<<<<~_.         ",
"        --::~::~::::::~:::::~::::::::::~:::::~1<2{<<2<2{<<<<<<<{<<<<<<{<<<<<<<<<<<<<<<<<<<<<<~3]         ",
"       !3{:::::::~:::::::~::::~::~::::::::::::::122<<<<<<<<<<<<<<<<<<<<<<<<<<<<<{<<<<<<<<<<<21{].        ",
"       -32::::::::~::~:::::~::::::::~::::~:~::::::)<<<<<<<<<{<<<<<<<<<<<<<<<{<<<<<<<<<<<{<<<<2:]]        ",
"       -3:::~::~::::::::~:::::~::::::~:~:::::~::~::~)<<<{<<<<<<<{<<<<<<<<<<<<<<<<<<<<<<<<<<<<<~_.        ",
"       -3::::::::::~::::~::~::::~:~::::::::~::::::::::)<<<<<<<<<<<<<{<<{<<<<<<<<<<<{<<<<<<<<<<~(]        ",
"       3{:~:::~::~:::~:::::::::::::~::~::::::~::::::::::1<<<<<<<<<<<<<<<<<<<{<<<<<<<<<{<<<{<<<1{]        ",
"      -32:::~::::::::::::~:::~::~::::::::~:::::~:~:~::::::1<<<<<{<<<<<<<{<<<<<<<<<<<<<<<<<<<<<2~].       ",
"      -(::::::~::~:::~::::::::::::::~:~:::~:::::::::~:~:~:~~1<<<<<<<<<<<<<<<<<{<<<<<<<<<<<<<<<<~4.       ",
"      33::~::::::~:::~::~::~:~:::~::::::::::~::::::::::::::::~2<<<<<<<<<<{<<<<<<<<<<<<<<<<<<<<<~|]       ",
"      3!::::~:::::::::::::::::::::::::~:~:::::~:~:~::::::::~:::1<<<<<<<<<<<<<<<<<{<<<<<<<<<<<<<1-.       ",
"     -3{:::::::~:::~:::~::::::~::~:~::::::::~:::::::~:~:~:::~:::~2<<{<<<<<<<<<<<<<<<{<<{<<{<<<<2<]       ",
"     -(1:~:::~:::~:::~:::~:~::::::::~::::~::::::::::::::::::::~:::)2<<<<<{<<<{<<<<<<<<<<<<<<<<<<).]      ",
"     3(:::~:::::::::::::::::::~::~::::~:::::~::~:~::::::~::::::::::~1<<<<<<<<<<<<<<<<<<<<<<{<<<<:@.      ",
"     33:~::::~:::~:::~:~:::~:::::::::::~:::::::::::~:~::::~:~:::~::::)<<<<<<<<<{<<<<<<<<<<<<<<<<1|]      ",
"     3-:):::::~:::~:::::::::::~:::~::::::~:::~:::~::::~::::::~::::::::~1<<{<<<<<<<<<<<<<<<<<<{<<13.      ",
"     3{~~::~::::::::::::~::::::::::~:~::::~::::::::::::::~:::::~::::::::)2<<<<<<<<<{<<<<<<<<<<<<2!.      ",
"    -(2~~::::::~::~::~::::~:~::~::::::::::::::~::~::::~::::::::::~:~::::::<<<{<<<<<<<<{<<<<<<<<<<2].     ",
"    3(~1::~::~::::::::~::::::::::~::::~:~:~:::::::~:::::~::~::~::::::~:::::1<<<<{<<<<<<<<<<<<<<<<~].     ",
"    3(:2:::::::~::~:::::~:~::~:~::::~:::::::~:~::::~::::::::::::~:~::::~::::~<<<<<<<<<<{<<<{<<<<<)@.     ",
"    33:2::~:::::::::~::::::::::::::::::::::::::::::::~:::~::~::::::::::::~::::2<<<<<<<<<<<<<<<{<<)|.     ",
"    33~1:::~::~::~:::::::::~::::~:~:~::~::~:::~:~:~:::~::::::~::::~:~:~::::::::1<{<<<<<<<<<<<<<<<2(]     ",
"    ({11::::::::::::~:~:::::::~:::::::::::::::::::::::::~::::::~:::::::::~:~::~:)<<<<<{<<<<<<<<<<23.     ",
"    ({1)~::~::~::~:::::::~::~::::::::~::~::~::~::::~:::::~::::::::~::::~:::::::::~<<<<<<<<{<<<<<<2!]     ",
"   3(22~::::::::::::::~::::::::~::~:::::::::::::~::::~:::::~:~::::::~:::::::~:::::~<<<<<<<<<<<<<<<<.     ",
"   (()<~~::~::~::~::~:::::~:~:::::::::~::~:~::::::::::::~:::::~:~::::::~::~:::~:::::<<<<<<<{<<{<<<1].    ",
"   3|:<~::::::::::::::~:~::::~::~:~::::::::::~:~:~::~:::::~:::::::~::::::::::::::::::2<<<<<<<<<<<<)].    ",
"   3(~<~:~::~::~::~:::::::::::::::::~::~:::::::::::::::~::::::::~:::~:::~:::~:::~:~:::2<<<<<<<<<<<)@.    ",
"   33~<~:::::::::~::::::::::::~::::::::::~:~:~:~:::~:::::~::~::::::::~::::~::~::::::::~1<<<<<{<<{2)_.    ",
"   (3)<~:::~::~::::~:~:~:~:~::::::~::~:~::::::::~:::::~:::::::~:~:~::::::::::::::::~::::2<<<<<<<<<1|.    ",
"   (-1<~:~::::::::::::::::::~::~:::::::::~::::::::~:::::~::~:::::::~::~::::~:~:~:~:::~:::1<<<<<<<<1(.    ",
"   (!2<~:::~::~:~::~:::~:::::::::::~:::~::::::~::::::~:::::::~::::::::::~::::::::::~:::~::2<<<<<<<1(]    ",
"   ({2<~::::::::::::~:::~:~::~:~:~::::::::~:::::~::~:::~:::::::~:~::~::::::::~:::::::::::::2<<<<<<13.    ",
"   ({2<):~::~:::~::::::::::::::::::~:::::::~:~:::::::::::~::~:::::::::~:~:~:::::~:::~:::~:::2<{<<<2!.    ",
"  3(22<)::::::~:::::::~::::~::::::::~:~:~::::::~:::::~:::::::~::::~::::::::~::~::~::::~::::::2<<<<2{]    ",
"  (|2<<1:::~::::::~:~::::~:::~:~::::::::::::~:::~:~:::~::~::::::~::::::::::::::::::~::::~::~::2<<<1{.    ",
"  3|)<<1:~:::~::::::::::::::::::~:~::::::::::::::::::::::::~:~::::~:~:~::~::~::~::::::::::::::~2<<21.    ",
"  (|)<<2::::::~:~:::~::~:~::::::::::~:~:~:~::~::::~:::::~:::::::~::::::::::::::::::::~::~::~:::~<<12].   ",
"  (|)<<2::~:::::::::::::::~:~:~::::::::::::~::::~:::~:~:::~:::::::~::~:~::~::~::~:~:::::::::::::~2)2].   ",
"  (|~<<<::~::~:::~:::~:::::::::::~::::::~::::~::::::::::::::~:~::::::::::::::::::::::~::~:::~::::::~.]   ",
"  (|:<<<:::::::~:::~::::~::::::::::~:~:::~::::::::~::::~:::::::~:::~:~::~:~:::~::~::::::::~:::~::~::..   ",
"  ||:<<<):::~::::::::::::::~:~:~:~:::::::::::~:~::::~:::~::~:::::~:::::::::~::::::::~::~:::::::::::~].   ",
"  (|:2<<1::~::~:~::~:~:::::::::::::~:::::~:~:::::::::::::::::~:::::::~:::::::~::~::::::::~::~::~:::~].   ",
"  ||:<<<2::::::::::::::~:~:::~:::~::::~::::::::~:~::~::~::~::::~::~::::~::~::::::::~::~:::::::::::::..   ",
"  ||:2<<2:~::::~::::::::::~::::::::~:::::~::~:::::::::::::::~::::::~::::::::~::~::::::::~::~::~::~::].   ",
"  ||:2<<2~::~::::~:~:~:~:::::::::::::::~::::::::~::~::~::~:::::~::::::~::~::::::::~::~:::::::::::::)].   ",
"  |_)1<<{~::::~:::::::::::~:~:~::::~:~::::~::::::::::::::::~:::::~::~::::::~::~::::::::~::~::~::~::2..   ",
"  ||11<2<1:~:::~:::~::::~::::::::~::::::::::~::~::~::~::~:::::~:::::::::~::::::::~::~::::::::::::::2].   ",
"  (_<)<<<<:::::::~:::~::::::~:~:::::::~:~:::::::::::::::::~:::::~::::~::::~::~::::::::~::~::~::~:::{.    ",
"  |_{)<<<<~~::~::::::::::::::::::~:~:::::::~::~::~::~::~:::::~::::~:::::::::::::~::~::::::::::::~::-.    ",
"   _!~<<{<1:::::~::~::~:~:~:::~:::::~::~:~:::::::::::::::~:::::~::::~::~:~::~::::::::~::~::~:::::::(.    ",
"   _3:<<<<<~:~:::::::::::::::::::::::::::::::~::~::~::~:::::~::::~:::::::::::::~::~::::::::::~:::~:|.    ",
"   _|:2<<<<~:::~:~::~:::::~:~:::~:~::~:::~::::::::::::::~::::::::::~::~:::~::~::::::~::~:::::::~::~@.    ",
"   44:1<<<<<::::::::::~:~:::::~:::::::::::::~::~::~::~:::::~:~::~::::::~:::::::::~:::::::~::~:::::~..    ",
"   442)<<<<<):::~:~::::::::::::::::~:~:~:::::::::::::::~::::::::::~::::::~::::~::::~::~:::::::::::{.     ",
"    @!~<<<<<2~:::::~::~::::~::~:~:::::::~::~::~::~::~:::~:::~::~:::~:::::::~::::::::::::~::~::~:::(.     ",
"    4(:<<<<<<~:::::::::~:::::::::::::~::::::::::::::::::::~::::::::::~:~:::::~::~:~:::::::::::::~:_.     ",
"    @4~1<{<<<2~:~::~:::::~:~:::::~::::::~::~::~::~::~:::::::~::~::::::::::~:::::::::~::~::~::~:::)].     ",
"    @@<~<2<<<<)::::::~::::::~::~::::::::::::::::::::::~:~::::::::~:~::~:::::~::~:::::::::::::::::-.      ",
"     @(:<<<<<<<~::~::::~::::::::::~:~:~:::~::~::~::~::::::::::~::::::::::~::::::~::~::~::~::~::~:|.      ",
"     @4:2<<{<<<2::::~:::::~::~:::::::::::::::::::::::~:::~:~::::~:::~::~:::~::::::::::::::::::::~].      ",
"     ]@{)<2<<<<<)~::::::~:::::::~:~::~:~::~:~::~::~:::~::::::::::~::::::::::~:::::~::~::~::~::~:-.       ",
"      ](:<<<<<<<<~::~:~::::~::~:::::::::::::::::::::::::~:::~:~::::~::::~:::::~:~:::::::::::::::4.       ",
"      ]])){<2{<<<2~:::::~::::::::::~:::~::::~::~::~::::::~:::::::::::~::::::::::::::~::~::~::~:<..       ",
"      @]3:<<<<<<<<<:::::::::~:::::::~::::~::::::::::~:~::::~:::~::~::::~::~:~::::~:::::::::::::|.        ",
"       ]@:2<<2{<<<<<~:::~:~::::~:~:::~::::::::~::~::::::::::::::::::::::::::::~:::::::~::~::~:1].        ",
"       @]3:<{2<<<<<<<~:::::::~::::::::::~::~:::::::~:::~::~::~::~::~:~::~:::::::~::~:::::::::~(.         ",
"        ]@~1<<<2{<<<<2~:::~:::::::~::~:::::::~::~:::::::::::::::::::::::::~::~::::::::~::~:::1..         ",
"        @]3:<<<<<<<<{2<1:::~::~::::::::~::::::::::~::~::~::~::~::~::::~::::::::~::~::::::::~:|.          ",
"         ]]11<<<<<<<<<<<1:::::::~:~::::::~::~::~:::::::::::::::::::~:::::~::~::::::::~::~:::<..          ",
"          ](~2<{2<<<<<<<<<~:~:::::~::~:::::::::::~::~::~::~::~::~::::~::::::::~::~::::::::::_.           ",
"          ]]{~<<<<<<<<<<{<<1~:::::::::::~::~::~:::::::::::::::::::::::::~::~::::::~::~::~::-..           ",
"           ]4~1<<{<<<<<<<<<<<1~::~:~::::::::::::~::~::~::~::~::~::~:~::::::::~::::::::::::2].            ",
"           ]](:2<<<{<<<<<<<<<<<1~:::~::~::~::~:::::::::::::::::::::::::~::~:::::~:::~::~:~|.             ",
"            ]]{~2<<<<<<<<<<<<<<<<2)::::::::::::~::~::~::~::~::~::~:::~::::::~:::::~::::::3..             ",
"             ]]1~<<<<<<<<<<<<<<<<<<<2)~::~::~:::::::::::::::::::::~::::::~:::::~::::~:::<].              ",
"              ]4~)<{<<<<<<<<<<<<<<<<<<<<1~~:::~::~::~::~::~::~::::::::~::::~::::::::::~)@.               ",
"              ]]|:1<<<<{<{<<<<<<<<<<<<<<<<<221)1~~~:::::::::::~::::~::::~::::~::~:::~::4.                ",
"               ]](:1<<<<<<<{<{<<<<<<<<<<<<<<<<<<2<<<<221~~::::::~:::::::::::::::::~::~|..                ",
"                ]]3:1<<<<<<<<<<{<<<<<<<<<<<<<<<<<<<<<<<<2<1)::::::~:~::~:~::~::~::::~3..                 ",
"                 ]]3:)<<<<<<<<<<<<{<<<<<{<<<<<<<<<<<<<<<<<<<21:~::::::::::::::::::::3..                  ",
"                  ]]3:~2<<<<<<<<<<<<{<<<2{<<<<<<<<<<<<<<<<<<<<1:::::~:::~::~::~:~::(..                   ",
"                   ]](:~1<<<<<<<<<<<<<<<<<<<{<<{<<{<<<<<<<<<<<<<):~:::~::::::::::~(..                    ",
"                    .]|~:)<<<<<<<<<<<{<<<<<<<<<<<<<<<<<<<<<<<{<<<~:::::::~::~:::~|..                     ",
"                     ].42:~2<<<<<<<<<<<<<<<<<<<<<<<<{<<{<<<<<<<<<<~:::::::::::~14..                      ",
"                      ]]@!::~2{<<<<<<<<<{<<<<<<<<<<<<<<<<<<<<<<<<<2::~:~::~:::{].                        ",
"                        .]()::)2<{<<<<<<<<<<{<<<<{<<<<<<<{<<<<<<<<<~::::::::)3..                         ",
"                         ..@{:::)2<<<<<<<<<<<<<<<<<<<<<<<<<<<<<<<<<)::::~::{4..                          ",
"                           ..|2:::~1<<<<<{<<<<<<<<<<<{<<<<<<<{<<<<<):~:::)(..                            ",
"                            ].](1~::~12<<<<<<<<<<<<<<<<<<{<<<<<<<<<~:::~3]..                             ",
"                              ..](2::::~)1<<<{<<<{<<<<<<<<<<<<<{<<1::)3@..                               ",
"                                ...|{~:::~:))2<<<<<<<<<<<<<<<<<<<1:2(]..                                 ",
"                                  ...@({:::::::~)12<<<{<<<<{<<1)134...                                   ",
"                                    ....]|3<~~:::::::::~~)~~1!(4....                                     ",
"                                       .....]@|((-!{{{!33|_].....                                        ",
"                                           ..................                                            ",
"                                                                                                         ",
"                                                                                                         ",
"                                                                                                         "};
