/* XPM */
static char * mouse_middle_xpm[] = {
"13 62 24 1",
" 	c None",
".	c #999ABD",
"+	c #9E9EC1",
"@	c #FF3310",
"#	c #77819E",
"$	c #FF330C",
"%	c #FF330B",
"&	c #FF3300",
"*	c #FF3308",
"=	c #FF3307",
"-	c #142753",
";	c #384365",
">	c #6F7892",
",	c #0F1C3D",
"'	c #FF3304",
")	c #FF3303",
"!	c #606C8C",
"~	c #525E81",
"{	c #6D6E91",
"]	c #898BA4",
"^	c #A3A4C3",
"/	c #AEB2CF",
"(	c #A9ADCA",
"_	c #BABEDA",
".+@@@@@@@@@..",
"##$$$$$$$$%##",
"&&&&&&&&&&&&&",
"&&&&&&&&&&&&&",
"&&********=&&",
"#-$$$$$$$$%##",
"&&&&&&&&&&&&&",
"&&&&&&&&&&&&&",
"&&********=&&",
"#-$$$$$$$$%##",
"&&&&&&&&&&&&&",
"&&&&&&&&&&&&&",
"&&$$$$$$$$%&&",
"#;$$$$$$$$%;#",
"&&&&&&&&&&&&&",
"&&&&&&&&&&&&&",
"&&********=&&",
"##********=.>",
"&&&&&&&&&&&&&",
"&&&&&&&&&&&&&",
"&&$$$$$$$$%&&",
"-#********=,#",
"&&&&&&&&&&&&&",
"&&&&&&&&&&&&&",
"##$$$$$$$$%&&",
"&&'''''''').#",
"&&&&&&&&&&&&&",
"&&&&&&&&&&&&&",
"!!@@@@@@@@@~#",
"&&'''''''')&&",
"&&&&&&&&&&&&&",
"&&'''''''')&&",
"{!@@@@@@@@@~]",
"&&'''''''')&&",
"&&&&&&&&&&&&&",
"&&&&&&&&&&&&&",
"!!@@@@@@@@@{.",
"&&&&&&&&&&&&&",
"&&&&&&&&&&&&&",
"&&'''''''')&&",
"!{@@@@@@@@@!^",
"&&&&&&&&&&&&&",
"&&&&&&&&&&&&&",
"&&'''''''')&&",
".]@@@@@@@@@./",
"&&&&&&&&&&&&&",
"&&&&&&&&&&&&&",
"&&'''''''')&&",
"!!@@@@@@@@@!(",
"&&&&&&&&&&&&&",
"&&&&&&&&&&&&&",
"&&'''''''')&&",
"!!$$$$$$$$%!^",
"&&&&&&&&&&&&&",
"&&&&&&&&&&&&&",
"&&********=&&",
"!!@@@@@@@@@!+",
"&&&&&&&&&&&&&",
"&&&&&&&&&&&&&",
"&&********=&&",
"/_@@@@@@@@@/_",
"__@@@@@@@@@__"};
