/* XPM */
static char * stock_ok_xpm[] = {
"24 24 50 1",
" 	c None",
".	c #000000",
"+	c #86A6C2",
"@	c #86A8B7",
"#	c #97B3CE",
"$	c #477198",
"%	c #779DC0",
"&	c #8FAECA",
"*	c #779DBF",
"=	c #C1D2E2",
"-	c #32516D",
";	c #A9C0D6",
">	c #628DB5",
",	c #A4BDD5",
"'	c #355674",
")	c #D7E2EC",
"!	c #A3BCD4",
"~	c #5987B2",
"{	c #5886B1",
"]	c #B2C7DB",
"^	c #8BABC9",
"/	c #7299BD",
"(	c #3C6081",
"_	c #7A9FC1",
":	c #769CBF",
"<	c #5483AF",
"[	c #1C2D3D",
"}	c #638EB6",
"|	c #ADC3D8",
"1	c #42698D",
"2	c #48739B",
"3	c #6690B7",
"4	c #7DA1C2",
"5	c #BACDDF",
"6	c #8CACC9",
"7	c #4E7DA9",
"8	c #263C51",
"9	c #5D8AB4",
"0	c #5785B0",
"a	c #5584B0",
"b	c #4F7EAA",
"c	c #426A8F",
"d	c #4C79A3",
"e	c #49749C",
"f	c #294158",
"g	c #406689",
"h	c #47729A",
"i	c #3D6284",
"j	c #33526E",
"k	c #1B2B3A",
"                        ",
"                        ",
"                        ",
"                  ..    ",
"                 .+@.   ",
"                 .#$.   ",
"                .%&.    ",
"                .#$.    ",
"               .*&.     ",
"               .=-.     ",
"              .;>.      ",
"      .       .,'.      ",
"     .).     .!~.       ",
"     .{].   .^/(.       ",
"      ._:.  .]<[.       ",
"       .%}..|}1.        ",
"       .2345678.        ",
"        .90abc.         ",
"         .bdef.         ",
"         .ghi.          ",
"          .jk.          ",
"           ..           ",
"                        ",
"                        "};
