/* XPM */
static char * stock_cancel_xpm[] = {
"24 24 66 1",
" 	c None",
".	c #000000",
"+	c #010101",
"@	c #040404",
"#	c #DD8D7D",
"$	c #D05F49",
"%	c #C16E5E",
"&	c #AD4632",
"*	c #080403",
"=	c #D3634E",
"-	c #C95641",
";	c #C64D37",
">	c #D9705B",
",	c #C24129",
"'	c #962E1C",
")	c #100401",
"!	c #C34C36",
"~	c #C03B22",
"{	c #BF3B22",
"]	c #C44D36",
"^	c #D66F5B",
"/	c #B93B24",
"(	c #922C1B",
"_	c #BE3B22",
":	c #CA6D5B",
"<	c #B83E27",
"[	c #822617",
"}	c #BD3B22",
"|	c #BC3B22",
"1	c #B23821",
"2	c #B06354",
"3	c #C2462F",
"4	c #822618",
"5	c #BB3B22",
"6	c #BA3B22",
"7	c #B73922",
"8	c #B45B4A",
"9	c #CE523A",
"0	c #992F1D",
"a	c #BA3A22",
"b	c #C84E37",
"c	c #B63922",
"d	c #CE6653",
"e	c #BD3C24",
"f	c #D17F70",
"g	c #BE3F27",
"h	c #B63D26",
"i	c #B43922",
"j	c #CB7868",
"k	c #BD3F28",
"l	c #922F1E",
"m	c #C24D36",
"n	c #B03720",
"o	c #96311E",
"p	c #B43A23",
"q	c #CC7261",
"r	c #B93A22",
"s	c #A23A26",
"t	c #CD7261",
"u	c #BD3D25",
"v	c #98311E",
"w	c #C23B22",
"x	c #AD3620",
"y	c #912F1E",
"z	c #94301E",
"A	c #A13521",
"                        ",
"                        ",
"                        ",
"                        ",
"     ..          +@     ",
"    .#$.        .%&*    ",
"    .=-;.      .>,')    ",
"    .!~{].    .^/(.     ",
"     .!__!.  .:<[.      ",
"      .!}|1..234.       ",
"       .!567890.        ",
"        .!aabc.         ",
"         .deaa1.        ",
"        .fgh765i.       ",
"       .jkl..m|}n.      ",
"      .j/o.  .!__p.     ",
"     .qr'.    .]{~s.    ",
"    .tuv.      .;wx.    ",
"    .yz.        .bA.    ",
"     ..          ..     ",
"                        ",
"                        ",
"                        ",
"                        "};
