/* XPM */
static char * findf_xpm[] = {
"16 22 6 1",
" 	c None",
".	c #000000",
"+	c #FFFFFF",
"@	c #0000FF",
"#	c #BEBEFF",
"$	c #C0C0C0",
"                ",
"                ",
"                ",
" ...........    ",
".+++++++++++.   ",
".++++++++@#+.   ",
".+++++++++@+.   ",
".++++$...$++.   ",
".+++$.+++.$+.   ",
".+++.+#+#+.+.   ",
".+++.+@@++.+.   ",
".+++.++@#+.+.   ",
".+++$.+++..+.   ",
".@#++$....+..   ",
".+@+++++++.+.   ",
".++++++++++.+.  ",
".++@#+++++++.+. ",
" ........... .+.",
"              . ",
"                ",
"                ",
"                "};
