/* XPM */
static char * ftin_xpm[] = {
"15 22 5 1",
" 	c None",
".	c #CD0000",
"+	c #FFFFFF",
"@	c #C0C0C0",
"#	c #808080",
"               ",
"               ",
"               ",
"               ",
"               ",
"    . .        ",
"    ...        ",
"    ...++++++++",
"    ...@@@@@@++",
"  .......+++++#",
"   .....@@@++#+",
"  ++...+++++#+#",
" +@@@.@@@++#+#+",
"++++++++++#+#+ ",
"##########+#+  ",
"++++++++++#+   ",
"##########+    ",
"++++++++++     ",
"               ",
"               ",
"               ",
"               "};
