/* XPM */
static char * ftout_xpm[] = {
"15 22 5 1",
" 	c None",
".	c #00008B",
"+	c #FFFFFF",
"@	c #C0C0C0",
"#	c #808080",
"               ",
"               ",
"               ",
"               ",
"               ",
"     .         ",
"    ...        ",
"   .....+++++++",
"  .......@@@@++",
"    ...+++++++#",
"   +...@@@@++#+",
"  ++...+++++#+#",
" +@@.+.@@++#+#+",
"++++++++++#+#+ ",
"##########+#+  ",
"++++++++++#+   ",
"##########+    ",
"++++++++++     ",
"               ",
"               ",
"               ",
"               "};
