/* XPM */
static char * rouge1_xpm[] = {
"21 21 207 2",
"  	c None",
". 	c #DFDFEF",
"+ 	c #DBDBED",
"@ 	c #D8D8EB",
"# 	c #D3D3E9",
"$ 	c #CDCDE6",
"% 	c #C8C8E3",
"& 	c #E1E1F0",
"* 	c #D7D7EB",
"= 	c #CECEE6",
"- 	c #C5C5E1",
"; 	c #D4B2C7",
"> 	c #E38F9D",
", 	c #C5B4D1",
"' 	c #BBBBDD",
") 	c #B3B3D9",
"! 	c #C6C6E2",
"~ 	c #B2B2D9",
"{ 	c #A5A5D2",
"] 	c #A89FCA",
"^ 	c #E89BA6",
"/ 	c #F0535A",
"( 	c #AC9AC2",
"_ 	c #ACACD6",
": 	c #A4A4D1",
"< 	c #DADAED",
"[ 	c #D2D2E8",
"} 	c #BABADC",
"| 	c #A4A4D2",
"1 	c #9B9BCD",
"2 	c #9C99CA",
"3 	c #CB9CB7",
"4 	c #FF8989",
"5 	c #D93E46",
"6 	c #9F82AA",
"7 	c #9D9DCE",
"8 	c #A2A2D0",
"9 	c #9F9FCF",
"0 	c #9090C0",
"a 	c #DFC2D1",
"b 	c #D5CBE0",
"c 	c #BBB7D9",
"d 	c #A1A1D0",
"e 	c #9A9ACD",
"f 	c #9999CC",
"g 	c #B29DC3",
"h 	c #F99DA0",
"i 	c #FF6D6D",
"j 	c #CB353B",
"k 	c #A17496",
"l 	c #9E9ECE",
"m 	c #8F8FBF",
"n 	c #7979A2",
"o 	c #EF9EA6",
"p 	c #EDA5AE",
"q 	c #DF9CAC",
"r 	c #D297AE",
"s 	c #C49AB7",
"t 	c #C19FBE",
"u 	c #E5A3B0",
"v 	c #FF8888",
"w 	c #FF5050",
"x 	c #DB2F30",
"y 	c #AF6783",
"z 	c #9393C4",
"A 	c #73739A",
"B 	c #C3C3E1",
"C 	c #DB8EA0",
"D 	c #FF5555",
"E 	c #FF7272",
"F 	c #FF8080",
"G 	c #FC8889",
"H 	c #F98F92",
"I 	c #FF8181",
"J 	c #FF5F5F",
"K 	c #FF3D3D",
"L 	c #F73131",
"M 	c #DE4D5B",
"N 	c #AD8AB3",
"O 	c #9A99CB",
"P 	c #9595C6",
"Q 	c #727298",
"R 	c #585875",
"S 	c #BCBCDE",
"T 	c #BBBADC",
"U 	c #BB6D86",
"V 	c #E62E2F",
"W 	c #FF3A3A",
"X 	c #FF4C4C",
"Y 	c #FF5252",
"Z 	c #FF4B4B",
"` 	c #FF3636",
" .	c #FD494A",
"..	c #ED6C75",
"+.	c #D8879A",
"@.	c #C291B0",
"#.	c #B18FB4",
"$.	c #8C6F90",
"%.	c #4E4E68",
"&.	c #B5B5DA",
"*.	c #A099C8",
"=.	c #BD576C",
"-.	c #E62E2E",
";.	c #F83232",
">.	c #FF3434",
",.	c #FF3535",
"'.	c #FF3838",
").	c #FF4040",
"!.	c #FF4D4D",
"~.	c #F9565A",
"{.	c #F63E42",
"].	c #CA353B",
"^.	c #44445B",
"/.	c #A9A9D4",
"(.	c #A48DBB",
"_.	c #E35563",
":.	c #FF3333",
"<.	c #FE3333",
"[.	c #F93232",
"}.	c #E92E2E",
"|.	c #C92828",
"1.	c #A32121",
"2.	c #841A1A",
"3.	c #7B3642",
"4.	c #714659",
"5.	c #3E3E52",
"6.	c #A3A3D1",
"7.	c #E17C8B",
"8.	c #FF5A5A",
"9.	c #FF3B3B",
"0.	c #FD3333",
"a.	c #B42424",
"b.	c #761A1B",
"c.	c #733644",
"d.	c #866787",
"e.	c #8880A9",
"f.	c #585874",
"g.	c #9C9CCD",
"h.	c #B796B9",
"i.	c #FB888A",
"j.	c #FF5D5D",
"k.	c #FA3232",
"l.	c #D82B2B",
"m.	c #912427",
"n.	c #815B77",
"o.	c #948BB9",
"p.	c #9694C5",
"q.	c #7D7DA7",
"r.	c #434359",
"s.	c #8D8DBC",
"t.	c #9191C2",
"u.	c #DF91A0",
"v.	c #FF6B6B",
"w.	c #E52E2E",
"x.	c #B92525",
"y.	c #BE2626",
"z.	c #D92B2B",
"A.	c #EB2F2F",
"B.	c #D32A2A",
"C.	c #963139",
"D.	c #937CA3",
"E.	c #9898CA",
"F.	c #8C8CBA",
"G.	c #5D5D7B",
"H.	c #A2809F",
"I.	c #FE5D5D",
"J.	c #6D1616",
"K.	c #6F2A33",
"L.	c #7C3A48",
"M.	c #9E292C",
"N.	c #CC2929",
"O.	c #D12A2A",
"P.	c #A1333B",
"Q.	c #987A9F",
"R.	c #8E8EBE",
"S.	c #6C6C90",
"T.	c #E53C42",
"U.	c #A5282A",
"V.	c #713A49",
"W.	c #89769D",
"X.	c #9692C1",
"Y.	c #9793C3",
"Z.	c #987CA4",
"`.	c #B0373F",
" +	c #C82828",
".+	c #A73137",
"++	c #916D8E",
"@+	c #6B6B8F",
"#+	c #923D4B",
"$+	c #5D4C64",
"%+	c #605E7C",
"&+	c #74749A",
"*+	c #8585B1",
"=+	c #9392C3",
"-+	c #9A769A",
";+	c #AD3137",
">+	c #962223",
",+	c #6B4355",
"'+	c #404055",
")+	c #3F3F53",
"!+	c #47475F",
"~+	c #53536E",
"{+	c #585876",
"]+	c #52526D",
"^+	c #613847",
"/+	c #751E20",
"(+	c #5B2E39",
"                                          ",
"              . + @ # $ %                 ",
"          & . * = - ; > , ' )             ",
"        . @ ! ~ { ] ^ / ( _ _ :           ",
"      < [ } | 1 2 3 4 5 6 7 8 9 0         ",
"    a b c d e f g h i j k f 1 l m n       ",
"    o p q r s t u v w x y f f 1 z A       ",
"  B C D E F G H I J K L M N O f P Q R     ",
"  S T U V W X Y Z K ` W  ...+.@.#.$.%.    ",
"  &.) *.=.-.;.>.,.>.>.'.).!.D ~.{.].^.    ",
"  _ /.1 (._.K ,.:.:.<.[.}.|.1.2.3.4.5.    ",
"  : 6.e O 7.8.9.:.:.0.}.a.b.c.d.e.f.5.    ",
"  1 g.O h.i.j.0.L k.[.l.m.n.o.p.q.r.5.    ",
"    s.t.u.v.w.x.y.z.A.B.C.D.E.F.G.5.      ",
"    q.H.I.y.J.K.L.M.N.O.P.Q.R.S.5.5.      ",
"      T.U.V.W.X.Y.Z.`. +.+++@+5.5.        ",
"      #+$+%+&+*+m =+-+;+>+,+5.5.          ",
"          '+)+!+~+{+]+^+/+(+5.            ",
"              5.5.5.5.5.5.                ",
"                                          ",
"                                          "};
