/* XPM */
static char *magick[] = {
/* columns rows colors chars-per-pixel */
"21 21 84 1",
"  c #d75b01",
". c #da5d04",
"X c #d85f08",
"o c #dd6006",
"O c #d8610b",
"+ c #da6613",
"@ c #df6915",
"# c #db6b1b",
"$ c #dc6f21",
"% c #de7123",
"& c #dd742a",
"* c #e56306",
"= c #e26509",
"- c #e4680d",
"; c #e96303",
": c #e96608",
"> c #ec6a0b",
", c #e36b15",
"< c #e26e1b",
"1 c #e86c14",
"2 c #ee7016",
"3 c #eb731d",
"4 c #f16b0b",
"5 c #f37214",
"6 c #f4751b",
"7 c #e37322",
"8 c #e2762a",
"9 c #e5792d",
"0 c #ec7826",
"q c #ea7929",
"w c #e17b33",
"e c #e17e38",
"r c #ea7e32",
"t c #f27a25",
"y c #f17b28",
"u c #f97c22",
"i c #e4813b",
"p c #ec8136",
"a c #eb843c",
"s c #f6802c",
"d c #f9832f",
"f c #f28131",
"g c #f58639",
"h c #f1883f",
"j c #fb8431",
"k c #fd8936",
"l c #fb8b3c",
"z c #e48441",
"x c #e38948",
"c c #ea8641",
"v c #ec8843",
"b c #e48e51",
"n c #e49155",
"m c #e6955a",
"M c #e8965a",
"N c #e9985e",
"B c #f38b43",
"V c #fa8e43",
"C c #fe9043",
"Z c #e79b64",
"A c #e8a16e",
"S c #e9a473",
"D c #eba877",
"F c #eaa879",
"G c #ecb38a",
"H c #efba95",
"J c #efbd9a",
"K c #f0c09d",
"L c #f0c3a2",
"P c #f2c7a9",
"I c #f2cbaf",
"U c #f3ccb0",
"Y c #f4d0b6",
"T c #f4d3bb",
"R c #f5d7c1",
"E c #f5d8c3",
"W c #f7ddcb",
"Q c #f7e0cf",
"! c #f8e4d6",
"~ c #f9e6d8",
"^ c #f9e8dc",
"/ c #faede4",
"( c white",
") c None",
/* pixels */
")))))))))))))))))))))",
")))))CCCCCVBvvz))))))",
"))))CCCCCVVVBvci)))))",
")))CCCCCCCVBBvaew))))",
"))CCCCCCCCVVvarw&&)))",
")CCCCCCCVllgprw8&%#))",
")CCCCCVlkjyy077$$#+))",
")BVVCVlju6621,@@+++))",
")BBVVgdu54>:*o.OOOX))",
")BBBgdt54:;=<%#O   ))",
")vaaf02>;*19xnnxe&$))",
")appq31:-qiMFGGFZnx))",
")w9%3,OoaNDHIYULGFA))",
")&8%#+o%ZGPE!~QTPJG))",
")$##+O eSKE~//~QTUL))",
"))#+OXXzFLW^//^!WE)))",
")))OX #xFLR!///^!))))",
")))).X&xFKTW^///)))))",
")))))$zmFKUW!//))))))",
")))))))))))))))))))))",
")))))))))))))))))))))"
};
