/* XPM */
static char * step_green_on_xpm[] = {
"21 21 174 2",
"  	c None",
". 	c #EFEFFF",
"+ 	c #EDEDFF",
"@ 	c #EBEBFF",
"# 	c #E9E9FF",
"$ 	c #E6E6FF",
"% 	c #E3E3FF",
"& 	c #F0F0FF",
"* 	c #E2E2FF",
"= 	c #DFDFFF",
"- 	c #DDDDFF",
"; 	c #D9D9FF",
"> 	c #D2D2FF",
", 	c #CFCFFF",
"' 	c #C7D5DC",
") 	c #A9D888",
"! 	c #BAD2C5",
"~ 	c #D6D6FF",
"{ 	c #D1D1FF",
"] 	c #E8E8FF",
"^ 	c #DCDCFF",
"/ 	c #CDCDFF",
"( 	c #CCCCFF",
"_ 	c #CACEF3",
": 	c #BCE0A6",
"< 	c #83D239",
"[ 	c #B0C3C4",
"} 	c #CECEFF",
"| 	c #D0D0FF",
"1 	c #C0C0F1",
"2 	c #D5DDEB",
"3 	c #CED1F8",
"4 	c #C4D9C9",
"5 	c #ABE373",
"6 	c #6AC315",
"7 	c #A5BBB4",
"8 	c #BFBFEE",
"9 	c #A2A2CA",
"0 	c #B7E099",
"a 	c #BCDCAE",
"b 	c #BED7C2",
"c 	c #C6D4DB",
"d 	c #C8D8D5",
"e 	c #BAE496",
"f 	c #97DC52",
"g 	c #62BE06",
"h 	c #97BB91",
"i 	c #C4C4F5",
"j 	c #9A9AC0",
"k 	c #E1E1FF",
"l 	c #95D267",
"m 	c #90DA46",
"n 	c #9FDE62",
"o 	c #ADE180",
"p 	c #AFE27F",
"q 	c #9DDE5B",
"r 	c #7FD42A",
"s 	c #66CB00",
"t 	c #7FC942",
"u 	c #B9CECD",
"v 	c #C8CDF3",
"w 	c #CCCCFE",
"x 	c #C6C6F8",
"y 	c #9898BD",
"z 	c #757592",
"A 	c #DEDEFF",
"B 	c #BEC9E0",
"C 	c #76BB3E",
"D 	c #68CD03",
"E 	c #7CD325",
"F 	c #81D52D",
"G 	c #78D21E",
"H 	c #6DCE0C",
"I 	c #6CCE0A",
"J 	c #76D11B",
"K 	c #92D556",
"L 	c #A8D68C",
"M 	c #AAD399",
"N 	c #A5CB9D",
"O 	c #9C9CC3",
"P 	c #686881",
"Q 	c #DADAFF",
"R 	c #B7C9CE",
"S 	c #78C634",
"T 	c #6ACD06",
"U 	c #67CC01",
"V 	c #63C600",
"W 	c #60C000",
"X 	c #5AB400",
"Y 	c #4F9D00",
"Z 	c #6C9E48",
"` 	c #9A9AC1",
" .	c #5B5B71",
"..	c #D4D4FF",
"+.	c #A4D28B",
"@.	c #7DD427",
"#.	c #66CC00",
"$.	c #65CA00",
"%.	c #5DBB00",
"&.	c #4A9400",
"*.	c #366A04",
"=.	c #486931",
"-.	c #7E9285",
";.	c #ACB4CD",
">.	c #8B8BAD",
",.	c #525266",
"'.	c #C8CEEF",
").	c #AADB86",
"!.	c #83D631",
"~.	c #62C400",
"{.	c #56AB00",
"].	c #40760C",
"^.	c #778C7A",
"/.	c #B4BADA",
"(.	c #CBCCFE",
"_.	c #BABAE9",
":.	c #CBCBFE",
"<.	c #BAD7B7",
"[.	c #8CD93F",
"}.	c #56AD00",
"|.	c #438600",
"1.	c #51A200",
"2.	c #50802A",
"3.	c #B1B9D3",
"4.	c #C8C8FA",
"5.	c #A7A7D1",
"6.	c #59596F",
"7.	c #BCBCEB",
"8.	c #C2C2F2",
"9.	c #BCCCD2",
"0.	c #81D137",
"a.	c #4F950C",
"b.	c #46682D",
"c.	c #718871",
"d.	c #73926A",
"e.	c #4E920E",
"f.	c #4E9B00",
"g.	c #558A2A",
"h.	c #B2BDD0",
"i.	c #CACAFD",
"j.	c #7B7B9A",
"k.	c #ABABD5",
"l.	c #90BF7A",
"m.	c #679B3E",
"n.	c #8E9F9E",
"o.	c #B3B9D8",
"p.	c #C9CAF9",
"q.	c #90AF8F",
"r.	c #4E940B",
"s.	c #4E861C",
"t.	c #ABBAC5",
"u.	c #BEBEED",
"v.	c #9090B4",
"w.	c #909CA6",
"x.	c #AAB0CE",
"y.	c #C6C6F7",
"z.	c #CACBFB",
"A.	c #87AB7D",
"B.	c #437814",
"C.	c #8CA196",
"D.	c #8F8FB2",
"E.	c #737390",
"F.	c #7F7F9F",
"G.	c #B1B1DD",
"H.	c #AFB4D6",
"I.	c #7A907D",
"J.	c #66736D",
"K.	c #55556A",
"L.	c #535368",
"M.	c #5F5F76",
"N.	c #6E6E89",
"O.	c #767693",
"P.	c #6D6D89",
"Q.	c #58586E",
"                                          ",
"              . + @ # $ %                 ",
"          & . @ $ * = = = - ;             ",
"        . @ * ; > , ' ) ! ~ ~ {           ",
"      + ] ^ > / ( _ : < [ } | , 1         ",
"    # ] 2 3 / ( ( 4 5 6 7 ( / } 8 9       ",
"    $ = 0 a b c d e f g h ( ( / i j       ",
"  k k ~ l m n o p q r s t u v w x y z     ",
"  A - { B C D E F G H I J K L M N O P     ",
"  Q ; , ( R S T T D U s V W X Y Z `  .    ",
"  ~ ../ ( ( +.@.I #.$.%.&.*.=.-.;.>.,.    ",
"  { { / ( '.).!.V W ~.{.].^./.(._.z ,.    ",
"  / / ( :.<.[.}.|.&.}.1.2.3.( 4.5.6.,.    ",
"    7.8.9.0.a.b.c.d.e.f.g.h.i._.j.,.      ",
"    5.k.l.m.n.o.( p.q.r.s.t.u.v.,.,.      ",
"      v.w.x.y.:.( ( z.A.B.C.D.,.,.        ",
"        E.F.` G.8 i 1 H.I.J.,.,.          ",
"          K.L.M.N.O.P.Q.,.,.,.            ",
"              ,.,.,.,.,.,.                ",
"                                          ",
"                                          "};
