/* XPM */
static char * step_orange_on_xpm[] = {
"21 21 219 2",
"  	c None",
". 	c #4B62AB",
"+ 	c #435794",
"@ 	c #35426A",
"# 	c #293047",
"$ 	c #20232C",
"% 	c #1B1B1C",
"& 	c #36436C",
"* 	c #465996",
"= 	c #374570",
"- 	c #20232D",
"; 	c #1A1A1A",
"> 	c #1F1F1F",
", 	c #252525",
"' 	c #282828",
") 	c #272727",
"! 	c #262626",
"~ 	c #2C2F36",
"{ 	c #404E79",
"] 	c #333F64",
"^ 	c #1A1A1B",
"/ 	c #393938",
"( 	c #8A8882",
"_ 	c #BEB7AA",
": 	c #DBCFB5",
"< 	c #D9C7A0",
"[ 	c #B7A379",
"} 	c #847455",
"| 	c #43413B",
"1 	c #383838",
"2 	c #434D6E",
"3 	c #303A5A",
"4 	c #535250",
"5 	c #B3B0A9",
"6 	c #F5F0E3",
"7 	c #FFF6E4",
"8 	c #FFF0D1",
"9 	c #FCE5B1",
"0 	c #F7D589",
"a 	c #E5BA60",
"b 	c #A2864A",
"c 	c #59544A",
"d 	c #474747",
"e 	c #4B5470",
"f 	c #202020",
"g 	c #565552",
"h 	c #D2CBBD",
"i 	c #FFF8E9",
"j 	c #FFF9ED",
"k 	c #FFF8E8",
"l 	c #FFF1D3",
"m 	c #FDE3AE",
"n 	c #F7D07C",
"o 	c #EDBA4B",
"p 	c #E6B44A",
"q 	c #B89752",
"r 	c #656157",
"s 	c #55575B",
"t 	c #4E619F",
"u 	c #1C1C1C",
"v 	c #434240",
"w 	c #B5AC98",
"x 	c #FFF2D8",
"y 	c #FFF9EC",
"z 	c #FFF9EB",
"A 	c #FFF2D7",
"B 	c #FCE2A9",
"C 	c #F5CA6D",
"D 	c #ECB849",
"E 	c #E6B54E",
"F 	c #E0B354",
"G 	c #A58D5D",
"H 	c #636363",
"I 	c #5B6481",
"J 	c #2B3248",
"K 	c #90856F",
"L 	c #F7E1B2",
"M 	c #FFEDC6",
"N 	c #FFF2D6",
"O 	c #FFF7E4",
"P 	c #FEF1D3",
"Q 	c #FBDD9D",
"R 	c #F2BF55",
"S 	c #EBB84E",
"T 	c #E6B755",
"U 	c #E1B55A",
"V 	c #D6AF5F",
"W 	c #857D6E",
"X 	c #6E717B",
"Y 	c #272A33",
"Z 	c #333333",
"` 	c #BFA979",
" .	c #FDDD99",
"..	c #FFE3A7",
"+.	c #FFE9BA",
"@.	c #FFEECA",
"#.	c #FEF0D2",
"$.	c #FDE8BC",
"%.	c #EDBA4C",
"&.	c #E9B955",
"*.	c #E4B95D",
"=.	c #E1B862",
"-.	c #DFB766",
";.	c #A39474",
">.	c #7F7F81",
",.	c #2A2B2C",
"'.	c #3D3D3D",
").	c #D7B263",
"!.	c #F8CC6B",
"~.	c #FAD175",
"{.	c #FCD583",
"].	c #FBD98F",
"^.	c #FAD990",
"/.	c #F7CD74",
"(.	c #EFBB4B",
"_.	c #EBBC58",
":.	c #E7BC60",
"<.	c #E4BC67",
"[.	c #E2BB6C",
"}.	c #E1BB6D",
"|.	c #B6A279",
"1.	c #898989",
"2.	c #353841",
"3.	c #434343",
"4.	c #CFA64C",
"5.	c #F1BB4A",
"6.	c #F3BE4B",
"7.	c #F4BE4B",
"8.	c #F1BC4C",
"9.	c #EEBD53",
"0.	c #ECBE5D",
"a.	c #E9BE65",
"b.	c #E6BF6C",
"c.	c #E3BD70",
"d.	c #E1BC70",
"e.	c #E1BD71",
"f.	c #B9A67E",
"g.	c #8F9090",
"h.	c #3F465D",
"i.	c #B59552",
"j.	c #EBBA52",
"k.	c #EDBC54",
"l.	c #EEBE57",
"m.	c #EEBF5A",
"n.	c #EDBE5E",
"o.	c #EBBF64",
"p.	c #E9C06B",
"q.	c #E7C070",
"r.	c #E4BE72",
"s.	c #E2BD72",
"t.	c #B4A689",
"u.	c #95969B",
"v.	c #48557D",
"w.	c #4B4B4B",
"x.	c #8E7D58",
"y.	c #DEB359",
"z.	c #E8BA5C",
"A.	c #E9BD61",
"B.	c #E9C06A",
"C.	c #E7C06F",
"D.	c #E6C072",
"E.	c #E4BF73",
"F.	c #E2BE73",
"G.	c #DBB975",
"H.	c #B0A99C",
"I.	c #9095A7",
"J.	c #4C5F9D",
"K.	c #50535B",
"L.	c #63615C",
"M.	c #AA9262",
"N.	c #E3BA63",
"O.	c #E5BC68",
"P.	c #E5BE6D",
"Q.	c #E5BE71",
"R.	c #E5BF73",
"S.	c #E3BE73",
"T.	c #C5B28C",
"U.	c #B3B3B3",
"V.	c #7381AD",
"W.	c #515F8A",
"X.	c #626262",
"Y.	c #7A756D",
"Z.	c #BFA46B",
"`.	c #E2BC6E",
" +	c #E2BD71",
".+	c #CEB685",
"++	c #BEBBB5",
"@+	c #A6ABBA",
"#+	c #606780",
"$+	c #777777",
"%+	c #8D8980",
"&+	c #B7A37A",
"*+	c #DAB973",
"=+	c #DCBA76",
"-+	c #CAB891",
";+	c #C4C1BA",
">+	c #B2B6C1",
",+	c #5A6EAE",
"'+	c #657096",
")+	c #88898E",
"!+	c #979797",
"~+	c #ABA496",
"{+	c #BCAD90",
"]+	c #C6B38B",
"^+	c #C8B58E",
"/+	c #C6B79B",
"(+	c #C4BEB1",
"_+	c #C7C7C7",
":+	c #AFB4C3",
"<+	c #5A6FAE",
"[+	c #5669A7",
"}+	c #7D86A3",
"|+	c #9DA0AA",
"1+	c #B0B1B3",
"2+	c #B8B8B8",
"3+	c #BCBCBD",
"4+	c #BABCC0",
"5+	c #A8AEC0",
"6+	c #7C8AB7",
". . . . . . . . . . . . . . . . . . . . . ",
". . . . . . . . . . . . . . . . . . . . . ",
". . . . . . + @ # $ % $ # & * . . . . . . ",
". . . . . = - ; ; > , ' ) ! ~ { . . . . . ",
". . . . ] ^ ; / ( _ : < [ } | 1 2 . . . . ",
". . . 3 ^ > 4 5 6 7 8 9 0 a b c d e . . . ",
". . + - f g h i j k l m n o p q r s t . . ",
". . @ u v w x 7 y z A B C D E F G H I . . ",
". . J ' K L M N O i P Q R S T U V W X . . ",
". . Y Z `  ...+.@.#.$.n %.&.*.=.-.;.>.. . ",
". . ,.'.).!.~.{.].^./.(._.:.<.[.}.|.1.. . ",
". . 2.3.4.5.6.7.6.8.9.0.a.b.c.d.e.f.g.. . ",
". . h.d i.j.k.l.m.n.o.p.q.r.s.s.s.t.u.. . ",
". . v.w.x.y.z.A.a.B.C.D.E.F.s.s.G.H.I.. . ",
". . J.K.L.M.N.O.P.Q.R.S.s.s.s.s.T.U.V.. . ",
". . . W.X.Y.Z.`. +s.s.s.s.s.s..+++@+. . . ",
". . . . #+$+%+&+*+s.s.s.s.=+-+;+>+,+. . . ",
". . . . . '+)+!+~+{+]+^+/+(+_+:+<+. . . . ",
". . . . . . [+}+|+1+2+3+4+5+6+. . . . . . ",
". . . . . . . . . . . . . . . . . . . . . ",
". . . . . . . . . . . . . . . . . . . . . "};
