/* XPM */
static char *magick[] = {
/* columns rows colors chars-per-pixel */
"21 21 152 2",
"   c #1b1b1b",
".  c #242424",
"X  c #20232c",
"o  c #282929",
"O  c #272a33",
"+  c #2c2f36",
"@  c gray20",
"#  c #3a3939",
"$  c #293047",
"%  c #2b3248",
"&  c #353841",
"*  c #303a5a",
"=  c #333f64",
"-  c #3f465d",
";  c #35426a",
":  c #374570",
">  c #433e38",
",  c #43413e",
"<  c #454545",
"1  c #4b4b4b",
"2  c #594f44",
"3  c #53514f",
"4  c #565350",
"5  c #52555b",
"6  c #434d6e",
"7  c #404e79",
"8  c #4b5470",
"9  c #48557d",
"0  c #655c52",
"q  c #635e59",
"w  c #626262",
"e  c #6e717b",
"r  c #7a7168",
"t  c #777777",
"y  c #435794",
"u  c #465996",
"i  c #4c5f9d",
"p  c #515f8a",
"a  c #4e619f",
"s  c #5b6481",
"d  c #4b62ab",
"f  c #5669a7",
"g  c #5a6eae",
"h  c #606780",
"j  c #657096",
"k  c #7f7f81",
"l  c #7381ad",
"z  c #7d86a3",
"x  c #7c8ab7",
"c  c #a26929",
"v  c #b5752b",
"b  c #b8762a",
"n  c #846542",
"m  c #8e6a42",
"M  c #857665",
"N  c #907a62",
"B  c #a57641",
"V  c #aa7b45",
"C  c #cf7a18",
"Z  c #8b857d",
"A  c #bf884b",
"S  c #bf925d",
"D  c #a38461",
"F  c #b68e61",
"G  c #b99267",
"H  c #b49778",
"J  c #bc9f7f",
"K  c #de8824",
"L  c #d68a33",
"P  c #df8f37",
"I  c #e6800c",
"U  c #ed830b",
"Y  c #e68413",
"T  c #e0851b",
"R  c #e6881b",
"E  c #eb8613",
"W  c #ee8916",
"Q  c #eb8a1b",
"!  c #f2860a",
"~  c #f28d19",
"^  c #e28a26",
"/  c #e58e2b",
"(  c #eb8d24",
")  c #e98f2a",
"_  c #e18e30",
"`  c #e7902b",
"'  c #eb922f",
"]  c #e49234",
"[  c #e3953d",
"{  c #e7983f",
"}  c #e99331",
"|  c #e99638",
" . c #f59e38",
".. c #f89c33",
"X. c #da964c",
"o. c #dc994f",
"O. c #ce9e69",
"+. c #c59f75",
"@. c #c8a177",
"#. c #caa57b",
"$. c #e19643",
"%. c #e29846",
"&. c #f7a241",
"*. c #f7a74c",
"=. c #f7a84d",
"-. c #faa441",
";. c #fcad52",
":. c #f7b15e",
">. c #fab565",
",. c #fdbc71",
"<. c #fbbe79",
"1. c #88898b",
"2. c #8f9090",
"3. c #979797",
"4. c #95969b",
"5. c #9095a7",
"6. c #9da0aa",
"7. c #ab9d8e",
"8. c #b5a38d",
"9. c #b0a395",
"0. c #a6abba",
"q. c #b3aca5",
"w. c #beb1a3",
"e. c #b1b2b3",
"r. c #beb8b1",
"t. c #bababa",
"y. c #a8aec0",
"u. c #afb4c3",
"i. c #b2b6c1",
"p. c #babcc0",
"a. c #c6a98a",
"s. c #d9b58a",
"d. c #c4b7a9",
"f. c #c4bdb6",
"g. c #dbc3a6",
"h. c #d2c5b5",
"j. c #ffc684",
"k. c #fcc788",
"l. c #fdc98e",
"z. c #f7cb98",
"x. c #fccc93",
"c. c #ffd29e",
"v. c #fdd2a2",
"b. c #ffdbb2",
"n. c #ffe1be",
"m. c gray78",
"M. c #fee3c3",
"N. c #ffe6c8",
"B. c #f5e9dc",
"V. c #ffedd9",
"C. c #fff0df",
"Z. c #fff2e3",
/* pixels */
"d d d d d d d d d d d d d d d d d d d d d ",
"d d d d d d d d d d d d d d d d d d d d d ",
"d d d d d d y = $ X   X % ; u d d d d d d ",
"d d d d d : X       . o o o + : d d d d d ",
"d d d d =     # Z w.g.s.F n > # 6 d d d d ",
"d d d *     3 q.B.V.n.x.>./ c 2 1 8 d d d ",
"d d y X . 4 h.Z.Z.Z.M.l.*.U C b 0 5 i d d ",
"d d ;   > 8.N.V.Z.Z.N.k. .U U E B w s d d ",
"d d % o N z.b.M.V.Z.M.<.~ E R K L M e d d ",
"d d O @ S ,.j.c.b.n.v.=.U Q / / P D k d d ",
"d d o # L ..-.;.>.>.&.U Q ` ] [ [ F 1.d d ",
"d d # < C ! ! ! ! U W ( } [ [ X.$.G 2.d d ",
"d d ; < v W Q Q ( ( } | $.%.%.%.%.H 4.d d ",
"d d 9 1 m K ) ) ' | { %.%.%.%.%.X.9.5.d d ",
"d d a 5 q V ` ] { $.%.%.%.%.%.%.+.e.g d d ",
"d d d p w r A { %.%.%.%.%.%.%.O.f.0.g d d ",
"d d d d e t Z F X.$.$.$.%.o.#.f.i.g d d d ",
"d d d d d j 1.3.7.8.+.@.a.d.m.i.g d d d d ",
"d d d d d d f z 6.e.e.t.p.y.x d d d d d d ",
"d d d d d d d d d d d d d d d d d d d d d ",
"d d d d d d d d d d d d d d d d d d d d d "
};
