/* XPM */
static char *magick[] = {
/* columns rows colors chars-per-pixel */
"21 21 123 2",
"   c #1a1a1a",
".  c #232323",
"X  c #292929",
"o  c #343434",
"O  c #3c3d3b",
"+  c #434343",
"@  c #4b4b4b",
"#  c #535353",
"$  c #595959",
"%  c #546643",
"&  c #5f615c",
"*  c #60734c",
"=  c #647455",
"-  c #6a7d56",
";  c #636362",
":  c #6d6d6d",
">  c #6e7369",
",  c #70736e",
"<  c #747f68",
"1  c #767676",
"2  c #7c7f79",
"3  c #6f9b44",
"4  c #73974e",
"5  c #738265",
"6  c #768865",
"7  c #79ad43",
"8  c #7dad4a",
"9  c #7ba156",
"0  c #7ea359",
"q  c #7ec13b",
"w  c #80847c",
"e  c #829471",
"r  c #82bf44",
"t  c #85be4b",
"y  c #8ab55f",
"u  c #86a467",
"i  c #86a06a",
"p  c #90a977",
"a  c #91ba67",
"s  c #91b869",
"d  c #96b576",
"f  c #81c43d",
"g  c #83ca3b",
"h  c #83c243",
"j  c #86c249",
"k  c #85c841",
"l  c #88c24b",
"z  c #8acd47",
"x  c #8ccc4b",
"c  c #8bc253",
"v  c #8fc459",
"b  c #91c45c",
"n  c #91cc55",
"m  c #95cf5a",
"M  c #92d053",
"N  c #97d35b",
"B  c #9ad55e",
"V  c #95c563",
"C  c #98c767",
"Z  c #99c56b",
"A  c #9ac86a",
"S  c #9dc276",
"D  c #9ed666",
"F  c #a0c679",
"G  c #a0d668",
"H  c #a2d96b",
"J  c #a7d973",
"K  c #a8dc74",
"L  c #acdd7c",
"P  c #afe07e",
"I  c gray51",
"U  c #8b8b8b",
"Y  c #8d9a80",
"T  c #929292",
"R  c #989a96",
"E  c #9d9d9d",
"W  c #9ead8d",
"Q  c #9eba82",
"!  c #abbb9b",
"~  c gray65",
"^  c gray68",
"/  c #abb2a5",
"(  c gray70",
")  c #b5b8b3",
"_  c #bbbbbb",
"`  c #a3c283",
"'  c #a8c687",
"]  c #aac58e",
"[  c #aac88d",
"{  c #b3df86",
"}  c #b4c3a4",
"|  c #b9c8aa",
" . c #bec3b9",
".. c #b1e082",
"X. c #b8e58c",
"o. c #bde494",
"O. c #bfe698",
"+. c #cad6bd",
"@. c #c0e699",
"#. c #c1e89a",
"$. c #cae5af",
"%. c #c8eaa5",
"&. c #ccedac",
"*. c #d1eeb3",
"=. c #d3efb8",
"-. c #d4f0b9",
";. c #d8f1be",
":. c #c4c4c4",
">. c #c7cac4",
",. c #c8c8c8",
"<. c #d1ddc4",
"1. c #d7e0cf",
"2. c #d6ebc1",
"3. c #dbf2c4",
"4. c #dff4ca",
"5. c #e1f4cc",
"6. c #e3f5d1",
"7. c #e8f7d9",
"8. c #e9f8db",
"9. c #edf9e2",
"0. c #f3fbeb",
"q. c white",
"w. c None",
/* pixels */
"w.w.w.w.w.                  . w.w.w.w.w.w.",
"w.w.w.          . . X X X X X X o w.w.w.w.",
"w.w.        O 5 / +.2.$.[ i % O o O w.w.w.",
"w.      . 1 _ 0.9.8.5.=.@.L B 3 % O + w.w.",
"w.    X w 1.0.0.0.9.6.=.@.J x q 7 * @ # w.",
"    . , <.9.0.0.0.0.6.=.O.H f h r 8 = $ w.",
"    O ! 5.8.9.0.0.9.5.=.o.D q h j t 9 ; ; ",
"  X 5 *.;.5.8.9.9.6.3.%...n f h j l y 5 : ",
". o p #.%.-.3.5.3.&.O...G f h j c t V i 1 ",
"X O Z L X.#.%.%.#...H N z f j l c b V a 6 ",
"X + n N H P L P K B x f f j j c b C Z Z T ",
"X + f g g g n N x k g f f l t b C C C Z T ",
"o + 8 h k k f g f f f h r t b C C A A S E ",
"+ @ 4 j j x j j j j t l c b C Z A A A Q ~ ",
"@ @ - j l c c c c v v b C C C C A A Z ! ^ ",
"w.# & 0 c b b b b V C C C A A A A C ` ) w.",
"w.$ ; 5 y V V C C A A A A A A A A F } _ w.",
"w.w.; : e a V Z C A A A A A A A F } _ w.w.",
"w.w.w.1 I e d C A A A A A A A [ | ,.w.w.w.",
"w.w.w.w.U T R W Q S S A F [ | >.,.w.w.w.w.",
"w.w.w.w.w.w.E ~ ^ ( _ _ :.:.,.w.w.w.w.w.w."
};
