/* XPM */
static char *magick[] = {
/* columns rows colors chars-per-pixel */
"21 21 166 2",
"   c #295300",
".  c #2a5500",
"X  c #2e540d",
"o  c #2f540e",
"O  c #305413",
"+  c #33551a",
"@  c #36591c",
"#  c #3a582b",
"$  c #326400",
"%  c #37660d",
"&  c #356b00",
"*  c #3e6d16",
"=  c #387100",
"-  c #3b7402",
";  c #3d7b00",
":  c #3e7d00",
">  c #3f6623",
",  c #407c07",
"<  c #417c0a",
"1  c #417711",
"2  c #537b3f",
"3  c #465b48",
"4  c #4d5e5a",
"5  c #4e5e5c",
"6  c #505f63",
"7  c #4f7244",
"8  c #53744a",
"9  c #587f4a",
"0  c #5a7c54",
"q  c #546465",
"w  c #586b68",
"e  c #5b637f",
"r  c #5a6871",
"t  c #5f697f",
"y  c #5b7661",
"u  c #627a6e",
"i  c #5f6981",
"p  c #61658e",
"a  c #62658f",
"s  c #636e83",
"d  c #62688b",
"f  c #64698f",
"g  c #666c8f",
"h  c #646593",
"j  c #646791",
"k  c #646792",
"l  c #646594",
"z  c #656697",
"x  c #666797",
"c  c #666699",
"v  c #656992",
"b  c #676d92",
"n  c #676898",
"m  c #686998",
"M  c #696c98",
"N  c #6b7988",
"B  c #6e788e",
"V  c #6c7196",
"C  c #6f7695",
"Z  c #757b99",
"A  c #468c00",
"S  c #478e00",
"D  c #498612",
"F  c #489002",
"G  c #499200",
"H  c #4b9600",
"J  c #4c9405",
"K  c #4c910a",
"L  c #4d8223",
"P  c #59893e",
"I  c #579820",
"U  c #50a000",
"Y  c #50a100",
"T  c #51a200",
"R  c #52a400",
"E  c #53a700",
"W  c #54a800",
"Q  c #55a900",
"!  c #56ab00",
"~  c #56ad00",
"^  c #57ad01",
"/  c #58a017",
"(  c #58b100",
")  c #59b200",
"_  c #59b300",
"`  c #5ab500",
"'  c #5bb700",
"]  c #5dba00",
"[  c #5dbb00",
"{  c #5ebc00",
"}  c #5ebd00",
"|  c #64b51a",
" . c #64a239",
".. c #6ab729",
"X. c #5e8850",
"o. c #628360",
"O. c #6a896d",
"+. c #6a8572",
"@. c #7baf5a",
"#. c #60c000",
"$. c #61c200",
"%. c #62c400",
"&. c #63c600",
"*. c #64c800",
"=. c #65c900",
"-. c #65ca00",
";. c #66cb00",
":. c #66cc00",
">. c #67cc01",
",. c #68cd03",
"<. c #68cd04",
"1. c #6bce09",
"2. c #6dce0c",
"3. c #6ecf0d",
"4. c #6fcf0f",
"5. c #70cf10",
"6. c #7bcc2f",
"7. c #7ad322",
"8. c #7cd324",
"9. c #7ed428",
"0. c #718189",
"q. c #748090",
"w. c #798495",
"e. c #7d8a95",
"r. c #8aaf7b",
"t. c #96bf7b",
"y. c #80d52b",
"u. c #82d52e",
"i. c #83d630",
"p. c #83d631",
"a. c #85d435",
"s. c #85d634",
"d. c #88d739",
"f. c #89d83a",
"g. c #8bd83d",
"h. c #8ed942",
"j. c #8fd946",
"k. c #8fda45",
"l. c #91da48",
"z. c #94db4c",
"x. c #9add57",
"c. c #9bde58",
"v. c #93c46f",
"b. c #9acf6d",
"n. c #a5d876",
"m. c #a1e063",
"M. c #a2e064",
"N. c #a6e16a",
"B. c #a7e26d",
"V. c #a9e26f",
"C. c #ace277",
"Z. c #ade476",
"A. c #b2e57f",
"S. c #819987",
"D. c #849e86",
"F. c #849c89",
"G. c #8ca68b",
"H. c #8eaf82",
"J. c #95b588",
"K. c #9fbf8f",
"L. c #a1c48c",
"P. c #a3c88b",
"I. c #a7cc8c",
"U. c #aed590",
"Y. c #b3dc8e",
"T. c None",
/* pixels */
"T.T.T.T.T.T.T.T.T.T.T.T.r.+.T.T.T.T.T.T.T.",
"T.T.T.T.T.T.T.T.T.T.T.w.c.o.T.T.T.T.T.T.T.",
"T.T.T.T.T.T.T.T.T.T.M I.u.0 T.T.T.T.T.T.T.",
"T.T.T.T.T.T.T.T.T.n K.Z.,.2 T.T.T.T.T.T.T.",
"T.n T.T.T.T.T.T.T.e.A.z.} L T.T.T.T.T.T.T.",
"T.t.L.J.F.q.V T.Z U.m.7.} K f T.T.T.T.T.T.",
"T.O.a.x.M.N.n.P.Y.V.a.4.%.^ u T.T.T.T.T.T.",
"T.T.X.] 4.y.f.l.k.y.4.>.>.=...N T.T.T.T.T.",
"T.T.z P ^ $.>.1.1.,.>.=.,.4.7.k.v.H.S.0.b ",
"T.T.T.v I ' %.=.>.>.>.>.>.<.5.8.d.h.p.=./ ",
"T.T.T.T.g | <.>.>.>.>.>.>.=.%.] Q S & @ q ",
"T.T.T.T.T.@.9.1.>.>.>.>.=.%.Q : . O 3 k T.",
"T.T.T.T.m b.g.4.>.>.>.>.=._ ; X 6 p T.T.T.",
"T.T.T.T.G.B.p.>.%.=.=.=.=.E % e T.T.T.T.T.",
"T.T.T.C C.l.%.T H T ' %.=.E * z T.T.T.T.T.",
"T.T.T.D.h.Q =   + > S _ $.Q 1 k T.T.T.T.T.",
"T.T.B 6.G X # 5 z T.7 J _ Q < k T.T.T.T.T.",
"T.T. .D 4 p T.T.T.T.T.y T E , d T.T.T.T.T.",
"T.T.s k T.T.T.T.T.T.T.T.9 F = t T.T.T.T.T.",
"T.T.T.T.T.T.T.T.T.T.T.T.T.8 $ r T.T.T.T.T.",
"T.T.T.T.T.T.T.T.T.T.T.T.T.T.w i T.T.T.T.T."
};
