/* XPM */
static char * step_red_click_xpm[] = {
"21 21 175 2",
"  	c None",
". 	c #3E3E52",
"+ 	c #424258",
"@ 	c #52526D",
"# 	c #585876",
"$ 	c #53536E",
"% 	c #47475F",
"& 	c #3F3F53",
"* 	c #404055",
"= 	c #565672",
"- 	c #78789F",
"; 	c #8989B6",
"> 	c #9090C0",
", 	c #9B6E8F",
"' 	c #9785AF",
") 	c #8585B1",
"! 	c #74749A",
"~ 	c #60607F",
"{ 	c #565673",
"] 	c #6B6B8F",
"^ 	c #8B8BB9",
"/ 	c #9696C8",
"( 	c #9999CC",
"_ 	c #9181AB",
": 	c #A33138",
"< 	c #A984AD",
"[ 	c #9999CB",
"} 	c #9494C6",
"| 	c #8888B5",
"1 	c #6C6C90",
"2 	c #8E8EBE",
"3 	c #9898CA",
"4 	c #9897C9",
"5 	c #753C4B",
"6 	c #BD2626",
"7 	c #B77B9E",
"8 	c #8C8CBB",
"9 	c #8080AB",
"0 	c #7D7DA7",
"a 	c #5D5D7B",
"b 	c #8A536A",
"c 	c #855D79",
"d 	c #886E90",
"e 	c #9081AB",
"f 	c #815B77",
"g 	c #791818",
"h 	c #D42A2A",
"i 	c #C16985",
"j 	c #9191C2",
"k 	c #8D8DBC",
"l 	c #434359",
"m 	c #A85E77",
"n 	c #A42121",
"o 	c #8D1C1C",
"p 	c #7C1E20",
"q 	c #851A1A",
"r 	c #B42424",
"s 	c #E02D2D",
"t 	c #C6434E",
"u 	c #9D82AB",
"v 	c #9998CB",
"w 	c #9C9CCD",
"x 	c #9B9BCD",
"y 	c #585875",
"z 	c #8C8CBA",
"A 	c #C05B71",
"B 	c #DA2C2C",
"C 	c #D92B2B",
"D 	c #DD2C2C",
"E 	c #EB2F2F",
"F 	c #F13030",
"G 	c #DB2C2C",
"H 	c #B92B2E",
"I 	c #AA4351",
"J 	c #B5576D",
"K 	c #B5779A",
"L 	c #9A9ACD",
"M 	c #A3A3D1",
"N 	c #A4A4D1",
"O 	c #68688B",
"P 	c #9393C4",
"Q 	c #9C92C2",
"R 	c #BA4350",
"S 	c #E92E2E",
"T 	c #FC3232",
"U 	c #FF3434",
"V 	c #FF3D3D",
"W 	c #FF5353",
"X 	c #FF6B6B",
"Y 	c #FF7B7B",
"Z 	c #EA848E",
"` 	c #BB8CAE",
" .	c #A9A9D4",
"..	c #ACACD6",
"+.	c #44445B",
"@.	c #9797C9",
"#.	c #954353",
"$.	c #D52B2B",
"%.	c #FF3535",
"&.	c #FF5555",
"*.	c #FF8585",
"=.	c #E6A2AF",
"-.	c #BCA0C1",
";.	c #9D99CA",
">.	c #9E9ECF",
",.	c #B3B3D9",
"'.	c #B5B5DA",
").	c #4E4E68",
"!.	c #75759C",
"~.	c #917499",
"{.	c #AF2323",
"].	c #FF4646",
"^.	c #FF6666",
"/.	c #FF5858",
"(.	c #F38A90",
"_.	c #A499C6",
":.	c #BBBBDD",
"<.	c #BCBCDE",
"[.	c #727298",
"}.	c #9595C6",
"|.	c #9A92C2",
"1.	c #BC4552",
"2.	c #FF5C5C",
"3.	c #EF98A0",
"4.	c #DD94A5",
"5.	c #F27379",
"6.	c #FF7171",
"7.	c #F18289",
"8.	c #A495C2",
"9.	c #ADADD6",
"0.	c #C3C3E1",
"a.	c #73739A",
"b.	c #B27FA4",
"c.	c #DD6E7F",
"d.	c #BF98B8",
"e.	c #9D99CB",
"f.	c #A991BC",
"g.	c #F0757C",
"h.	c #F98E90",
"i.	c #A894BF",
"j.	c #BFBFDF",
"k.	c #CDCDE6",
"l.	c #7979A2",
"m.	c #8F8FBF",
"n.	c #A19BC9",
"o.	c #AE8FB7",
"p.	c #EC959F",
"q.	c #AF96BE",
"r.	c #A1A1D0",
"s.	c #B9B9DC",
"t.	c #D1D1E8",
"u.	c #D4D4E9",
"v.	c #9F9FCF",
"w.	c #A2A2D0",
"x.	c #9D9DCE",
"y.	c #A4A4D2",
"z.	c #BABADC",
"A.	c #D2D2E8",
"B.	c #DADAED",
"C.	c #A7A7D3",
"D.	c #A0A0D0",
"E.	c #9E9ECE",
"F.	c #A5A5D2",
"G.	c #B2B2D9",
"H.	c #C6C6E2",
"I.	c #D8D8EB",
"J.	c #DFDFEF",
"K.	c #C0C0DF",
"L.	c #C5C5E2",
"M.	c #CECEE6",
"N.	c #D7D7EB",
"O.	c #E1E1F0",
"P.	c #C8C8E3",
"Q.	c #D3D3E9",
"R.	c #DBDBED",
"                                          ",
"              . . . . . .                 ",
"          . . . + @ # $ % & *             ",
"        . . = - ; > , ' ) ! ~ {           ",
"      . . ] ^ / ( _ : < [ } | ! 1         ",
"    . . 1 2 3 ( 4 5 6 7 ( [ / 8 9 0       ",
"    . a b c d e f g h i ( ( [ / j k       ",
"  . l 0 m n o p q r s t u v ( [ ( w x     ",
"  . y z ( A B C D E F G H I J K L M N     ",
"  . O P ( Q R S T U V W X Y Z ` x  ...    ",
"  +.! @.( ( #.$.%.V &.*.=.-.;.( >.,.'.    ",
"  ).!.@.( ~.{.].^./.^.(._.( ( ( N :.<.    ",
"  y [.}.|.1.2.3.4.5.6.7.8.( ( x 9.0.0.    ",
"    a.P b.c.d.e.( f.g.h.i.( L N j.k.      ",
"    l.m.n.x ( ( ( ( o.p.q.L r.s.t.u.      ",
"      > v.w.x.( ( ( ( ( x y.z.A.B.        ",
"        N ....C.D.E.v.F.G.H.I.J.          ",
"          ,.:.K.j.K.L.M.N.J.O.            ",
"              P.k.Q.I.R.J.                ",
"                                          ",
"                                          "};
