/* XPM */
static char * step_red_click_xpm[] = {
"21 21 151 2",
"  	c None",
". 	c #525266",
"+ 	c #58586E",
"@ 	c #6D6D89",
"# 	c #767693",
"$ 	c #6E6E89",
"% 	c #5F5F76",
"& 	c #535368",
"* 	c #55556A",
"= 	c #72728E",
"- 	c #9F9FC7",
"; 	c #B6B6E4",
"> 	c #C0C0F1",
", 	c #C4C4F5",
"' 	c #BFBFEE",
") 	c #B1B1DD",
"! 	c #9A9AC1",
"~ 	c #7F7F9F",
"{ 	c #737390",
"] 	c #8F8FB2",
"^ 	c #B9B9E7",
"/ 	c #C8C8FA",
"( 	c #CCCCFF",
"_ 	c #C4A6CE",
": 	c #CDACD5",
"< 	c #CBCAFD",
"[ 	c #C6C6F7",
"} 	c #B5B5E2",
"| 	c #9090B4",
"1 	c #BEBEED",
"2 	c #CACAFD",
"3 	c #C8C4F5",
"4 	c #A35261",
"5 	c #D285A1",
"6 	c #CBCBFE",
"7 	c #C8C8F9",
"8 	c #BBBBE9",
"9 	c #ABABD5",
"0 	c #A7A7D1",
"a 	c #7B7B9A",
"b 	c #BABAE9",
"c 	c #C6BBEA",
"d 	c #C9C4F4",
"e 	c #A382A1",
"f 	c #991F1F",
"g 	c #DB7992",
"h 	c #C2C2F2",
"i 	c #BCBCEB",
"j 	c #59596F",
"k 	c #AB6A80",
"l 	c #935566",
"m 	c #9B748F",
"n 	c #9D7893",
"o 	c #783038",
"p 	c #B12323",
"q 	c #D85F70",
"r 	c #CCC1F1",
"s 	c #CDCDFF",
"t 	c #757592",
"u 	c #CB93B5",
"v 	c #B72D30",
"w 	c #A32121",
"x 	c #981E1E",
"y 	c #AD2323",
"z 	c #D32A2A",
"A 	c #D33437",
"B 	c #BC6A7F",
"C 	c #BF9BC0",
"D 	c #C8A9D1",
"E 	c #CEBCEA",
"F 	c #D1D1FF",
"G 	c #8B8BAD",
"H 	c #CD8DAC",
"I 	c #D13538",
"J 	c #E02D2D",
"K 	c #EC2F2F",
"L 	c #F83232",
"M 	c #FE3333",
"N 	c #FD3333",
"O 	c #FF3636",
"P 	c #F36470",
"Q 	c #DBA7CB",
"R 	c #D4D4FF",
"S 	c #D6D6FF",
"T 	c #5B5B71",
"U 	c #C9C9FC",
"V 	c #C9C0EF",
"W 	c #B7454F",
"X 	c #E92F2F",
"Y 	c #FF4949",
"Z 	c #FF7070",
"` 	c #FB969A",
" .	c #EDAFC1",
"..	c #DCBBDE",
"+.	c #D1C4F2",
"@.	c #CFCFFF",
"#.	c #D9D9FF",
"$.	c #DADAFF",
"%.	c #686881",
"&.	c #9C9CC3",
"*.	c #B693B6",
"=.	c #C22E31",
"-.	c #FF4747",
";.	c #FF5959",
">.	c #FF6161",
",.	c #FD8A8C",
"'.	c #E0BAD9",
").	c #CECAFB",
"!.	c #DDDDFF",
"~.	c #DEDEFF",
"{.	c #9898BD",
"].	c #C6C6F8",
"^.	c #C9BAE7",
"/.	c #CE4F5B",
"(.	c #FF5F5F",
"_.	c #F49BA5",
":.	c #F48D98",
"<.	c #FF7575",
"[.	c #FC8C8F",
"}.	c #D6BDE5",
"|.	c #E1E1FF",
"1.	c #9A9AC0",
"2.	c #D8A0C4",
"3.	c #EC8598",
"4.	c #DCBADD",
"5.	c #CFC9F9",
"6.	c #D0C6F6",
"7.	c #EB94A9",
"8.	c #FF9191",
"9.	c #DCB4D6",
"0.	c #DFDFFF",
"a.	c #E6E6FF",
"b.	c #A2A2CA",
"c.	c #CECEFF",
"d.	c #CFC8F8",
"e.	c #CDCAFC",
"f.	c #D0C4F3",
"g.	c #EAA5B9",
"h.	c #DCB8DB",
"i.	c #D0D0FF",
"j.	c #DCDCFF",
"k.	c #E8E8FF",
"l.	c #E9E9FF",
"m.	c #D2D2FF",
"n.	c #EDEDFF",
"o.	c #D3D3FF",
"p.	c #E2E2FF",
"q.	c #EBEBFF",
"r.	c #EFEFFF",
"s.	c #F0F0FF",
"t.	c #E3E3FF",
"                                          ",
"              . . . . . .                 ",
"          . . . + @ # $ % & *             ",
"        . . = - ; > , ' ) ! ~ {           ",
"      . . ] ^ / ( ( _ : < [ } ! |         ",
"    . . | 1 2 ( ( 3 4 5 ( 6 7 8 9 0       ",
"    . a b c d ( ( e f g ( ( 6 7 h i       ",
"  . j 0 / k l m n o p q r ( ( 6 ( s s     ",
"  . t b ( u v w x y z A B C D E s F F     ",
"  . G , ( ( H I J K L M N O P Q s R S     ",
"  T ! U ( ( V W X O Y Z `  ...+.@.#.$.    ",
"  %.&.U ( ( *.=.-.;.>.,.'.).( ( F !.~.    ",
"  t {.].( ^./.(._.:.<.[.}.( ( s S |.|.    ",
"    1., s 2.3.4.5.6.7.8.9.( s F 0.a.      ",
"    b.' c.d.e.( ( ( f.g.h.s i.j.k.l.      ",
"      > @.i.c.( ( ( ( ( s m.j.k.n.        ",
"        F S S o.i.c.@.m.#.p.q.r.          ",
"          #.!.0.0.0.p.a.q.r.s.            ",
"              t.a.l.q.n.r.                ",
"                                          ",
"                                          "};
