/* XPM */
static char * step_orange_on_xpm[] = {
"21 21 182 2",
"  	c None",
". 	c #EFEFFF",
"+ 	c #EDEDFF",
"@ 	c #EBEBFF",
"# 	c #E9E9FF",
"$ 	c #E6E6FF",
"% 	c #E3E3FF",
"& 	c #F0F0FF",
"* 	c #E2E2FF",
"= 	c #DFDFFF",
"- 	c #DDDDFF",
"; 	c #D9D9FF",
"> 	c #D2D2FF",
", 	c #CFCFFF",
"' 	c #D7CDE7",
") 	c #E7C7AD",
"! 	c #DEC6C2",
"~ 	c #D7D5FB",
"{ 	c #D6D6FF",
"] 	c #D1D1FF",
"^ 	c #E8E8FF",
"/ 	c #DCDCFF",
"( 	c #CDCDFF",
"_ 	c #CCCCFF",
": 	c #CCCCFE",
"< 	c #E4CDC7",
"[ 	c #F6BA67",
"} 	c #D5B5A8",
"| 	c #CECDFC",
"1 	c #D0D0FF",
"2 	c #C0C0F1",
"3 	c #DFD9EF",
"4 	c #D1CFFA",
"5 	c #CDCDFE",
"6 	c #D8CDE5",
"7 	c #F8CD93",
"8 	c #FEA520",
"9 	c #C8A998",
"0 	c #CCCAF8",
"a 	c #CECEFF",
"b 	c #BFBFEE",
"c 	c #A2A2CA",
"d 	c #E8CBB6",
"e 	c #E4CCC2",
"f 	c #DACBD9",
"g 	c #D6CCE6",
"h 	c #D7CEE8",
"i 	c #EDD0B9",
"j 	c #FFC36A",
"k 	c #FD9A07",
"l 	c #CAA485",
"m 	c #CDC9F3",
"n 	c #C4C4F5",
"o 	c #9A9AC0",
"p 	c #E1E1FF",
"q 	c #E5BD9A",
"r 	c #FFB951",
"s 	c #F9C47A",
"t 	c #F4CA96",
"u 	c #F5CE9C",
"v 	c #FDC779",
"w 	c #FFB342",
"x 	c #FF9A03",
"y 	c #E6A34F",
"z 	c #D7C3CC",
"A 	c #D0CAF0",
"B 	c #CECBF7",
"C 	c #C7C5F4",
"D 	c #9898BD",
"E 	c #757592",
"F 	c #DEDEFF",
"G 	c #CEC8EF",
"H 	c #DCA668",
"I 	c #FF9C07",
"J 	c #FFAD33",
"K 	c #FFB340",
"L 	c #FFA318",
"M 	c #FF9D0A",
"N 	c #FDA31E",
"O 	c #F1B76D",
"P 	c #EAC199",
"Q 	c #E7BE9A",
"R 	c #DABBAF",
"S 	c #9C9CC3",
"T 	c #686881",
"U 	c #DADAFF",
"V 	c #CDC7EC",
"W 	c #DEA460",
"X 	c #FD9B0C",
"Y 	c #FF9E0C",
"Z 	c #FF9D09",
"` 	c #FF9B04",
" .	c #FF9901",
"..	c #FD9800",
"+.	c #FA9600",
"@.	c #F19000",
"#.	c #D17D00",
"$.	c #BD8F5D",
"%.	c #9A9AC1",
"&.	c #5B5B71",
"*.	c #D4D4FF",
"=.	c #D9C4CA",
"-.	c #F9AE42",
";.	c #FFA115",
">.	c #ED8E00",
",.	c #C37500",
"'.	c #905B0A",
").	c #7D592C",
"!.	c #927C6F",
"~.	c #B2A6B9",
"{.	c #8B8BAD",
"].	c #525266",
"^.	c #CECBF9",
"/.	c #E2C7BA",
"(.	c #FEB64A",
"_.	c #F09000",
":.	c #F29100",
"<.	c #DA8300",
"[.	c #9B600A",
"}.	c #907869",
"|.	c #B4ABC4",
"1.	c #C8C6F4",
"2.	c #BABAE9",
"3.	c #CBCBFE",
"4.	c #D1CBF1",
"5.	c #F8BC69",
"6.	c #F59300",
"7.	c #AF6900",
"8.	c #B16B00",
"9.	c #CD7B00",
"0.	c #9C6822",
"a.	c #B4A6B7",
"b.	c #C8C8FA",
"c.	c #A7A7D1",
"d.	c #59596F",
"e.	c #BCBCEB",
"f.	c #C2C2F2",
"g.	c #CDC6E9",
"h.	c #EDB675",
"i.	c #926D43",
"j.	c #947F74",
"k.	c #A3897A",
"l.	c #B07627",
"m.	c #A97328",
"n.	c #BEAEBC",
"o.	c #CAC9FB",
"p.	c #7B7B9A",
"q.	c #ABABD5",
"r.	c #C4B7CC",
"s.	c #CB9452",
"t.	c #AC958F",
"u.	c #BEB9DC",
"v.	c #C7C4F0",
"w.	c #CAC7F5",
"x.	c #C0AAAC",
"y.	c #B37417",
"z.	c #9F630B",
"A.	c #BBA8AF",
"B.	c #BEBDEA",
"C.	c #9090B4",
"D.	c #9B9ABD",
"E.	c #B6AECB",
"F.	c #C5C4F1",
"G.	c #CCCAFA",
"H.	c #BFA6A2",
"I.	c #8D5F1E",
"J.	c #A2897D",
"K.	c #918EAA",
"L.	c #737390",
"M.	c #7F7F9F",
"N.	c #B1B1DD",
"O.	c #B6B5E0",
"P.	c #9E96AB",
"Q.	c #766F7D",
"R.	c #545364",
"S.	c #55556A",
"T.	c #535368",
"U.	c #5F5F76",
"V.	c #6E6E89",
"W.	c #767693",
"X.	c #6D6D89",
"Y.	c #58586E",
"                                          ",
"              . + @ # $ %                 ",
"          & . @ $ * = = = - ;             ",
"        . @ * ; > , ' ) ! ~ { ]           ",
"      + ^ / > ( _ : < [ } | 1 , 2         ",
"    # ^ 3 4 5 : : 6 7 8 9 0 ( a b c       ",
"    $ = d e f g h i j k l m _ ( n o       ",
"  p p { q r s t u v w x y z A B C D E     ",
"  F - ] G H I J K J L M N O P Q R S T     ",
"  U ; , _ V W X Y Z `  ...+.@.#.$.%.&.    ",
"  { *.( _ _ =.-.;.x ..>.,.'.).!.~.{.].    ",
"  ] ] ( _ ^./.(.I _.:.<.[.}.|.1.2.E ].    ",
"  ( ( _ 3.4.5.6.7.8.#.9.0.a._ b.c.d.].    ",
"    e.f.g.h.<.i.j.k.l.,.m.n.o.2.p.].      ",
"    c.q.r.s.t.u.v.w.x.y.z.A.B.C.].].      ",
"      C.D.E.F.3._ _ G.H.I.J.K.].].        ",
"        L.M.%.N.b n 2 O.P.Q.R.].          ",
"          S.T.U.V.W.X.Y.].].].            ",
"              ].].].].].].                ",
"                                          ",
"                                          "};
