/* XPM */
static char *magick[] = {
/* columns rows colors chars-per-pixel */
"21 21 137 2",
"   c #1a1a1a",
".  c #242424",
"X  c #20232c",
"o  c #272829",
"O  c #2b2c2b",
"+  c #242730",
"@  c #2a2c34",
"#  c #323232",
"$  c #33363f",
"%  c #3b3c3b",
"&  c #293047",
"*  c #303a5a",
"=  c #333f64",
"-  c #3e413c",
";  c #3a7b1b",
":  c #3f465c",
">  c #35426a",
",  c #374570",
"<  c #3f4d78",
"1  c #424242",
"2  c #4b4b4b",
"3  c #4b5745",
"4  c gray32",
"5  c #51545a",
"6  c #5b5d5b",
"7  c #424c6d",
"8  c #47547d",
"9  c #4a5370",
"0  c #4f6943",
"q  c #507141",
"w  c #5e7d4f",
"e  c #5c647f",
"r  c #62725b",
"t  c #616360",
"y  c #6a6a6a",
"u  c #696c76",
"i  c #6e736c",
"p  c #747e6f",
"a  c gray46",
"s  c #7a7a7b",
"d  c #435794",
"f  c #455896",
"g  c #4b5f9c",
"h  c #515f8a",
"j  c #4d619e",
"k  c #4b62ab",
"l  c #5669a7",
"z  c #5a6eae",
"x  c #647095",
"c  c #2f9200",
"v  c #319402",
"b  c #369609",
"n  c #339b02",
"m  c #38960b",
"M  c #3c990f",
"N  c #3e9a12",
"B  c #34a200",
"V  c #3ca907",
"C  c #42901c",
"Z  c #419b16",
"A  c #449c1b",
"S  c #489f1e",
"D  c #418023",
"F  c #48832c",
"G  c #568e3b",
"H  c #40a70f",
"J  c #40a90e",
"K  c #42a313",
"L  c #46ae14",
"P  c #49a31e",
"I  c #4ba022",
"U  c #53a42c",
"Y  c #58a632",
"T  c #5aa834",
"R  c #5eaa39",
"E  c #54b525",
"W  c #5aba2c",
"Q  c #5cb630",
"!  c #61ac3c",
"~  c #62b33b",
"^  c #609547",
"/  c #689a50",
"(  c #749d60",
")  c #789a68",
"_  c #62a243",
"`  c #6aa44c",
"'  c #6cbd46",
"]  c #73ac57",
"[  c #75ad59",
"{  c #78a761",
"}  c #7aa863",
"|  c #7ac656",
" . c #7ec85a",
".. c #7381ae",
"X. c #7c85a3",
"o. c #7d8bb7",
"O. c #80af69",
"+. c #86a078",
"@. c #83b16c",
"#. c #82cc5f",
"$. c #88c66a",
"%. c #94d176",
"&. c #98d57b",
"*. c #848484",
"=. c #86878c",
"-. c #888888",
";. c #8c908b",
":. c #949595",
">. c #9398aa",
",. c #999ba0",
"<. c #9b9ea8",
"1. c #91ab84",
"2. c #9dac95",
"3. c #9ebb90",
"4. c #a3ae9d",
"5. c gray63",
"6. c #acacac",
"7. c #a6abbb",
"8. c #a8b1a5",
"9. c #afb0b2",
"0. c #b3b5b2",
"q. c #b5beb1",
"w. c #b9b9b9",
"e. c #abb0c2",
"r. c #b0b5c4",
"t. c #b5b8c4",
"y. c #bebfc4",
"u. c #a3d68a",
"i. c #acdd95",
"p. c #afc5a5",
"a. c #b8e1a4",
"s. c #bde4ab",
"d. c #c1c2c1",
"f. c #c9c9c9",
"g. c #cfebc2",
"h. c #d6eeca",
"j. c #e2f2da",
/* pixels */
"k k k k k k k k k k k k k k k k k k k k k ",
"k k k k k k k k k k k k k k k k k k k k k ",
"k k k k k k d > & X   X & > f k k k k k k ",
"k k k k k > X             . @ < k k k k k ",
"k k k k =           . o o O # # 7 k k k k ",
"k k k *       . i 4.p.3.) 0 % % 1 9 k k k ",
"k k d X     % 8.j.g.a.u.$.R N 2 4 5 j k k ",
"k k >     O 2.h.s.&.| ' ~ S b F 6 6 e k k ",
"k k &   o r a.i.$.W L V K b b A w y u k k ",
"k k + . # ( %.| E V B n n c b S ^ s s k k ",
"k k o O % _ | E J B n n v c m I ^ -.=.k k ",
"k k $ % 1 C K K B n n c c c N U ` :.:.k k ",
"k k : 1 2 ; m n v v c c c b S Y [ 5.,.k k ",
"k k 8 2 4 q N M m v v v b Z U ! 1.6.>.k k ",
"k k g 5 6 t G I S A N A I Y R } 0.w...k k ",
"k k k h t y p / Y Y Y Y R ` @.p.d.7.k k k ",
"k k k k e a *.-.+.} [ [ @.3.f.f.t.z k k k ",
"k k k k k x =.:.5.6.0.w.d.f.f.e.z k k k k ",
"k k k k k k l X.<.9.w.d.y.e.o.k k k k k k ",
"k k k k k k k k k k k k k k k k k k k k k ",
"k k k k k k k k k k k k k k k k k k k k k "
};
