/* XPM */
static char *magick[] = {
/* columns rows colors chars-per-pixel */
"21 21 143 2",
"   c #1a1a1a",
".  c #242424",
"X  c #20232c",
"o  c #272829",
"O  c #2b2b2b",
"+  c #242730",
"@  c #2a2c34",
"#  c #302f2d",
"$  c #323232",
"%  c #33363f",
"&  c #3c3b3b",
"*  c #293047",
"=  c #303a5a",
"-  c #333f64",
";  c #3f465c",
":  c #35426a",
">  c #374570",
",  c #3f4d78",
"<  c #44403c",
"1  c #424242",
"2  c #4b4b4b",
"3  c #5f5346",
"4  c gray32",
"5  c #51545a",
"6  c gray36",
"7  c #424c6d",
"8  c #47547d",
"9  c #4a5370",
"0  c #5c647f",
"q  c #615d59",
"w  c #7a6144",
"e  c #7d6d5b",
"r  c gray38",
"t  c #686460",
"y  c #6a6a6a",
"u  c #696c76",
"i  c #76726d",
"p  c gray46",
"a  c #7a7a7b",
"s  c #435794",
"d  c #455896",
"f  c #4b5f9c",
"g  c #515f8a",
"h  c #4d619e",
"j  c #4b62ab",
"k  c #5669a7",
"l  c #5a6eae",
"z  c #647095",
"x  c #7381ae",
"c  c #7c85a3",
"v  c #7d8bb7",
"b  c #a9681d",
"n  c #ad6e26",
"m  c #ac712f",
"M  c #b67d3e",
"N  c #886742",
"B  c #937450",
"V  c #857b6f",
"C  c #c7791f",
"Z  c #d77505",
"A  c #d97504",
"S  c #d87608",
"D  c #dd7804",
"F  c #d9790b",
"G  c #da7d13",
"H  c #da7f19",
"J  c #e17b04",
"K  c #e87e04",
"L  c #ba8548",
"P  c #bf8b52",
"I  c #b18f69",
"U  c #b99162",
"Y  c #b49879",
"T  c #da811b",
"R  c #dc8523",
"E  c #de8b2e",
"W  c #de8e34",
"Q  c #de9038",
"!  c #e78009",
"~  c #ed8105",
"^  c #e68515",
"/  c #ec8815",
"(  c #e9891b",
")  c #f08305",
"_  c #f6890c",
"`  c #f28a13",
"'  c #f78f19",
"]  c #e28922",
"[  c #e0933d",
"{  c #e6983d",
"}  c #ed9b3e",
"|  c #fa9929",
" . c #f49b34",
".. c #fd9d30",
"X. c #cc8e48",
"o. c #cf924f",
"O. c #d08f45",
"+. c #d69b5b",
"@. c #c99964",
"#. c #d2a26d",
"$. c #e19441",
"%. c #f5a54a",
"&. c #fbb15b",
"*. c #f2b46c",
"=. c #ffb662",
"-. c #fcbf79",
";. c #ffc37e",
":. c #848484",
">. c #86878c",
",. c #888888",
"<. c #928f8b",
"1. c #949595",
"2. c #9398aa",
"3. c #999ba0",
"4. c #9b9ea8",
"5. c #bfa385",
"6. c #b7a796",
"7. c #b6ab9e",
"8. c gray63",
"9. c #acacac",
"0. c #a6abbb",
"q. c #afb0b2",
"w. c #b6aea5",
"e. c gray70",
"r. c #bab6b2",
"t. c #b9b9b9",
"y. c #abb0c2",
"u. c #b0b5c4",
"i. c #b5b8c4",
"p. c #bebfc4",
"a. c #ccb092",
"s. c #d3b491",
"d. c #c5bcb1",
"f. c #d5bfa6",
"g. c #f9c78c",
"h. c #ffcf97",
"j. c #fdd5a6",
"k. c #ffd9ad",
"l. c #c2c2c1",
"z. c #c9c9c9",
"x. c #ffe3c3",
"c. c #ffe7cb",
"v. c #feeedb",
/* pixels */
"j j j j j j j j j j j j j j j j j j j j j ",
"j j j j j j j j j j j j j j j j j j j j j ",
"j j j j j j s : * X   X * : d j j j j j j ",
"j j j j j : X             . @ 7 j j j j j ",
"j j j j -           . o o O $ $ 7 j j j j ",
"j j j =       o i 7.f.s.I w < * 1 9 j j j ",
"j j s X     & w.v.x.j.g.*.} n 3 2 5 h j j ",
"j j :     O 6.c.k.;.&.%.} ] J m 6 6 0 j j ",
"j j *   o e j.h.&...' / ^ D F T B y u j j ",
"j j X . $ U ;.&.| _ ~ K J D F R L a a j j ",
"j j o # & O.%. .` ~ ~ J D Z G R o.,.,.j j ",
"j j % & 1 C ( ( ! ! D D Z S G E o.1.1.j j ",
"j j ; 1 2 n F D D D A Z Z S T Q @.8.1.j j ",
"j j 8 2 4 N T F F S Z Z S T W $.5.9.2.j j ",
"j j h 5 6 t M R R T T T R W Q #.t.t.x j j ",
"j j j g r y V P W W W Q Q $.#.d.l.0.j j j ",
"j j j j 0 p :.<.Y @.+.+.#.a.l.z.i.l j j j ",
"j j j j j z >.1.8.9.e.t.l.z.z.u.l j j j j ",
"j j j j j j k c 4.9.t.l.p.y.v j j j j j j ",
"j j j j j j j j j j j j j j j j j j j j j ",
"j j j j j j j j j j j j j j j j j j j j j "
};
