/* XPM */
static char *magick[] = {
/* columns rows colors chars-per-pixel */
"21 21 148 2",
"   c #1a1a1a",
".  c #232323",
"X  c #292929",
"o  c #343434",
"O  c #3f3837",
"+  c #3c3c3c",
"@  c #403d3c",
"#  c #6f3934",
"$  c #7a443f",
"%  c #434343",
"&  c #4b4b4b",
"*  c #535353",
"=  c #595959",
"-  c #645d5d",
";  c #7c4c48",
":  c gray39",
">  c #6d6d6d",
",  c #766765",
"<  c #746d6c",
"1  c #767676",
"2  c #b22b1f",
"3  c #aa3930",
"4  c #b43f35",
"5  c #81403a",
"6  c #b64339",
"7  c #884a45",
"8  c #895c58",
"9  c #925955",
"0  c #85625f",
"q  c #807777",
"w  c #877a79",
"e  c #9d6661",
"r  c #ae5c54",
"t  c #b4554e",
"y  c #a17774",
"u  c #b56a63",
"i  c #df1f0e",
"p  c #c82416",
"a  c #c9281a",
"s  c #df2414",
"d  c #de2a1b",
"f  c #c72d20",
"g  c #dd3223",
"h  c #dd3628",
"j  c #de3a2d",
"k  c #df3f33",
"l  c #e51503",
"z  c #e01807",
"x  c #e51b0a",
"c  c #ea1502",
"v  c #ea1906",
"b  c #e91c0b",
"n  c #e7200f",
"m  c #e32415",
"M  c #e42718",
"N  c #e32a1c",
"B  c #ed2614",
"V  c #f0200d",
"C  c #e23223",
"Z  c #e33729",
"A  c #e13a2d",
"S  c #ec3829",
"D  c #e13d31",
"F  c #f23827",
"G  c #f03828",
"H  c #cc4439",
"J  c #df4134",
"K  c #e14236",
"L  c #e04539",
"P  c #e1483d",
"I  c #f24434",
"U  c #f14a3b",
"Y  c #cd5147",
"T  c #d04e44",
"R  c #dc4f45",
"E  c #d7584d",
"W  c #dd5247",
"Q  c #df534a",
"!  c #d55e56",
"~  c #db5f57",
"^  c #c5625b",
"/  c #db6057",
"(  c #da635b",
")  c #c8716b",
"_  c #d36f69",
"`  c #d7746d",
"'  c #d57c75",
"]  c #e14d43",
"[  c #f55243",
"{  c #f35648",
"}  c #f35d4f",
"|  c #f56053",
" . c #f56659",
".. c #f86255",
"X. c #f86d61",
"o. c #f97266",
"O. c #f9796e",
"+. c #f97c71",
"@. c #f88176",
"#. c #fa847a",
"$. c gray51",
"%. c #8b8b8b",
"&. c #929292",
"*. c #9b9595",
"=. c #9d9d9d",
"-. c #b68480",
";. c #b5a09f",
":. c gray65",
">. c gray68",
",. c gray70",
"<. c #bab1b0",
"1. c #bbbbbb",
"2. c #c08e8b",
"3. c #c79692",
"4. c #cf9995",
"5. c #c99c99",
"6. c #d09e9b",
"7. c #c6b6b5",
"8. c #d0a3a0",
"9. c #dcb6b3",
"0. c #fd958c",
"q. c #f39e97",
"w. c #fb9d95",
"e. c #fda39b",
"r. c #e4bdb9",
"t. c #fda7a0",
"y. c #fcaaa3",
"u. c #ffb0a9",
"i. c #f5b6b0",
"p. c #ffbbb5",
"a. c #febeb9",
"s. c #ffc2bd",
"d. c #c4c4c4",
"f. c #cbc3c2",
"g. c #c8c8c8",
"h. c #e4cbc8",
"j. c #fec6c1",
"k. c #fec9c4",
"l. c #feccc8",
"z. c #fed1cd",
"x. c #ffdad7",
"c. c #ffddda",
"v. c #ffe0dd",
"b. c #ffe4e2",
"n. c #ffe8e6",
"m. c #ffeae8",
"M. c white",
"N. c None",
/* pixels */
"N.N.N.N.N.                  . N.N.N.N.N.N.",
"N.N.N.          . . X X X X X X o N.N.N.N.",
"N.N.        o q ;.9.i.q.' r $ O o + N.N.N.",
"N.      . < 7.b.v.z.a.e.@.} S 2 # % % N.N.",
"N.    X w h.n.n.n.x.k.e.O.[ B l p $ & * N.",
"    . , r.x.v.n.n.v.l.e.O.U l z i a ; = N.",
"    @ 3.s.z.c.n.m.v.l.e.o.G c x s d 4 - : ",
"  X 0 e.y.s.z.c.n.c.j.w. .B l s d g h 9 > ",
". o u #.0.t.p.k.l.k.y.#.U l x N g h j t 1 ",
"X @ E ..o.#.0.e.t.w.@.{ b x M C j k J Y $.",
"X % C F I [ ..X.X.| I v x m C j J L ] R %.",
"o % v c c c V B B v l x m C D J P ] ] Q &.",
"o % a b x b b b b B M N Z D P ] ] ] ] ! =.",
"+ & 3 s M m N N N N Z A J P ] ] ] ] ] ) :.",
"& & 7 N N C C Z A D J P P ] ] ] ] ] ] -.>.",
"N.* - 6 h A D K L P ] ] ] ] ] ] ] ] ` <.N.",
"N.= : 8 H J L P ] ] ] ] ] ] ] ] ] ~ 5.1.N.",
"N.N.: > e T P ] ] ] ] ] ] ] ] ] / 4.d.N.N.",
"N.N.N.1 $.y ^ ] ] ] ] ] ] ] Q ` 8.g.N.N.N.",
"N.N.N.N.$.%.*.-.) ! Q Q ( ' 6.f.g.N.N.N.N.",
"N.N.N.N.N.N.=.:.>.,.1.1.d.d.g.N.N.N.N.N.N."
};
