/* XPM */
static char * step_orange_xpm[] = {
"21 21 221 2",
"  	c None",
". 	c #4B62AB",
"+ 	c #435794",
"@ 	c #35426A",
"# 	c #293047",
"$ 	c #20232C",
"% 	c #1B1B1C",
"& 	c #36436C",
"* 	c #465996",
"= 	c #374570",
"- 	c #20232D",
"; 	c #1A1A1A",
"> 	c #1F1F1F",
", 	c #252525",
"' 	c #282828",
") 	c #272727",
"! 	c #262626",
"~ 	c #2C2F36",
"{ 	c #404E79",
"] 	c #333F64",
"^ 	c #1A1A1B",
"/ 	c #393838",
"( 	c #8A857F",
"_ 	c #BEB1A3",
": 	c #DBC3A6",
"< 	c #D9B58A",
"[ 	c #B78F61",
"} 	c #846542",
"| 	c #433E38",
"1 	c #383838",
"2 	c #434D6E",
"3 	c #303A5A",
"4 	c #53514F",
"5 	c #B3ACA5",
"6 	c #F5E9DC",
"7 	c #FFEDD9",
"8 	c #FFE1BE",
"9 	c #FCCC93",
"0 	c #F7B15E",
"a 	c #E58E2B",
"b 	c #A26929",
"c 	c #594F44",
"d 	c #474747",
"e 	c #4B5470",
"f 	c #202020",
"g 	c #565350",
"h 	c #D2C5B5",
"i 	c #FFF1E1",
"j 	c #FFF4E6",
"k 	c #FFF0DF",
"l 	c #FFE3C2",
"m 	c #FDC98E",
"n 	c #F7A84D",
"o 	c #ED840C",
"p 	c #E6800C",
"q 	c #B8762A",
"r 	c #655C52",
"s 	c #55575B",
"t 	c #4E619F",
"u 	c #1C1C1C",
"v 	c #43413E",
"w 	c #B5A38D",
"x 	c #FFE6C8",
"y 	c #FFF3E5",
"z 	c #FFF2E4",
"A 	c #FFE5C7",
"B 	c #FCC788",
"C 	c #F59E38",
"D 	c #EC8209",
"E 	c #E68413",
"F 	c #E0851B",
"G 	c #A57641",
"H 	c #636363",
"I 	c #5B6481",
"J 	c #2B3248",
"K 	c #907A62",
"L 	c #F7CB98",
"M 	c #FFDAB0",
"N 	c #FFE4C5",
"O 	c #FFEEDA",
"P 	c #FFF0E0",
"Q 	c #FEE2C2",
"R 	c #FBBE79",
"S 	c #F28D19",
"T 	c #EB8510",
"U 	c #E6881B",
"V 	c #E18925",
"W 	c #D68830",
"X 	c #857665",
"Y 	c #6E717B",
"Z 	c #272A33",
"` 	c #333333",
" .	c #BF925D",
"..	c #FDBC71",
"+.	c #FFC684",
"@.	c #FFD29E",
"#.	c #FFDDB5",
"$.	c #FEE1C0",
"%.	c #FDD2A2",
"&.	c #F7A74C",
"*.	c #E9881A",
"=.	c #E48C27",
"-.	c #E18E30",
";.	c #DF8F37",
">.	c #A38461",
",.	c #7F7F81",
"'.	c #2A2B2C",
").	c #3D3D3D",
"!.	c #D78C36",
"~.	c #F89C33",
"{.	c #FAA441",
"].	c #FCAD52",
"^.	c #FBB564",
"/.	c #FAB567",
"(.	c #F7A241",
"_.	c #EF850B",
":.	c #EB8B1D",
"<.	c #E7902B",
"[.	c #E49336",
"}.	c #E2943C",
"|.	c #E19440",
"1.	c #B68D61",
"2.	c #898989",
"3.	c #353841",
"4.	c #434343",
"5.	c #CF7A18",
"6.	c #F1850A",
"7.	c #F3870A",
"8.	c #F4870A",
"9.	c #F1870C",
"0.	c #EE8916",
"a.	c #EC8E24",
"b.	c #E99332",
"c.	c #E6973C",
"d.	c #E39742",
"e.	c #E19644",
"f.	c #E19746",
"g.	c #B99267",
"h.	c #8F9090",
"i.	c #3F465D",
"j.	c #B5752B",
"k.	c #EB8716",
"l.	c #ED8A19",
"m.	c #EE8C1C",
"n.	c #EE8D20",
"o.	c #ED8F26",
"p.	c #EB922F",
"q.	c #E99739",
"r.	c #E79941",
"s.	c #E49945",
"t.	c #E29846",
"u.	c #E29847",
"v.	c #B49778",
"w.	c #95969B",
"x.	c #48557D",
"y.	c #4B4B4B",
"z.	c #8E6A42",
"A.	c #DE8824",
"B.	c #E88D26",
"C.	c #E98F2A",
"D.	c #E99331",
"E.	c #E99638",
"F.	c #E7983F",
"G.	c #E69A44",
"H.	c #E49946",
"I.	c #DB974D",
"J.	c #B0A395",
"K.	c #9095A7",
"L.	c #4C5F9D",
"M.	c #50535B",
"N.	c #635E59",
"O.	c #AA7B45",
"P.	c #E39030",
"Q.	c #E59337",
"R.	c #E5963D",
"S.	c #E59943",
"T.	c #E59946",
"U.	c #E39947",
"V.	c #C59F76",
"W.	c #B3B3B3",
"X.	c #7381AD",
"Y.	c #515F8A",
"Z.	c #626262",
"`.	c #7A7168",
" +	c #BF884B",
".+	c #E2953F",
"++	c #E29744",
"@+	c #CE9E69",
"#+	c #BEB8B1",
"$+	c #A6ABBA",
"%+	c #606780",
"&+	c #777777",
"*+	c #8D857B",
"=+	c #B78F63",
"-+	c #DA964B",
";+	c #DC994F",
">+	c #CAA57B",
",+	c #C4BDB6",
"'+	c #B2B6C1",
")+	c #5A6EAE",
"!+	c #657096",
"~+	c #88898E",
"{+	c #979797",
"]+	c #AB9D8E",
"^+	c #BC9F7F",
"/+	c #C69F74",
"(+	c #C8A177",
"_+	c #C6A98A",
":+	c #C4B7A9",
"<+	c #C7C7C7",
"[+	c #AFB4C3",
"}+	c #5A6FAE",
"|+	c #5669A7",
"1+	c #7D86A3",
"2+	c #9DA0AA",
"3+	c #B0B1B3",
"4+	c #B8B8B8",
"5+	c #BCBCBD",
"6+	c #BABCC0",
"7+	c #A8AEC0",
"8+	c #7C8AB7",
". . . . . . . . . . . . . . . . . . . . . ",
". . . . . . . . . . . . . . . . . . . . . ",
". . . . . . + @ # $ % $ # & * . . . . . . ",
". . . . . = - ; ; > , ' ) ! ~ { . . . . . ",
". . . . ] ^ ; / ( _ : < [ } | 1 2 . . . . ",
". . . 3 ^ > 4 5 6 7 8 9 0 a b c d e . . . ",
". . + - f g h i j k l m n o p q r s t . . ",
". . @ u v w x 7 y z A B C D E F G H I . . ",
". . J ' K L M N O P Q R S T U V W X Y . . ",
". . Z `  ...+.@.#.$.%.&.o *.=.-.;.>.,.. . ",
". . '.).!.~.{.].^./.(._.:.<.[.}.|.1.2.. . ",
". . 3.4.5.6.7.8.7.9.0.a.b.c.d.e.f.g.h.. . ",
". . i.d j.k.l.m.n.o.p.q.r.s.t.u.u.v.w.. . ",
". . x.y.z.A.B.C.D.E.F.G.H.u.u.u.I.J.K.. . ",
". . L.M.N.O.P.Q.R.S.T.U.u.u.u.u.V.W.X.. . ",
". . . Y.Z.`. +.+++t.u.u.u.u.u.@+#+$+. . . ",
". . . . %+&+*+=+-+u.u.u.u.;+>+,+'+)+. . . ",
". . . . . !+~+{+]+^+/+(+_+:+<+[+}+. . . . ",
". . . . . . |+1+2+3+4+5+6+7+8+. . . . . . ",
". . . . . . . . . . . . . . . . . . . . . ",
". . . . . . . . . . . . . . . . . . . . . "};
