/* XPM */
static char *magick[] = {
/* columns rows colors chars-per-pixel */
"21 21 151 2",
"   c #1b1b1b",
".  c #242424",
"X  c #20232c",
"o  c #282929",
"O  c #272a33",
"+  c #2c2f36",
"@  c gray20",
"#  c #3a3939",
"$  c #293047",
"%  c #2b3248",
"&  c #353841",
"*  c #303a5a",
"=  c #333f64",
"-  c #3f465d",
";  c #35426a",
":  c #374570",
">  c #433b3b",
",  c #454545",
"<  c #4b4b4b",
"1  c #534f4f",
"2  c #594543",
"3  c #565050",
"4  c #52555b",
"5  c #434d6e",
"6  c #404e79",
"7  c #4b5470",
"8  c #48557d",
"9  c #655351",
"0  c #635959",
"q  c #626262",
"w  c #6e717b",
"e  c #7a6967",
"r  c #777777",
"t  c #435794",
"y  c #465996",
"u  c #4c5f9d",
"i  c #515f8a",
"p  c #4e619f",
"a  c #5b6481",
"s  c #4b62ab",
"d  c #5669a7",
"f  c #5a6eae",
"g  c #606780",
"h  c #657096",
"j  c #7f7f81",
"k  c #7381ad",
"l  c #7d86a3",
"z  c #7c8ab7",
"x  c #a23026",
"c  c #b53429",
"v  c #b83227",
"b  c #a5473f",
"n  c #844640",
"m  c #8e4641",
"M  c #856664",
"N  c #8b7d7c",
"B  c #906562",
"V  c #aa4b44",
"C  c #bf5148",
"Z  c #b6655f",
"A  c #bf635b",
"S  c #a36560",
"D  c #b76761",
"F  c #b96b66",
"G  c #b47b77",
"H  c #cf2314",
"J  c #d63a2d",
"K  c #de3022",
"L  c #e61a09",
"P  c #ec1604",
"I  c #ed1906",
"U  c #eb1d0b",
"Y  c #f21805",
"T  c #f11b08",
"R  c #e6200f",
"E  c #e32718",
"W  c #eb2313",
"Q  c #ec2b1b",
"!  c #f22614",
"~  c #e23022",
"^  c #e63628",
"/  c #e23a2d",
"(  c #ea3223",
")  c #e93a2d",
"_  c #e43f33",
"`  c #f83f2f",
"'  c #d74033",
"]  c #df4033",
"[  c #e54033",
"{  c #e44539",
"}  c #e4483d",
"|  c #e94235",
" . c #f54434",
".. c #f74c3d",
"X. c #fa4c3d",
"o. c #db534a",
"O. c #ce6d67",
"+. c #c57974",
"@. c #c87b75",
"#. c #ca7f7a",
"$. c #e24d43",
"%. c #f75648",
"&. c #fc5d4f",
"*. c #f7685b",
"=. c #fb6d61",
"-. c #fa7064",
";. c #fd796e",
":. c #bc817d",
">. c #fb8176",
",. c #88898b",
"<. c #8f9090",
"1. c #979797",
"2. c #95969b",
"3. c #9095a7",
"4. c #9da0aa",
"5. c #ab8f8d",
"6. c #b5908c",
"7. c #b09694",
"8. c #a6abba",
"9. c #b3a5a4",
"0. c #bea4a2",
"q. c #b1b2b3",
"w. c #beb2b1",
"e. c #bababa",
"r. c #a8aec0",
"t. c #afb4c3",
"y. c #b2b6c1",
"u. c #babcc0",
"i. c #c68d89",
"p. c #d98f88",
"a. c #c4aba9",
"s. c #c4b7b6",
"d. c #dba9a5",
"f. c #d2b7b5",
"g. c #fd8d84",
"h. c #fd958c",
"j. c #f79e96",
"k. c #fc9a91",
"l. c #ffa49c",
"z. c #fda7a0",
"x. c #ffb4ae",
"c. c #ffbab4",
"v. c #fec3be",
"b. c gray78",
"n. c #fec6c1",
"m. c #ffcac5",
"M. c #f5dddb",
"N. c #ffdbd8",
"B. c #ffe1de",
"V. c #ffe4e2",
"C. c #ffe8e6",
/* pixels */
"s s s s s s s s s s s s s s s s s s s s s ",
"s s s s s s s s s s s s s s s s s s s s s ",
"s s s s s s t = $ X   X % : y s s s s s s ",
"s s s s s : X       . o o o + : s s s s s ",
"s s s s =     # N 0.d.p.Z n > # 7 s s s s ",
"s s s *     1 9.M.N.v.k.*.^ x 2 < 7 s s s ",
"s s t X . 1 f.V.C.V.n.h.%.I L v 9 4 p s s ",
"s s ;   > 6.m.N.V.V.m.g. .P L E b q 8 s s ",
"s s % o B l.x.n.N.V.n.>.! U E E J M w s s ",
"s s O @ A ;.g.l.c.v.z.%.I Q ~ _ ] S l p s ",
"s s o # J  .X.&.=.-...I Q ^ [ { ] F ,.s s ",
"s s # , H P Y I I I W Q _ } ] $.$.F <.s s ",
"s s - , c R W ! Q ( ) | } $.$.$.$.G 2.s s ",
"s s i < m K ( ^ )  .} $.$.$.$.$.o.7.3.s s ",
"s s y 4 4 V / [ { $.$.$.$.$.$.$.@.q.k s s ",
"s s s i q e o.{ $.$.$.$.$.$.$.O.w.8.s s s ",
"s s s s a r N Z o.$.$.$.$.o.#.s.y.f s s s ",
"s s s s s h ,.1.5.:.+.@.i.a.b.y.f s s s s ",
"s s s s s s d l 3.e.e.e.e.r.z s s s s s s ",
"s s s s s s s s s s s s s s s s s s s s s ",
"s s s s s s s s s s s s s s s s s s s s s "
};
