/* XPM */
static char *magick[] = {
/* columns rows colors chars-per-pixel */
"21 21 75 1",
"  c #2f9200",
". c #329403",
"X c #369509",
"o c #359b04",
"O c #38960a",
"+ c #389e07",
"@ c #3a9a0c",
"# c #3e9a12",
"$ c #37a104",
"% c #3ca30a",
"& c #3fa80c",
"* c #409c15",
"= c #459d1a",
"- c #499f1f",
"; c #43a114",
": c #47a21b",
"> c #46aa15",
", c #4aaa1b",
"< c #4db11d",
"1 c #4ba121",
"2 c #4fa824",
"3 c #50a327",
"4 c #51a42a",
"5 c #52ad26",
"6 c #55a92c",
"7 c #5aab33",
"8 c #5daa38",
"9 c #52b322",
"0 c #55b028",
"q c #5ab62d",
"w c #5db432",
"e c #5db931",
"r c #61ad3b",
"t c #63b33c",
"y c #62bd36",
"u c #65bb3a",
"i c #68bf3e",
"p c #64ae41",
"a c #67b241",
"s c #69b543",
"d c #6ab148",
"f c #6bbb43",
"g c #73b654",
"h c #77b858",
"j c #7aba5c",
"k c #7fbc61",
"l c #6cc143",
"z c #83be67",
"x c #89c16e",
"c c #8dc373",
"v c #91c677",
"b c #92c679",
"n c #9ecc88",
"m c #a0cd8b",
"M c #a9d295",
"N c #add49b",
"B c #b2d7a1",
"V c #b6d9a5",
"C c #badbab",
"Z c #bfddb0",
"A c #c3e0b6",
"S c #c6e1b9",
"D c #c9e2bd",
"F c #cce4c1",
"G c #d1e7c6",
"H c #d5e9cb",
"J c #d8eacf",
"K c #ddedd6",
"L c #dfeed8",
"P c #e0efd9",
"I c #e2f0dc",
"U c #e7f2e1",
"Y c #e9f3e5",
"T c white",
"R c None",
/* pixels */
"RRRRRRRRRRRRRRRRRRRRR",
"RRRRRlllllffssaRRRRRR",
"RRRRllllllfffsarRRRRR",
"RRRlllllllfffsr87RRRR",
"RRllllllllfistr744RRR",
"Rllllllliiutw7644--RR",
"Rlllllliyeq55511--=RR",
"Rfflllue9<,>;****#@RR",
"Rffffuq9>>%$+oXXXOXRR",
"Rffuuq9>%$o+:1-@  .RR",
"Rattw5,%$o;6dhgd841RR",
"Rrt751;++6thbmnbzgdRR",
"R7641;@otjbMCSCVmbzRR",
"R411=#o1knCFLLHDCNmRR",
"R---#O 8cBFPYYIHDZVRR",
"RR=#OXXpbVGIYYULHFRRR",
"RRROO.=pbBFKUYYPLRRRR",
"RRRR.X4gbNDJPYYYRRRRR",
"RRRRR-rjbNAHLUYRRRRRR",
"RRRRRRRRRRRRRRRRRRRRR",
"RRRRRRRRRRRRRRRRRRRRR"
};
