/* XPM */
static char * step_green_xpm[] = {
"21 21 187 2",
"  	c None",
". 	c #DFDFEF",
"+ 	c #DBDBED",
"@ 	c #D8D8EB",
"# 	c #D3D3E9",
"$ 	c #CDCDE6",
"% 	c #C8C8E3",
"& 	c #E1E1F0",
"* 	c #D7D7EB",
"= 	c #CECEE6",
"- 	c #C5C5E2",
"; 	c #C0C0DF",
"> 	c #BFBFDF",
", 	c #BBBBDD",
"' 	c #B3B3D9",
") 	c #C6C6E2",
"! 	c #B2B2D9",
"~ 	c #A5A5D2",
"{ 	c #9F9FCF",
"] 	c #A4B2B9",
"^ 	c #9AC979",
"/ 	c #98B0A3",
"( 	c #ACACD6",
"_ 	c #A4A4D1",
": 	c #DADAED",
"< 	c #D2D2E8",
"[ 	c #BABADC",
"} 	c #A4A4D2",
"| 	c #9B9BCD",
"1 	c #9999CC",
"2 	c #9CA0C5",
"3 	c #AED298",
"4 	c #7FCE34",
"5 	c #899C9D",
"6 	c #9D9DCE",
"7 	c #A2A2D0",
"8 	c #9090C0",
"9 	c #D4D4E9",
"0 	c #D1D1E8",
"a 	c #B7BFCD",
"b 	c #A1A4CB",
"c 	c #9A9ACD",
"d 	c #A9BEAF",
"e 	c #ABE373",
"f 	c #66BF11",
"g 	c #819790",
"h 	c #9E9ECE",
"i 	c #8F8FBF",
"j 	c #7979A2",
"k 	c #ACD58E",
"l 	c #A9C99C",
"m 	c #A2BBA6",
"n 	c #A2B0B7",
"o 	c #A9B9B7",
"p 	c #B4DE90",
"q 	c #97DC52",
"r 	c #60BD05",
"s 	c #7A9E74",
"t 	c #9393C4",
"u 	c #73739A",
"v 	c #C3C3E1",
"w 	c #ADADD6",
"x 	c #87C459",
"y 	c #90DA46",
"z 	c #9EDD61",
"A 	c #A8DC7B",
"B 	c #ACDF7C",
"C 	c #9DDE5B",
"D 	c #7FD42A",
"E 	c #66CB00",
"F 	c #72BC35",
"G 	c #92A6A5",
"H 	c #999DC4",
"I 	c #9595C6",
"J 	c #727298",
"K 	c #585875",
"L 	c #BCBCDE",
"M 	c #919CB3",
"N 	c #6AAF32",
"O 	c #68CD03",
"P 	c #7CD325",
"Q 	c #81D52D",
"R 	c #78D21E",
"S 	c #6DCE0C",
"T 	c #6CCE0A",
"U 	c #75D11A",
"V 	c #8ACD4E",
"W 	c #96C57A",
"X 	c #92BB81",
"Y 	c #87AD7F",
"Z 	c #75759C",
"` 	c #4E4E68",
" .	c #B5B5DA",
"..	c #9E9ECF",
"+.	c #8D9FA5",
"@.	c #6DBB2A",
"#.	c #6ACD06",
"$.	c #67CC01",
"%.	c #63C600",
"&.	c #60C000",
"*.	c #5AB400",
"=.	c #4F9D00",
"-.	c #5D903A",
";.	c #74749A",
">.	c #44445B",
",.	c #A9A9D4",
"'.	c #8EBC75",
").	c #7DD427",
"!.	c #66CC00",
"~.	c #65CA00",
"{.	c #5DBB00",
"].	c #4A9400",
"^.	c #366903",
"/.	c #3F6027",
"(.	c #63776A",
"_.	c #838BA4",
":.	c #68688B",
"<.	c #3E3E52",
"[.	c #A3A3D1",
"}.	c #9AA1C1",
"|.	c #9ECF7A",
"1.	c #83D631",
"2.	c #62C400",
"3.	c #56AB00",
"4.	c #3E740A",
"5.	c #5F7462",
"6.	c #898FAE",
"7.	c #9999CB",
"8.	c #8C8CBA",
"9.	c #9C9CCD",
"0.	c #A0BD9D",
"a.	c #8CD93F",
"b.	c #56AD00",
"c.	c #438600",
"d.	c #51A200",
"e.	c #487822",
"f.	c #878FA9",
"g.	c #9696C8",
"h.	c #7D7DA7",
"i.	c #434359",
"j.	c #8D8DBC",
"k.	c #9191C2",
"l.	c #95A5AC",
"m.	c #7CCC32",
"n.	c #4D920A",
"o.	c #3D5F24",
"p.	c #5B715A",
"q.	c #5E7C55",
"r.	c #4C900B",
"s.	c #4E9B00",
"t.	c #4D8222",
"u.	c #8893A6",
"v.	c #9898CA",
"w.	c #5D5D7B",
"x.	c #8080AB",
"y.	c #78A762",
"z.	c #5A8F32",
"A.	c #6F7F7F",
"B.	c #888EAD",
"C.	c #9798C7",
"D.	c #749272",
"E.	c #4B9109",
"F.	c #488016",
"G.	c #84939E",
"H.	c #8E8EBE",
"I.	c #6C6C90",
"J.	c #6F7B84",
"K.	c #8287A5",
"L.	c #9494C6",
"M.	c #9899C9",
"N.	c #6E9264",
"O.	c #3F7410",
"P.	c #6E8378",
"Q.	c #6B6B8F",
"R.	c #565673",
"S.	c #60607F",
"T.	c #8585B1",
"U.	c #858AAB",
"V.	c #627864",
"W.	c #505E58",
"X.	c #404055",
"Y.	c #3F3F53",
"Z.	c #47475F",
"`.	c #53536E",
" +	c #585876",
".+	c #52526D",
"++	c #424258",
"                                          ",
"              . + @ # $ %                 ",
"          & . * = - ; > ; , '             ",
"        . @ ) ! ~ { ] ^ / ( ( _           ",
"      : < [ } | 1 2 3 4 5 6 7 { 8         ",
"    9 0 a b c 1 1 d e f g 1 | h i j       ",
"    $ > k l m n o p q r s 1 1 | t u       ",
"  v v w x y z A B C D E F G H 1 I J K     ",
"  L , _ M N O P Q R S T U V W X Y Z `     ",
"   .' ..1 +.@.#.#.O $.E %.&.*.=.-.;.>.    ",
"  ( ,.| 1 1 '.).T !.~.{.].^./.(._.:.<.    ",
"  _ [.c 1 }.|.1.%.&.2.3.4.5.6.7.8.K <.    ",
"  | 9.1 7.0.a.b.c.].b.d.e.f.1 g.h.i.<.    ",
"    j.k.l.m.n.o.p.q.r.s.t.u.v.8.w.<.      ",
"    h.x.y.z.A.B.1 C.D.E.F.G.H.I.<.<.      ",
"      I.J.K.L.7.1 1 M.N.O.P.Q.<.<.        ",
"        R.S.;.T.i t 8 U.V.W.<.<.          ",
"          X.Y.Z.`. +.+++<.<.<.            ",
"              <.<.<.<.<.<.                ",
"                                          ",
"                                          "};
