/* XPM */
static char *magick[] = {
/* columns rows colors chars-per-pixel */
"21 21 137 2",
"   c #1b1b1b",
".  c #242424",
"X  c #20232c",
"o  c #282929",
"O  c #272a33",
"+  c #2c2f36",
"@  c gray20",
"#  c #3a3a39",
"$  c #293047",
"%  c #2b3248",
"&  c #353841",
"*  c #303a5a",
"=  c #333f64",
"-  c #3f465d",
";  c #35426a",
":  c #374570",
">  c #43413b",
",  c #454444",
"<  c #4b4b4b",
"1  c #59544a",
"2  c #545351",
"3  c #52555b",
"4  c #434d6e",
"5  c #404e79",
"6  c #4b5470",
"7  c #48557d",
"8  c #656157",
"9  c #63615c",
"0  c #626262",
"q  c #6e717b",
"w  c #7a756d",
"e  c #777777",
"r  c #435794",
"t  c #465996",
"y  c #4c5f9d",
"u  c #515f8a",
"i  c #4e619f",
"p  c #5b6481",
"a  c #4b62ab",
"s  c #5669a7",
"d  c #5a6eae",
"f  c #606780",
"g  c #657096",
"h  c #7f7f81",
"j  c #7381ad",
"k  c #7d86a3",
"l  c #7c8ab7",
"z  c #847455",
"x  c #8e7d58",
"c  c #857d6e",
"v  c #90856f",
"b  c #a2864a",
"n  c #a58d5d",
"m  c #b59552",
"M  c #b89752",
"N  c #aa9262",
"B  c #a39474",
"V  c #bfa46b",
"C  c #b6a279",
"Z  c #b9a67e",
"A  c #bfa979",
"S  c #cfa64c",
"D  c #d6af5f",
"F  c #deb359",
"G  c #d7b263",
"H  c #dfb766",
"J  c #dbb974",
"K  c #e6b44c",
"L  c #ecb94b",
"P  c #e3b554",
"I  c #e1b55a",
"U  c #e4b95d",
"Y  c #ecbb54",
"T  c #ebbd5b",
"R  c #f2bd4b",
"E  c #f2bf55",
"W  c #e4ba62",
"Q  c #e3bc6c",
"!  c #e9be63",
"~  c #e2bd71",
"^  c #e7c06f",
"/  c #e9c06a",
"(  c #e6c071",
")  c #f5ca6d",
"_  c #f8cc6b",
"`  c #f7cd74",
"'  c #f7d07c",
"]  c #fad175",
"[  c #8b8881",
"{  c #88898b",
"}  c #8f9090",
"|  c #979797",
" . c #95969b",
".. c #9095a7",
"X. c #9da0aa",
"o. c #aba496",
"O. c #b4a689",
"+. c #b2aa9a",
"@. c #bcad90",
"#. c #a6abba",
"$. c #b3b0a9",
"%. c #beb7aa",
"&. c #b1b2b3",
"*. c #bebbb5",
"=. c #bababa",
"-. c #a8aec0",
";. c #afb4c3",
":. c #b2b6c1",
">. c #babcc0",
",. c #c5b28b",
"<. c #ceb685",
"1. c #c8b58e",
"2. c #c6b79b",
"3. c #cab891",
"4. c #c4beb1",
"5. c #c4c1ba",
"6. c #d9c7a0",
"7. c #d2cbbd",
"8. c #dbcfb5",
"9. c #f7d589",
"0. c #fcd583",
"q. c #fbd98f",
"w. c #fad990",
"e. c #fcdd9b",
"r. c #ffe3a7",
"t. c #fce2ab",
"y. c #f7e1b2",
"u. c #fce5b1",
"i. c #fee8bb",
"p. c gray78",
"a. c #ffedc6",
"s. c #ffeeca",
"d. c #fef1d3",
"f. c #fff2d8",
"g. c #f5f0e3",
"h. c #fff6e4",
"j. c #fff8ea",
/* pixels */
"a a a a a a a a a a a a a a a a a a a a a ",
"a a a a a a a a a a a a a a a a a a a a a ",
"a a a a a a r = $ X   X % : t a a a a a a ",
"a a a a a : X       . o . o + : a a a a a ",
"a a a a =     # [ %.8.6.C z > # 4 a a a a ",
"a a a *     2 $.g.h.d.u.9.W b 1 , 6 a a a ",
"a a r X . 2 7.j.j.j.d.t.' L K M 8 3 i a a ",
"a a ;   > +.f.h.j.j.d.r.) L K P n 0 p a a ",
"a a % o v y.a.d.h.j.d.e.E K U I D c q a a ",
"a a O @ A e.r.i.s.d.i.' L Y U W H B h a a ",
"a a O # G _ ] 0.w.w.` R T W W Q Q C { a a ",
"a a # , S R R R R L Y T ! Q Q J Q O.} a a ",
"a a - , M Y Y E T T ! ( Q ( ~ ~ ~ O. .a a ",
"a a 7 < x I T U ! / ( ( ( ( ~ ~ J +...a a ",
"a a i 3 3 N W Q ( ( ~ ~ ~ ~ ~ ~ ,.&.j a a ",
"a a a u 0 q D Q ~ ~ ~ ~ ~ ~ ~ <.*.#.a a a ",
"a a a a p e v O.J ~ ~ ~ ~ J 3.5.:.d a a a ",
"a a a a a g { | o.@.,.1.2.4.p.;.d a a a a ",
"a a a a a a s k X.&.=.=.>.-.l a a a a a a ",
"a a a a a a a a a a a a a a a a a a a a a ",
"a a a a a a a a a a a a a a a a a a a a a "
};
