/* XPM */
static char *magick[] = {
/* columns rows colors chars-per-pixel */
"21 21 147 2",
"   c #1b1b1b",
".  c #242424",
"X  c #20232c",
"o  c #282929",
"O  c #272a33",
"+  c #2c2f36",
"@  c gray20",
"#  c #3a3939",
"$  c #293047",
"%  c #2b3248",
"&  c #353841",
"*  c #303a5a",
"=  c #333f64",
"-  c #3f465d",
";  c #35426a",
":  c #374570",
">  c #433d3b",
",  c #43403f",
"<  c #454545",
"1  c #4b4b4b",
"2  c #594c49",
"3  c #545150",
"4  c #52555b",
"5  c #434d6e",
"6  c #404e79",
"7  c #4b5470",
"8  c #48557d",
"9  c #655956",
"0  c #635d5b",
"q  c #626262",
"w  c #6e717b",
"e  c #7a6f6c",
"r  c #777777",
"t  c #435794",
"y  c #465996",
"u  c #4c5f9d",
"i  c #515f8a",
"p  c #4e619f",
"a  c #5b6481",
"s  c #4b62ab",
"d  c #5669a7",
"f  c #5a6eae",
"g  c #606780",
"h  c #657096",
"j  c #7f7f81",
"k  c #7381ad",
"l  c #7d86a3",
"z  c #7c8ab7",
"x  c #845c51",
"c  c #8e5f54",
"v  c #85716c",
"b  c #90746d",
"n  c #a25745",
"m  c #a56758",
"M  c #aa6c5d",
"N  c #b5604c",
"B  c #b8604b",
"V  c #a37a71",
"C  c #bf7666",
"Z  c #ec603e",
"A  c #cf5f43",
"S  c #de6c50",
"D  c #d6725a",
"F  c #df775f",
"G  c #e66242",
"H  c #e0674a",
"J  c #e6694c",
"K  c #ed6340",
"L  c #eb6847",
"P  c #ec6b4b",
"I  c #e16d51",
"U  c #ee6f50",
"Y  c #e47155",
"T  c #e37359",
"R  c #e4785f",
"E  c #ea7154",
"W  c #ea775c",
"Q  c #e9785d",
"!  c #f26441",
"~  c #f26c4b",
"^  c #e37c65",
"/  c #e17f69",
"(  c #e97b62",
")  c #b68275",
"_  c #bf8374",
"`  c #b9867b",
"'  c #da816d",
"]  c #dc8470",
"[  c #e2806a",
"{  c #f58265",
"}  c #f7886b",
"|  c #f88062",
" . c #fa896c",
".. c #f78e74",
"X. c #fc947a",
"o. c #8b8280",
"O. c #88898b",
"+. c #8f9090",
"@. c #979797",
"#. c #95969b",
"$. c #9095a7",
"%. c #9da0aa",
"&. c #ab9995",
"*. c #b48f86",
"=. c #bc968d",
"-. c #b59c97",
";. c #b09f9b",
":. c #a6abba",
">. c #b3aaa8",
",. c #beada9",
"<. c #b1b2b3",
"1. c #beb6b4",
"2. c #bababa",
"3. c #a8aec0",
"4. c #afb4c3",
"5. c #b2b6c1",
"6. c #babcc0",
"7. c #ce8f80",
"8. c #c69387",
"9. c #c59488",
"0. c #c8958a",
"q. c #ca998e",
"w. c #c6a098",
"e. c #d9a89c",
"r. c #c4b3b0",
"t. c #c4bbba",
"y. c #dbbbb3",
"u. c #f79a82",
"i. c #fb9f87",
"p. c #faa08a",
"a. c #fda792",
"s. c #fbab97",
"d. c #f7bdaf",
"f. c #fdb4a2",
"g. c #fcbaaa",
"h. c #d2c0bc",
"j. c #fec4b6",
"k. c gray78",
"l. c #ffcec2",
"z. c #ffd2c7",
"x. c #ffd7ce",
"c. c #fed8cf",
"v. c #fedbd2",
"b. c #f5e5e2",
"n. c #ffe9e4",
"m. c #ffede9",
"M. c #fff0ec",
/* pixels */
"s s s s s s s s s s s s s s s s s s s s s ",
"s s s s s s s s s s s s s s s s s s s s s ",
"s s s s s s t = $ X   X % ; y s s s s s s ",
"s s s s s : X       . o o o + : s s s s s ",
"s s s s =     # o.,.y.e.) x > # 5 s s s s ",
"s s s *     3 >.b.n.x.g.u.T n 2 1 7 s s s ",
"s s t X . 3 h.m.m.n.v.g...K G B 9 4 d s s ",
"s s ;   > -.v.n.m.m.v.f.{ Z G H M q 8 s s ",
"s s $ o b d.l.v.n.m.v.s.P K J S D v w s s ",
"s s O # _ a.f.j.l.v.j...K P Y T F V r s s ",
"s s o # D |  .X.i.p.} K P Y ^ F / ) O.s s ",
"s s & < A ! ! ! ! ! P U Q ^ / / [ ` +.s s ",
"s s - < N P P ~ U U W ( [ [ [ [ [ *.#.s s ",
"s s 8 1 c S I E W ( [ [ [ [ [ [ ' ;.$.s s ",
"s s u 4 0 M T ( [ [ [ [ [ [ [ [ 9.<.k s s ",
"s s s i q e C ( ^ [ [ [ [ [ [ 7.1.:.s s s ",
"s s s s a r o.) ' [ [ [ [ ] q.t.5.f s s s ",
"s s s s s h O.@.&.=.9.0.w.r.k.4.f s s s s ",
"s s s s s s d l %.<.2.2.6.3.z s s s s s s ",
"s s s s s s s s s s s s s s s s s s s s s ",
"s s s s s s s s s s s s s s s s s s s s s "
};
