/* XPM */
static char * step_orange_xpm[] = {
"21 21 195 2",
"  	c None",
". 	c #DFDFEF",
"+ 	c #DBDBED",
"@ 	c #D8D8EB",
"# 	c #D3D3E9",
"$ 	c #CDCDE6",
"% 	c #C8C8E3",
"& 	c #E1E1F0",
"* 	c #D7D7EB",
"= 	c #CECEE6",
"- 	c #C5C5E2",
"; 	c #C0C0DF",
"> 	c #BFBFDF",
", 	c #BBBBDD",
"' 	c #B3B3D9",
") 	c #C6C6E2",
"! 	c #B2B2D9",
"~ 	c #A5A5D2",
"{ 	c #9F9FCF",
"] 	c #AFA5BE",
"^ 	c #CFAE96",
"/ 	c #BEA5A2",
"( 	c #ADACD3",
"_ 	c #ACACD6",
": 	c #A4A4D1",
"< 	c #DADAED",
"[ 	c #D2D2E8",
"} 	c #BABADC",
"| 	c #A4A4D2",
"1 	c #9B9BCD",
"2 	c #9999CC",
"3 	c #C8B2AB",
"4 	c #EEB15E",
"5 	c #B39486",
"6 	c #9E9DCC",
"7 	c #A2A2D0",
"8 	c #9090C0",
"9 	c #D4D4E9",
"0 	c #D1D1E8",
"a 	c #C0B9CF",
"b 	c #A4A2CD",
"c 	c #9B9ACC",
"d 	c #9A99CB",
"e 	c #B0A6BD",
"f 	c #F1C68C",
"g 	c #FDA41F",
"h 	c #AA8A7A",
"i 	c #9B98C6",
"j 	c #9E9ECE",
"k 	c #8F8FBF",
"l 	c #7979A2",
"m 	c #D1B49F",
"n 	c #C9B1A8",
"o 	c #B5A6B4",
"p 	c #ADA3BD",
"q 	c #AFA6C0",
"r 	c #DABEA6",
"s 	c #FFC36A",
"t 	c #FB9906",
"u 	c #AF896A",
"v 	c #9D98C2",
"w 	c #9393C4",
"x 	c #73739A",
"y 	c #C3C3E1",
"z 	c #ADADD6",
"A 	c #CCA381",
"B 	c #FFB951",
"C 	c #F3BE74",
"D 	c #E9BF8B",
"E 	c #EBC492",
"F 	c #FBC577",
"G 	c #FFB342",
"H 	c #FF9A03",
"I 	c #D6933F",
"J 	c #B09BA4",
"K 	c #A19BC1",
"L 	c #9D9AC6",
"M 	c #9795C3",
"N 	c #727298",
"O 	c #585875",
"P 	c #BCBCDE",
"Q 	c #9E98BF",
"R 	c #C79153",
"S 	c #FF9C07",
"T 	c #FFAD33",
"U 	c #FFB340",
"V 	c #FFA318",
"W 	c #FF9D0A",
"X 	c #FBA11C",
"Y 	c #E3A95F",
"Z 	c #D5AC84",
"` 	c #CEA681",
" .	c #B8998C",
"..	c #75759C",
"+.	c #4E4E68",
"@.	c #B5B5DA",
"#.	c #9E9ECF",
"$.	c #9E98BD",
"%.	c #CB914D",
"&.	c #FB990A",
"*.	c #FF9E0C",
"=.	c #FF9D09",
"-.	c #FF9B04",
";.	c #FF9901",
">.	c #FD9800",
",.	c #FA9600",
"'.	c #F19000",
").	c #D17D00",
"!.	c #AB7C4A",
"~.	c #74749A",
"{.	c #44445B",
"].	c #A9A9D4",
"^.	c #B29DA4",
"/.	c #F3A83C",
"(.	c #FFA115",
"_.	c #ED8E00",
":.	c #C37500",
"<.	c #8E5908",
"[.	c #745023",
"}.	c #7C6659",
"|.	c #8D8194",
"1.	c #68688B",
"2.	c #3E3E52",
"3.	c #A3A3D1",
"4.	c #9A9ACD",
"5.	c #9D9AC8",
"6.	c #C6AB9E",
"7.	c #FCB449",
"8.	c #F09000",
"9.	c #F29100",
"0.	c #DA8300",
"a.	c #995E08",
"b.	c #7B6354",
"c.	c #8D849D",
"d.	c #8C8CBA",
"e.	c #9C9CCD",
"f.	c #9999CB",
"g.	c #A39DC3",
"h.	c #F1B662",
"i.	c #F59300",
"j.	c #AF6900",
"k.	c #B16B00",
"l.	c #CD7B00",
"m.	c #96621B",
"n.	c #8F8292",
"o.	c #9696C8",
"p.	c #7D7DA7",
"q.	c #434359",
"r.	c #8D8DBC",
"s.	c #9191C2",
"t.	c #9F99BC",
"u.	c #DDA664",
"v.	c #845F36",
"w.	c #7D675D",
"x.	c #8A7062",
"y.	c #A86F1F",
"z.	c #A16B20",
"A.	c #988996",
"B.	c #9898C8",
"C.	c #5D5D7B",
"D.	c #8080AB",
"E.	c #9A8EA4",
"F.	c #BB8442",
"G.	c #907973",
"H.	c #928DB0",
"I.	c #9794C0",
"J.	c #9996C4",
"K.	c #9E888A",
"L.	c #AF6F12",
"M.	c #9D6109",
"N.	c #98858B",
"O.	c #8F8EBC",
"P.	c #6C6C90",
"Q.	c #767497",
"R.	c #8D86A3",
"S.	c #9493C1",
"T.	c #9A98C8",
"U.	c #9E8682",
"V.	c #875918",
"W.	c #897064",
"X.	c #6F6B88",
"Y.	c #565673",
"Z.	c #60607F",
"`.	c #8585B1",
" +	c #8A89B2",
".+	c #7D7489",
"++	c #5E5765",
"@+	c #403F51",
"#+	c #404055",
"$+	c #3F3F53",
"%+	c #47475F",
"&+	c #53536E",
"*+	c #585876",
"=+	c #52526D",
"-+	c #424258",
"                                          ",
"              . + @ # $ %                 ",
"          & . * = - ; > ; , '             ",
"        . @ ) ! ~ { ] ^ / ( _ :           ",
"      < [ } | 1 2 2 3 4 5 6 7 { 8         ",
"    9 0 a b c 2 d e f g h i 1 j k l       ",
"    $ > m n o p q r s t u v 2 1 w x       ",
"  y y z A B C D E F G H I J K L M N O     ",
"  P , : Q R S T U T V W X Y Z `  ...+.    ",
"  @.' #.2 $.%.&.*.=.-.;.>.,.'.).!.~.{.    ",
"  _ ].1 2 2 ^./.(.H >._.:.<.[.}.|.1.2.    ",
"  : 3.4.2 5.6.7.S 8.9.0.a.b.c.M d.O 2.    ",
"  1 e.2 f.g.h.i.j.k.).l.m.n.2 o.p.q.2.    ",
"    r.s.t.u.0.v.w.x.y.:.z.A.B.d.C.2.      ",
"    p.D.E.F.G.H.I.J.K.L.M.N.O.P.2.2.      ",
"      P.Q.R.S.f.2 2 T.U.V.W.X.2.2.        ",
"        Y.Z.~.`.k w 8  +.+++@+2.          ",
"          #+$+%+&+*+=+-+2.2.2.            ",
"              2.2.2.2.2.2.                ",
"                                          ",
"                                          "};
