/* XPM */
static char *magick[] = {
/* columns rows colors chars-per-pixel */
"21 21 88 1",
"  c #d71301",
". c #dc1504",
"X c #d91806",
"o c #d81b0a",
"O c #d9200f",
"+ c #db2313",
"@ c #db2718",
"# c #db2b1c",
"$ c #dd3122",
"% c #dd3628",
"& c #de392c",
"* c #e51705",
"= c #e61807",
"- c #e31b0a",
"; c #e91403",
": c #eb1c0a",
"> c #f11d0b",
", c #e32515",
"< c #e22b1b",
"1 c #ea2514",
"2 c #eb2c1d",
"3 c #f32614",
"4 c #f42b1b",
"5 c #e33122",
"6 c #e43729",
"7 c #e43a2c",
"8 c #ec3426",
"9 c #ea3729",
"0 c #e33f33",
"q c #ea3e32",
"w c #f23425",
"e c #f3392a",
"r c #f93322",
"t c #f93e2f",
"y c #f23f31",
"u c #fb3f31",
"i c #e14033",
"p c #e24538",
"a c #e4493c",
"s c #ec4336",
"d c #eb4639",
"f c #eb493d",
"g c #f44638",
"h c #f3493c",
"j c #fd4436",
"k c #fb493c",
"l c #e44d41",
"z c #eb4d42",
"x c #e35548",
"c c #e45d51",
"v c #f24e42",
"b c #fc4e42",
"n c #f55044",
"m c #fd5044",
"M c #e46155",
"N c #e66458",
"B c #e6685d",
"V c #e8665a",
"C c #e9695e",
"Z c #e76c61",
"A c #e77267",
"S c #e8786e",
"D c #e97d73",
"F c #eb8177",
"G c #ea8379",
"H c #ec928a",
"J c #ef9c95",
"K c #ef9f98",
"L c #efa39c",
"P c #f0a49d",
"I c #f0a9a2",
"U c #f2afa9",
"Y c #f2b5af",
"T c #f3b6b0",
"R c #f4bbb6",
"E c #f4beb9",
"W c #f4c2bd",
"Q c #f5c5c1",
"! c #f6cac6",
"~ c #f7cfcb",
"^ c #f7d0cc",
"/ c #f8d9d6",
"( c #f9dcd9",
") c #fae0de",
"_ c #fae5e3",
"` c #fbe8e6",
"' c white",
"] c None",
/* pixels */
"]]]]]]]]]]]]]]]]]]]]]",
"]]]]]mmmmmnnvzl]]]]]]",
"]]]]mmmmmmnnvzza]]]]]",
"]]]mmmmmmmmnvzapi]]]]",
"]]mmmmmmbbbvvdd0&%]]]",
"]mmmmmmbbkkgsq7&%$#]]",
"]mmmmmbkjuee885$##@]]",
"]nnmbbkur4411,++@+O]]",
"]nnbkktr3>::=..oooo]]",
"]vvvhyr3>:;=<$#o   ]]",
"]zfdqw2:;=,7xNNxp%$]]",
"]dss921=:6aVGHHGAMx]]",
"]0765,-.aCGJYETIHGS]]",
"]%%$@+.$ZHUQ//~EUKH]]",
"]$##@o pDIQ(`_(~WTI]]",
"]]@@oXXlFI!(``_(^Q]]]",
"]]]oo @xGIW/_`_)(]]]]",
"]]]]XX%cGLW^(___]]]]]",
"]]]]]$lBGLR~(_`]]]]]]",
"]]]]]]]]]]]]]]]]]]]]]",
"]]]]]]]]]]]]]]]]]]]]]"
};
