/* XPM */
static char *magick[] = {
/* columns rows colors chars-per-pixel */
"21 21 118 2",
"   c #1a1a1a",
".  c gray13",
"X  c #2d2a27",
"o  c #2a2a2a",
"O  c #36312a",
"+  c #333333",
"@  c #3c3c3c",
"#  c #444444",
"$  c #4b4b4b",
"%  c #59534c",
"&  c #535353",
"*  c #595959",
"=  c #635e57",
"-  c #626262",
";  c #6c6c6c",
":  c #767676",
">  c #7e7e7e",
",  c #84602f",
"<  c #9c723c",
"1  c #937144",
"2  c #997a52",
"3  c #857a6d",
"4  c #85817b",
"5  c #9a8364",
"6  c #a88353",
"7  c #ae895a",
"8  c #aa8d69",
"9  c #bd9c72",
"0  c #c58a39",
"q  c #d08d32",
"w  c #d89638",
"e  c #dc9837",
"r  c #e69f37",
"t  c #e09e3d",
"y  c #e4a13c",
"u  c #e9a43c",
"i  c #ce9447",
"p  c #cf9649",
"a  c #cc9957",
"s  c #d79840",
"d  c #dd9f42",
"f  c #c09e75",
"g  c #dea046",
"h  c #dea24c",
"j  c #dda553",
"k  c #dda75b",
"l  c #dfa856",
"z  c #dea95c",
"x  c #c6a57a",
"c  c #d4a465",
"v  c #d3a569",
"b  c #d8a766",
"n  c #deab64",
"m  c #d7af78",
"M  c #e09f41",
"N  c #e2a142",
"B  c #e2a348",
"V  c #e9a642",
"C  c #edab47",
"Z  c #eaab4b",
"A  c #e0a652",
"S  c #ecaf52",
"D  c #efb153",
"F  c #ecb25a",
"G  c #f2b65c",
"H  c #e0ad64",
"J  c #e1af68",
"K  c #e1b06a",
"L  c #eeb76b",
"P  c #efb966",
"I  c #f4bc67",
"U  c #f1bc6a",
"Y  c #f2bf72",
"T  c #f5c173",
"R  c #f4c47b",
"E  c #f8c77e",
"W  c #838383",
"Q  c #8f8b85",
"!  c #8b8b8b",
"~  c #9c958c",
"^  c #919191",
"/  c gray61",
"(  c #a8a59e",
")  c #bfa380",
"_  c #a5a5a5",
"`  c #acacac",
"'  c #b8b3ad",
"]  c #b3b3b3",
"[  c #bbbbbb",
"{  c #c2a683",
"}  c #f7c780",
"|  c #f5c885",
" . c #f8c981",
".. c #face8c",
"X. c #f0ca93",
"o. c #f7d094",
"O. c #fad399",
"+. c #e7cfaf",
"@. c #fbd9a5",
"#. c #fddcac",
"$. c #fcdeb1",
"%. c #fce0b5",
"&. c #fde2ba",
"*. c #c3c3c3",
"=. c #c8c8c8",
"-. c #d9cec0",
";. c #e6ded4",
":. c #f6e6cf",
">. c #fde6c4",
",. c #feeacc",
"<. c #fdebd1",
"1. c #fff0d9",
"2. c #f9efe0",
"3. c #fff3e2",
"4. c #fff6ea",
"5. c #fff8ec",
"6. c white",
"7. c None",
/* pixels */
"7.7.7.7.7.                  . 7.7.7.7.7.7.",
"7.7.7.    o ~ -.:.>.$.X.v 1 X o O 7.7.7.7.",
"7.7.    4 ;.4.3.1.,.$.O.R F q , + @ 7.7.7.",
"7.    ~ 1.5.5.5.3.<.&.O.Y Z t w < # # 7.7.",
"7.  3 <.3.4.5.5.4.<.&.o.L y t g s 1 $ & 7.",
"  X +.,.1.3.5.5.3.,.&.o.P y t g h i * * 7.",
"  5 $.&.,.1.3.1.,.>.@.| F y g h h j 6 - - ",
"  m O.#.&.>.,.>.#.O.| P y t h h j k a ; ; ",
". P E ..O.@.@.O.| U F C y N h l z n z : : ",
"o S G I T E  .T G C y y g h l z n J J > W ",
"o r u u C D D D V y y t g j z n J K n ! ! ",
"+ e N V V y u y y N t g h z n K K K n ^ ^ ",
"+ 0 g B B B B B g h h l z H K K K K v / / ",
"@ < h h A A A A A z z z J K K K K K 9 _ _ ",
"$ % p z l z z z H H J K K K K K K b ( ` ` ",
"7.& 2 j z H J J J K K K K K K K b x ] [ 7.",
"7.* - 7 z K K K K K K K K K K n x ] [ [ 7.",
"7.7.- ; 8 c K K K K K K K K b ) [ =.[ 7.7.",
"7.7.7.: W Q 9 v z J K n v x ' *.=.=.7.7.7.",
"7.7.7.7.W ! / / _ _ ` ] [ *.=.=.=.7.7.7.7.",
"7.7.7.7.7.7./ _ ` ] [ [ *.*.=.7.7.7.7.7.7."
};
