/* XPM */
static char *magick[] = {
/* columns rows colors chars-per-pixel */
"21 21 131 2",
"   c #1a1a1a",
".  c #232323",
"X  c #292929",
"o  c #343434",
"O  c #3d3b3b",
"+  c #403e3d",
"@  c #434343",
"#  c #4b4b4b",
"$  c #535353",
"%  c #595959",
"&  c #6f4b43",
"*  c #625d5c",
"=  c #7a574e",
"-  c #7c5d55",
";  c #636262",
":  c #6d6d6d",
">  c #756d6b",
",  c #767676",
"<  c #81564b",
"1  c #885f56",
"2  c #856e68",
"3  c #896c65",
"4  c #837d7a",
"5  c #926d65",
"6  c #9d7971",
"7  c #b25944",
"8  c #aa604e",
"9  c #b46856",
"0  c #b66a59",
"q  c #ae786a",
"w  c #b47667",
"e  c #e45d3c",
"r  c #ea5e3b",
"t  c #e5603e",
"y  c #e9603e",
"u  c #c85e43",
"i  c #c7624a",
"p  c #cc745f",
"a  c #df6344",
"s  c #dc674b",
"d  c #df694c",
"f  c #de6c51",
"g  c #dd7056",
"h  c #de755c",
"j  c #cd7c69",
"k  c #d07a67",
"l  c #df7961",
"z  c #dc7f6b",
"x  c #e26243",
"c  c #e36648",
"v  c #e1684b",
"b  c #e96341",
"n  c #ef6947",
"m  c #ec6c4b",
"M  c #e16d51",
"N  c #e27155",
"B  c #e0735a",
"V  c #ee7253",
"C  c #ec785a",
"Z  c #f07454",
"A  c #f27a5c",
"S  c #e07b64",
"D  c #e17e68",
"F  c #b58477",
"G  c #c58476",
"H  c #d7836f",
"J  c #de836e",
"K  c #d48674",
"L  c #d68877",
"P  c #db8a77",
"I  c #da8b79",
"U  c #e1806a",
"Y  c #f18266",
"T  c #f48569",
"R  c #f2896e",
"E  c #f58d73",
"W  c #f3937a",
"Q  c #f8967e",
"!  c gray51",
"~  c #8b8b8b",
"^  c #929292",
"/  c #9b9796",
"(  c #9d9d9d",
")  c #a18680",
"_  c #b6958d",
"`  c gray65",
"'  c gray68",
"]  c #b5a8a5",
"[  c gray70",
"{  c #bab4b3",
"}  c #bbbbbb",
"|  c #c88f82",
" . c #c09f98",
".. c #d59385",
"X. c #d59b8d",
"o. c #c7a79f",
"O. c #ccaba4",
"+. c #c6bbb9",
"@. c #d0afa8",
"#. c #d0b2ac",
"$. c #f69b85",
"%. c #f89880",
"&. c #fba38c",
"*. c #f8a894",
"=. c #faac99",
"-. c #f3bdaf",
";. c #fcb7a5",
":. c #fcb8a6",
">. c #fdbcac",
",. c #dcc4bd",
"<. c #fdc2b3",
"1. c #fdc6b8",
"2. c #fdcabd",
"3. c #c4c4c4",
"4. c #cbc6c4",
"5. c #c8c8c8",
"6. c #e4cac4",
"7. c #e4d3cf",
"8. c #f5ccc1",
"9. c #fecfc3",
"0. c #ffd0c5",
"q. c #fed5cb",
"w. c #ffd8ce",
"e. c #fedbd1",
"r. c #ffe0d9",
"t. c #ffe6e0",
"y. c #ffe9e3",
"u. c #ffeeea",
"i. c #fff0ec",
"p. c white",
"a. c None",
/* pixels */
"a.a.a.a.a.                  . a.a.a.a.a.a.",
"a.a.a.          . X X X X X X X o a.a.a.a.",
"a.a.        o 4 ] ,.8.-.X.q = O o O a.a.a.",
"a.      . > +.i.y.r.q.<.*.W C 7 & @ @ a.a.",
"a.    X 4 7.i.i.i.r.e.1.=.E m e u = # $ a.",
"    . > 6.r.i.i.i.y.e.2.=.R x e x i - % a.",
"    + o.e.r.y.i.i.y.e.1.*.Y e e a s 9 ; ; ",
"  X 2 <.2.w.r.r.y.e.2.:.$.V t a s f f 5 : ",
". o F =.>.1.9.q.9.>.=.$.T r x c f g h w , ",
"X O H Q &.=.:.:.=.$.T A b t c d f S S j 4 ",
"X @ V A T E Q %.E A m y e x v g h l D z ~ ",
"X @ e r r n Z Z V b r e t c f h l D U J ^ ",
"O @ i x b b y y y t t x a f B S U U U L ( ",
"O # 8 c c c c c c v v d g B S U U U U | ` ",
"# # 1 v d M N N N g B h h D U U U U U _ ' ",
"a.$ * 0 g B B B B S l D U U U U U U ..[ a.",
"a.% ; 3 p h D l U U U U U U U U U P O.} a.",
"a.a.; : 6 k D U U U U U U U U U P O.3.a.a.",
"a.a.a., ! F G U U U U J U U U X.#.4.a.a.a.",
"a.a.a.a.! ^ / _ G L J K I X.#.4.4.a.a.a.a.",
"a.a.a.a.a.a.( ` ' [ [ 3.3.3.3.a.a.a.a.a.a."
};
