/* XPM */
static char *magick[] = {
/* columns rows colors chars-per-pixel */
"21 21 127 2",
"   c #1a1a1a",
".  c #232323",
"X  c #2b2b2b",
"o  c gray20",
"O  c #3b3b3a",
"+  c #3c413a",
"@  c #3a572c",
"#  c #427b27",
"$  c #437a28",
"%  c #444444",
"&  c #4b4b4b",
"*  c #475540",
"=  c #4a5e41",
"-  c #525d4d",
";  c #535353",
":  c #5c5c5b",
">  c #59714e",
",  c #657b59",
"<  c #646464",
"1  c gray42",
"2  c #6f7a69",
"3  c #747474",
"4  c #7e7e7e",
"5  c #2f9300",
"6  c #319401",
"7  c #359608",
"8  c #339b00",
"9  c #38960a",
"0  c #3a9c0b",
"q  c #3c9212",
"w  c #3d9910",
"e  c #35a300",
"r  c #37a900",
"t  c #3ca707",
"y  c #3ba408",
"u  c #3bad04",
"i  c #3caa08",
"p  c #419c15",
"a  c #459d1b",
"s  c #4d892f",
"d  c #4d8533",
"f  c #499426",
"g  c #4a9f20",
"h  c #518538",
"j  c #5e9e3e",
"k  c #43a513",
"l  c #44a018",
"z  c #47ac17",
"x  c #49a31e",
"c  c #49a91a",
"v  c #48b016",
"b  c #4cb41a",
"n  c #4ca123",
"m  c #4eac21",
"M  c #51a627",
"N  c #52a42b",
"B  c #56a530",
"V  c #59a634",
"C  c #5ba835",
"Z  c #5eaa38",
"A  c #52b722",
"S  c #5bb92e",
"D  c #5fbb33",
"F  c #61ab3d",
"G  c #68bb3f",
"H  c #598842",
"J  c #63904d",
"K  c #6a9754",
"L  c #6b9d53",
"P  c #7e8879",
"I  c #719161",
"U  c #7c946f",
"Y  c #65ad42",
"T  c #6aa44e",
"R  c #68ac47",
"E  c #6aae48",
"W  c #6ebe48",
"Q  c #71ab54",
"!  c #75b058",
"~  c #7bbc5c",
"^  c #76a061",
"/  c #7daa68",
"(  c #7db263",
")  c #65c03a",
"_  c #76c551",
"`  c #7ac855",
"'  c #829778",
"]  c #88a57b",
"[  c #84b26d",
"{  c #87b571",
"}  c #88b472",
"|  c #8db47a",
" . c #81c362",
".. c #87cd65",
"X. c #8cce6c",
"o. c #8ec574",
"O. c #96d479",
"+. c #828282",
"@. c #8b8b8b",
"#. c #90938e",
"$. c #959595",
"%. c #9c9c9c",
"&. c #8ba180",
"*. c #99b18d",
"=. c #a6be9a",
"-. c #a3a3a3",
";. c #ababab",
":. c #b1beaa",
">. c #b3b3b3",
",. c #b7bab5",
"<. c #bbbbbb",
"1. c #a6da8d",
"2. c #a8db8f",
"3. c #aadb93",
"4. c #b1df9b",
"5. c #b5c2ae",
"6. c #b7d9a8",
"7. c #bae2a6",
"8. c #bfe4af",
"9. c #c1e5af",
"0. c #c2e6b1",
"q. c #cbe9bc",
"w. c #c3c3c3",
"e. c #c4c8c2",
"r. c #cacaca",
"t. c white",
"y. c None",
/* pixels */
"y.y.y.y.y.                    y.y.y.y.y.y.",
"y.y.y.                      . X X y.y.y.y.",
"y.y.              . X X X X X X o O y.y.y.",
"y.          . - U | o.~ j # @ O O O % y.y.",
"y.        + ' 6.0.7.1.X.W c 0 $ * & & & y.",
"        + ] 8.q.9.1.X._ G c 8 p s - ; ; y.",
"      X I 3.0.4...G A b z k 8 w n H : : < ",
"    . =  .3.3.` b u r r e y 8 0 n C , < < ",
"  . o d _ O.` b u r r e e 8 8 8 a C K 3 3 ",
". X O q D ` S u r r e r 8 8 8 5 p V T 4 4 ",
"X o + w i S v r r e e 8 8 8 5 6 p C R @.@.",
"X o % l i e y e e e 8 8 6 6 5 6 p C R $.$.",
"O O & f k y 8 e 8 8 8 5 6 5 5 0 n F Q %.%.",
"O % & h m k 0 8 8 8 5 5 5 5 6 p V Y / ;.;.",
"% & ; > B M l 9 8 5 5 5 5 7 w N Z E *.>.;.",
"y.; : < J Z N x w 9 6 7 9 p N Z Y [ ,.<.y.",
"y.: < < 2 L Y C N g a g g V Z Y ( :.w.<.y.",
"y.y.< 1 3 P I R Y Z C C F R E } 5.r.w.y.y.",
"y.y.y.3 P +.#.&./ Q E E ! } =.w.r.r.y.y.y.",
"y.y.y.y.+.#.%.-.;.;.,.<.w.r.r.r.r.y.y.y.y.",
"y.y.y.y.y.y.%.-.;.,.<.w.w.r.r.y.y.y.y.y.y."
};
