/* XPM */
static char * step_orange_click_xpm[] = {
"21 21 140 2",
"  	c None",
". 	c #525266",
"+ 	c #58586E",
"@ 	c #6D6D89",
"# 	c #767693",
"$ 	c #6E6E89",
"% 	c #5F5F76",
"& 	c #535368",
"* 	c #55556A",
"= 	c #72728E",
"- 	c #9F9FC7",
"; 	c #B6B6E4",
"> 	c #C0C0F1",
", 	c #C4C4F5",
"' 	c #BFBFEE",
") 	c #B1B1DD",
"! 	c #9A9AC1",
"~ 	c #7F7F9F",
"{ 	c #737390",
"] 	c #8F8FB2",
"^ 	c #B9B9E7",
"/ 	c #C8C8FA",
"( 	c #CCCCFF",
"_ 	c #C6BEDE",
": 	c #CAB6BD",
"< 	c #CBCBFE",
"[ 	c #C6C6F7",
"} 	c #B5B5E2",
"| 	c #9090B4",
"1 	c #BEBEED",
"2 	c #CACAFD",
"3 	c #9A7A5D",
"4 	c #CC9960",
"5 	c #C8C8F9",
"6 	c #BBBBE9",
"7 	c #ABABD5",
"8 	c #A7A7D1",
"9 	c #7B7B9A",
"0 	c #BABAE9",
"a 	c #C5BEE0",
"b 	c #CBCBFC",
"c 	c #ADA1B1",
"d 	c #855000",
"e 	c #DB9840",
"f 	c #C2C2F2",
"g 	c #BCBCEB",
"h 	c #59596F",
"i 	c #B89579",
"j 	c #8E6125",
"k 	c #8F7560",
"l 	c #968178",
"m 	c #755325",
"n 	c #A66400",
"o 	c #D98B1D",
"p 	c #CCC7F0",
"q 	c #CDCDFF",
"r 	c #757592",
"s 	c #CDC7ED",
"t 	c #C98D3F",
"u 	c #B56D00",
"v 	c #A56300",
"w 	c #B26B00",
"x 	c #D58000",
"y 	c #DD8400",
"z 	c #C08A47",
"A 	c #B99982",
"B 	c #C8B0B0",
"C 	c #CFC6E7",
"D 	c #D1D1FF",
"E 	c #8B8BAD",
"F 	c #CCC4E6",
"G 	c #C88831",
"H 	c #ED8E00",
"I 	c #FA9600",
"J 	c #FF9E0D",
"K 	c #FFA319",
"L 	c #FFA928",
"M 	c #FAB249",
"N 	c #DBC4C5",
"O 	c #D4D4FF",
"P 	c #D6D6FF",
"Q 	c #5B5B71",
"R 	c #C9C9FC",
"S 	c #AE865B",
"T 	c #FF9B06",
"U 	c #FFA41B",
"V 	c #FFB74C",
"W 	c #FACA87",
"X 	c #E8CFC1",
"Y 	c #D2CCF0",
"Z 	c #CFCFFF",
"` 	c #D9D9FF",
" .	c #DADAFF",
"..	c #686881",
"+.	c #9C9CC3",
"@.	c #BEB2C8",
"#.	c #BB7103",
"$.	c #FFA51E",
"%.	c #FFB13C",
"&.	c #FFB13D",
"*.	c #FFC164",
"=.	c #E0CCCB",
"-.	c #DDDDFF",
";.	c #DEDEFF",
">.	c #9898BD",
",.	c #C6C6F8",
"'.	c #CCC9F5",
").	c #D29547",
"!.	c #FDB242",
"~.	c #F0CA9F",
"{.	c #EAC6A6",
"].	c #FCBA5A",
"^.	c #FFC46C",
"/.	c #DEC7C8",
"(.	c #E1E1FF",
"_.	c #9A9AC0",
":.	c #D3C3D5",
"<.	c #E8BB8C",
"[.	c #D4CBE8",
"}.	c #DCC5C6",
"|.	c #FDC572",
"1.	c #E3C8BC",
"2.	c #DFDFFF",
"3.	c #E6E6FF",
"4.	c #A2A2CA",
"5.	c #CECEFF",
"6.	c #DFC7C3",
"7.	c #E1C9C4",
"8.	c #D0D0FF",
"9.	c #DCDCFF",
"0.	c #E8E8FF",
"a.	c #E9E9FF",
"b.	c #D2D2FF",
"c.	c #EDEDFF",
"d.	c #D3D3FF",
"e.	c #E2E2FF",
"f.	c #EBEBFF",
"g.	c #EFEFFF",
"h.	c #F0F0FF",
"i.	c #E3E3FF",
"                                          ",
"              . . . . . .                 ",
"          . . . + @ # $ % & *             ",
"        . . = - ; > , ' ) ! ~ {           ",
"      . . ] ^ / ( ( _ : < [ } ! |         ",
"    . . | 1 2 ( ( ( 3 4 ( < 5 6 7 8       ",
"    . 9 0 a b ( ( c d e ( ( < 5 f g       ",
"  . h 8 / i j k l m n o p ( ( < ( q q     ",
"  . r 0 ( s t u v w x y z A B C q D D     ",
"  . E , ( ( F G y H I J K L M N q O P     ",
"  Q ! R ( ( ( S y T U V W X Y ( Z `  .    ",
"  ..+.R ( ( @.#.$.%.&.*.=.( ( ( D -.;.    ",
"  r >.,.( '.).!.~.{.].^./.( ( q P (.(.    ",
"    _., q :.<.[.( ( }.|.1.( q D 2.3.      ",
"    4.' 5.q ( ( ( ( ( 6.7.q 8.9.0.a.      ",
"      > Z 8.5.( ( ( ( ( q b.9.0.c.        ",
"        D P P d.8.5.Z b.` e.f.g.          ",
"          ` -.2.2.2.e.3.f.g.h.            ",
"              i.3.a.f.c.g.                ",
"                                          ",
"                                          "};
