/* XPM */
static char * step_red_on_xpm[] = {
"21 21 221 2",
"  	c None",
". 	c #4B62AB",
"+ 	c #435794",
"@ 	c #35426A",
"# 	c #293047",
"$ 	c #20232C",
"% 	c #1B1B1C",
"& 	c #36436C",
"* 	c #465996",
"= 	c #374570",
"- 	c #20232D",
"; 	c #1A1A1A",
"> 	c #1F1F1F",
", 	c #252525",
"' 	c #282828",
") 	c #272727",
"! 	c #262626",
"~ 	c #2C2F36",
"{ 	c #404E79",
"] 	c #333F64",
"^ 	c #1A1A1B",
"/ 	c #393838",
"( 	c #8A8381",
"_ 	c #BEADA9",
": 	c #DBBBB3",
"< 	c #D9A89C",
"[ 	c #B78275",
"} 	c #845C51",
"| 	c #433D3B",
"1 	c #383838",
"2 	c #434D6E",
"3 	c #303A5A",
"4 	c #535050",
"5 	c #B3AAA8",
"6 	c #F5E5E2",
"7 	c #FFE8E2",
"8 	c #FFD7CE",
"9 	c #FCBCAC",
"0 	c #F79A82",
"a 	c #E57357",
"b 	c #A25745",
"c 	c #594C49",
"d 	c #474747",
"e 	c #4B5470",
"f 	c #202020",
"g 	c #565251",
"h 	c #D2C0BC",
"i 	c #FFECE8",
"j 	c #FFF0EC",
"k 	c #FFEBE6",
"l 	c #FFDAD1",
"m 	c #FDB9A8",
"n 	c #F78F75",
"o 	c #ED6240",
"p 	c #E66140",
"q 	c #B8604B",
"r 	c #655956",
"s 	c #55575B",
"t 	c #4E619F",
"u 	c #1C1C1C",
"v 	c #43403F",
"w 	c #B59C97",
"x 	c #FFDDD5",
"y 	c #FFEFEB",
"z 	c #FFEEEA",
"A 	c #FFDDD4",
"B 	c #FCB5A3",
"C 	c #F58265",
"D 	c #EC603E",
"E 	c #E66445",
"F 	c #E0674A",
"G 	c #A56758",
"H 	c #636363",
"I 	c #5B6481",
"J 	c #2B3248",
"K 	c #90746D",
"L 	c #F7BDAF",
"M 	c #FFCEC2",
"N 	c #FFDCD3",
"O 	c #FFE8E3",
"P 	c #FFECE7",
"Q 	c #FEDAD0",
"R 	c #FBAB97",
"S 	c #F26C4B",
"T 	c #EB6543",
"U 	c #E6694C",
"V 	c #E16D51",
"W 	c #D67058",
"X 	c #85716C",
"Y 	c #6E717B",
"Z 	c #272A33",
"` 	c #333333",
" .	c #BF8374",
"..	c #FDA792",
"+.	c #FFB4A1",
"@.	c #FFC4B5",
"#.	c #FFD2C7",
"$.	c #FED8CF",
"%.	c #FDC5B7",
"&.	c #F78E74",
"*.	c #ED6340",
"=.	c #E96A4C",
"-.	c #E47054",
";.	c #E1745A",
">.	c #DF775F",
",.	c #A37A71",
"'.	c #7F7F81",
").	c #2A2B2C",
"!.	c #3D3D3D",
"~.	c #D7755C",
"{.	c #F88062",
"].	c #FA896C",
"^.	c #FC947A",
"/.	c #FB9F87",
"(.	c #FAA08A",
"_.	c #F7886B",
":.	c #EF6340",
"<.	c #EB6D4D",
"[.	c #E77358",
"}.	c #E4785F",
"|.	c #E27A63",
"1.	c #E17D66",
"2.	c #B68175",
"3.	c #898989",
"4.	c #353841",
"5.	c #434343",
"6.	c #CF5F43",
"7.	c #F16340",
"8.	c #F36541",
"9.	c #F46541",
"0.	c #F16542",
"a.	c #EE6948",
"b.	c #EC7152",
"c.	c #E9785D",
"d.	c #E67D65",
"e.	c #E38068",
"f.	c #E17F69",
"g.	c #E1816B",
"h.	c #B9867B",
"i.	c #8F9090",
"j.	c #3F465D",
"k.	c #B5604C",
"l.	c #EB6847",
"m.	c #ED6A4A",
"n.	c #EE6D4D",
"o.	c #EE6F50",
"p.	c #ED7254",
"q.	c #EB775C",
"r.	c #E97C63",
"s.	c #E78068",
"t.	c #E4816B",
"u.	c #E2816B",
"v.	c #B48F86",
"w.	c #95969B",
"x.	c #48557D",
"y.	c #4B4B4B",
"z.	c #8E5F54",
"A.	c #DE6C50",
"B.	c #E87054",
"C.	c #E97457",
"D.	c #E9775D",
"E.	c #E97B62",
"F.	c #E77F67",
"G.	c #E6816A",
"H.	c #E4826B",
"I.	c #DB826E",
"J.	c #B09F9B",
"K.	c #9095A7",
"L.	c #4C5F9D",
"M.	c #50535B",
"N.	c #635D5B",
"O.	c #AA6C5D",
"P.	c #E3745A",
"Q.	c #E5785F",
"R.	c #E57D65",
"S.	c #E58069",
"T.	c #E5826B",
"U.	c #E3816B",
"V.	c #C59488",
"W.	c #B3B3B3",
"X.	c #7381AD",
"Y.	c #515F8A",
"Z.	c #626262",
"`.	c #7A6F6C",
" +	c #BF7666",
".+	c #E27C65",
"++	c #E27F69",
"@+	c #CE8F80",
"#+	c #BEB6B4",
"$+	c #A6ABBA",
"%+	c #606780",
"&+	c #777777",
"*+	c #8D8280",
"=+	c #B78376",
"-+	c #DA816D",
";+	c #DC8470",
">+	c #CA998E",
",+	c #C4BBBA",
"'+	c #B2B6C1",
")+	c #5A6EAE",
"!+	c #657096",
"~+	c #88898E",
"{+	c #979797",
"]+	c #AB9995",
"^+	c #BC968D",
"/+	c #C69387",
"(+	c #C8958A",
"_+	c #C6A098",
":+	c #C4B3B0",
"<+	c #C7C7C7",
"[+	c #AFB4C3",
"}+	c #5A6FAE",
"|+	c #5669A7",
"1+	c #7D86A3",
"2+	c #9DA0AA",
"3+	c #B0B1B3",
"4+	c #B8B8B8",
"5+	c #BCBCBD",
"6+	c #BABCC0",
"7+	c #A8AEC0",
"8+	c #7C8AB7",
". . . . . . . . . . . . . . . . . . . . . ",
". . . . . . . . . . . . . . . . . . . . . ",
". . . . . . + @ # $ % $ # & * . . . . . . ",
". . . . . = - ; ; > , ' ) ! ~ { . . . . . ",
". . . . ] ^ ; / ( _ : < [ } | 1 2 . . . . ",
". . . 3 ^ > 4 5 6 7 8 9 0 a b c d e . . . ",
". . + - f g h i j k l m n o p q r s t . . ",
". . @ u v w x 7 y z A B C D E F G H I . . ",
". . J ' K L M N O P Q R S T U V W X Y . . ",
". . Z `  ...+.@.#.$.%.&.*.=.-.;.>.,.'.. . ",
". . ).!.~.{.].^./.(._.:.<.[.}.|.1.2.3.. . ",
". . 4.5.6.7.8.9.8.0.a.b.c.d.e.f.g.h.i.. . ",
". . j.d k.l.m.n.o.p.q.r.s.t.u.u.u.v.w.. . ",
". . x.y.z.A.B.C.D.E.F.G.H.u.u.u.I.J.K.. . ",
". . L.M.N.O.P.Q.R.S.T.U.u.u.u.u.V.W.X.. . ",
". . . Y.Z.`. +.+++u.u.u.u.u.u.@+#+$+. . . ",
". . . . %+&+*+=+-+u.u.u.u.;+>+,+'+)+. . . ",
". . . . . !+~+{+]+^+/+(+_+:+<+[+}+. . . . ",
". . . . . . |+1+2+3+4+5+6+7+8+. . . . . . ",
". . . . . . . . . . . . . . . . . . . . . ",
". . . . . . . . . . . . . . . . . . . . . "};
