/* XPM */
static char * step_green_click_xpm[] = {
"21 21 165 2",
"  	c None",
". 	c #3E3E52",
"+ 	c #424258",
"@ 	c #52526D",
"# 	c #585876",
"$ 	c #53536E",
"% 	c #47475F",
"& 	c #3F3F53",
"* 	c #404055",
"= 	c #565672",
"- 	c #78789F",
"; 	c #8989B6",
"> 	c #9090C0",
", 	c #9393C4",
"' 	c #8F8FBF",
") 	c #8585B1",
"! 	c #74749A",
"~ 	c #60607F",
"{ 	c #565673",
"] 	c #6B6B8F",
"^ 	c #8B8BB9",
"/ 	c #9696C8",
"( 	c #9999CC",
"_ 	c #9197BA",
": 	c #7F978A",
"< 	c #959BBE",
"[ 	c #9999CB",
"} 	c #9494C6",
"| 	c #8888B5",
"1 	c #6C6C90",
"2 	c #8E8EBE",
"3 	c #9898CA",
"4 	c #6D8176",
"5 	c #62973B",
"6 	c #939EB6",
"7 	c #8C8CBB",
"8 	c #8080AB",
"9 	c #7D7DA7",
"0 	c #5D5D7B",
"a 	c #8C8CBA",
"b 	c #9195BA",
"c 	c #9597C4",
"d 	c #868DAA",
"e 	c #3D651D",
"f 	c #5BA518",
"g 	c #939FB4",
"h 	c #9191C2",
"i 	c #8D8DBC",
"j 	c #434359",
"k 	c #406C1A",
"l 	c #5A7456",
"m 	c #6F7E7F",
"n 	c #4C683F",
"o 	c #3A7400",
"p 	c #57AD01",
"q 	c #8A9E9E",
"r 	c #9C9CCD",
"s 	c #9B9BCD",
"t 	c #585875",
"u 	c #649643",
"v 	c #468C00",
"w 	c #3F7F00",
"x 	c #408100",
"y 	c #50A000",
"z 	c #59B300",
"A 	c #639D36",
"B 	c #799180",
"C 	c #849698",
"D 	c #909CAE",
"E 	c #9A9ACD",
"F 	c #A3A3D1",
"G 	c #A4A4D1",
"H 	c #68688B",
"I 	c #959ABF",
"J 	c #659E3A",
"K 	c #56AB00",
"L 	c #5CB800",
"M 	c #62C400",
"N 	c #68CD03",
"O 	c #6ACD06",
"P 	c #6BCE09",
"Q 	c #78CE25",
"R 	c #8DB384",
"S 	c #A9A9D4",
"T 	c #ACACD6",
"U 	c #44445B",
"V 	c #9797C9",
"W 	c #76907D",
"X 	c #54A800",
"Y 	c #67CC01",
"Z 	c #73D015",
"` 	c #89D83A",
" .	c #A7E16E",
"..	c #ADCF9B",
"+.	c #A4B7AF",
"@.	c #9AA0C2",
"#.	c #9E9ECF",
"$.	c #B3B3D9",
"%.	c #B5B5DA",
"&.	c #4E4E68",
"*.	c #75759C",
"=.	c #9196BC",
"-.	c #55892D",
";.	c #87D737",
">.	c #88D739",
",.	c #9CDE5A",
"'.	c #A8CB97",
").	c #9CA1C5",
"!.	c #BBBBDD",
"~.	c #BCBCDE",
"{.	c #727298",
"].	c #9595C6",
"^.	c #769A6C",
"/.	c #70CF10",
"(.	c #A3D17F",
"_.	c #A0C195",
":.	c #94D35B",
"<.	c #A1E063",
"[.	c #9DBC99",
"}.	c #999ACA",
"|.	c #ADADD6",
"1.	c #C3C3E1",
"2.	c #73739A",
"3.	c #85B66C",
"4.	c #9BB1A7",
"5.	c #9CA2C3",
"6.	c #9A9CC8",
"7.	c #96A8AC",
"8.	c #9EDC63",
"9.	c #A2C98E",
"0.	c #999CC6",
"a.	c #BFBFDF",
"b.	c #CDCDE6",
"c.	c #7979A2",
"d.	c #9E9ECE",
"e.	c #9A9EC4",
"f.	c #98B1A0",
"g.	c #A4C39B",
"h.	c #999DC5",
"i.	c #A1A1D0",
"j.	c #B9B9DC",
"k.	c #D1D1E8",
"l.	c #D4D4E9",
"m.	c #9F9FCF",
"n.	c #A2A2D0",
"o.	c #9D9DCE",
"p.	c #A4A4D2",
"q.	c #BABADC",
"r.	c #D2D2E8",
"s.	c #DADAED",
"t.	c #A7A7D3",
"u.	c #A0A0D0",
"v.	c #A5A5D2",
"w.	c #B2B2D9",
"x.	c #C6C6E2",
"y.	c #D8D8EB",
"z.	c #DFDFEF",
"A.	c #C0C0DF",
"B.	c #C5C5E2",
"C.	c #CECEE6",
"D.	c #D7D7EB",
"E.	c #E1E1F0",
"F.	c #C8C8E3",
"G.	c #D3D3E9",
"H.	c #DBDBED",
"                                          ",
"              . . . . . .                 ",
"          . . . + @ # $ % & *             ",
"        . . = - ; > , ' ) ! ~ {           ",
"      . . ] ^ / ( _ : < [ } | ! 1         ",
"    . . 1 2 3 ( [ 4 5 6 ( [ / 7 8 9       ",
"    . 0 a b c 3 d e f g ( ( [ / h i       ",
"  . j 9 / k l m n o p q [ ( ( [ ( r s     ",
"  . t a ( u v w x y z A B C D ( E F G     ",
"  . H , ( I J K L M N O P Q R ( s S T     ",
"  U ! V ( ( W X Y Z `  ...+.@.( #.$.%.    ",
"  &.*.V ( =.-.Y ;.>.,.'.).( ( ( G !.~.    ",
"  t {.].( ^./.(._.:.<.[.}.( ( s |.1.1.    ",
"    2., s 3.4.5.6.7.8.9.0.( E G a.b.      ",
"    c.' d.e.( ( ( [ f.g.h.E i.j.k.l.      ",
"      > m.n.o.( ( ( ( ( s p.q.r.s.        ",
"        G T T t.u.d.m.v.w.x.y.z.          ",
"          $.!.A.a.A.B.C.D.z.E.            ",
"              F.b.G.y.H.z.                ",
"                                          ",
"                                          "};
