/* XPM */
static char * step_green_click_xpm[] = {
"21 21 150 2",
"  	c None",
". 	c #525266",
"+ 	c #58586E",
"@ 	c #6D6D89",
"# 	c #767693",
"$ 	c #6E6E89",
"% 	c #5F5F76",
"& 	c #535368",
"* 	c #55556A",
"= 	c #72728E",
"- 	c #9F9FC7",
"; 	c #B6B6E4",
"> 	c #C0C0F1",
", 	c #C4C4F5",
"' 	c #BFBFEE",
") 	c #B1B1DD",
"! 	c #9A9AC1",
"~ 	c #7F7F9F",
"{ 	c #737390",
"] 	c #8F8FB2",
"^ 	c #B9B9E7",
"/ 	c #C8C8FA",
"( 	c #CCCCFF",
"_ 	c #C0C5E9",
": 	c #A2BAAC",
"< 	c #C3CAEC",
"[ 	c #C6C6F7",
"} 	c #B5B5E2",
"| 	c #9090B4",
"1 	c #BEBEED",
"2 	c #CACAFD",
"3 	c #CBCCFE",
"4 	c #8A9E94",
"5 	c #70A64A",
"6 	c #C0CBE3",
"7 	c #CBCBFE",
"8 	c #C8C8F9",
"9 	c #BBBBE9",
"0 	c #ABABD5",
"a 	c #A7A7D1",
"b 	c #7B7B9A",
"c 	c #BABAE9",
"d 	c #C0C5EB",
"e 	c #C6C8F5",
"f 	c #CACBFC",
"g 	c #B1B7D4",
"h 	c #446C24",
"i 	c #61AB1E",
"j 	c #C0CCE1",
"k 	c #C2C2F2",
"l 	c #BCBCEB",
"m 	c #59596F",
"n 	c #467320",
"o 	c #708A6C",
"p 	c #8F9E9F",
"q 	c #5B784F",
"r 	c #3A7400",
"s 	c #57AD01",
"t 	c #B2C6C5",
"u 	c #CCCCFE",
"v 	c #CDCDFF",
"w 	c #757592",
"x 	c #75A654",
"y 	c #468C00",
"z 	c #3F7F00",
"A 	c #408100",
"B 	c #50A000",
"C 	c #59B300",
"D 	c #70AA44",
"E 	c #99B1A0",
"F 	c #AABCBE",
"G 	c #BBC8DA",
"H 	c #D1D1FF",
"I 	c #8B8BAD",
"J 	c #C4CAEF",
"K 	c #73AC48",
"L 	c #56AB00",
"M 	c #5CB800",
"N 	c #62C400",
"O 	c #68CD03",
"P 	c #6ACD06",
"Q 	c #6BCE09",
"R 	c #7BD128",
"S 	c #AAD0A1",
"T 	c #D4D4FF",
"U 	c #D6D6FF",
"V 	c #5B5B71",
"W 	c #C9C9FC",
"X 	c #96AF9C",
"Y 	c #54A800",
"Z 	c #67CC01",
"` 	c #73D015",
" .	c #89D83A",
"..	c #A8E26F",
"+.	c #BDDFAA",
"@.	c #C3D6CE",
"#.	c #C8CEF0",
"$.	c #CFCFFF",
"%.	c #D9D9FF",
"&.	c #DADAFF",
"*.	c #686881",
"=.	c #9C9CC3",
"-.	c #609438",
";.	c #87D737",
">.	c #88D739",
",.	c #9CDE5A",
"'.	c #BADCA9",
").	c #CACFF3",
"!.	c #DDDDFF",
"~.	c #DEDEFF",
"{.	c #9898BD",
"].	c #C6C6F8",
"^.	c #91B587",
"/.	c #70CF10",
"(.	c #AEDC8A",
"_.	c #B7D8AC",
":.	c #9AD961",
"<.	c #A1E063",
"[.	c #B7D6B2",
"}.	c #CBCCFC",
"|.	c #E1E1FF",
"1.	c #9A9AC0",
"2.	c #9DCE84",
"3.	c #BDD3C8",
"4.	c #C9CFF0",
"5.	c #CACDF9",
"6.	c #BDCFD3",
"7.	c #A0DE66",
"8.	c #B4DA9F",
"9.	c #C9CDF7",
"0.	c #DFDFFF",
"a.	c #E6E6FF",
"b.	c #A2A2CA",
"c.	c #CECEFF",
"d.	c #C8CCF4",
"e.	c #B9D2C1",
"f.	c #BAD9B1",
"g.	c #CACEF6",
"h.	c #D0D0FF",
"i.	c #DCDCFF",
"j.	c #E8E8FF",
"k.	c #E9E9FF",
"l.	c #D2D2FF",
"m.	c #EDEDFF",
"n.	c #D3D3FF",
"o.	c #E2E2FF",
"p.	c #EBEBFF",
"q.	c #EFEFFF",
"r.	c #F0F0FF",
"s.	c #E3E3FF",
"                                          ",
"              . . . . . .                 ",
"          . . . + @ # $ % & *             ",
"        . . = - ; > , ' ) ! ~ {           ",
"      . . ] ^ / ( ( _ : < [ } ! |         ",
"    . . | 1 2 ( ( 3 4 5 6 7 8 9 0 a       ",
"    . b c 2 d e f g h i j ( 7 8 k l       ",
"  . m a / ( n o p q r s t u ( 7 ( v v     ",
"  . w c ( ( x y z A B C D E F G v H H     ",
"  . I , ( ( J K L M N O P Q R S v T U     ",
"  V ! W ( ( ( X Y Z `  ...+.@.#.$.%.&.    ",
"  *.=.W ( ( d -.Z ;.>.,.'.).( ( H !.~.    ",
"  w {.].( ( ^./.(._.:.<.[.}.( v U |.|.    ",
"    1., v ( 2.3.4.5.6.7.8.9.v H 0.a.      ",
"    b.' c.v d.u ( ( u e.f.g.h.i.j.k.      ",
"      > $.h.c.( ( ( ( ( v l.i.j.m.        ",
"        H U U n.h.c.$.l.%.o.p.q.          ",
"          %.!.0.0.0.o.a.p.q.r.            ",
"              s.a.k.p.m.q.                ",
"                                          ",
"                                          "};
