/* XPM */
static char * step_red_on_xpm[] = {
"21 21 180 2",
"  	c None",
". 	c #EFEFFF",
"+ 	c #EDEDFF",
"@ 	c #EBEBFF",
"# 	c #E9E9FF",
"$ 	c #E6E6FF",
"% 	c #E3E3FF",
"& 	c #F0F0FF",
"* 	c #E2E2FF",
"= 	c #DFDFFF",
"- 	c #DDDDFF",
"; 	c #D9D9FF",
"> 	c #D2D2FF",
", 	c #CFCFFF",
"' 	c #D9C1E7",
") 	c #EA9FB4",
"! 	c #DBB7DA",
"~ 	c #D6D6FF",
"{ 	c #D1D1FF",
"] 	c #E8E8FF",
"^ 	c #DCDCFF",
"/ 	c #CDCDFF",
"( 	c #CCCCFF",
"_ 	c #CECAFB",
": 	c #EBB0C4",
"< 	c #FB676C",
"[ 	c #D0A3C8",
"} 	c #CECEFF",
"| 	c #D0D0FF",
"1 	c #C0C0F1",
"2 	c #DFD4F4",
"3 	c #D2CCF9",
"4 	c #CECBFC",
"5 	c #CCCCFE",
"6 	c #DBC1E4",
"7 	c #FC999C",
"8 	c #FC4245",
"9 	c #C797BA",
"0 	c #BFBFEE",
"a 	c #A2A2CA",
"b 	c #EBABC0",
"c 	c #EAB2C7",
"d 	c #E2B4D1",
"e 	c #DDBDDF",
"f 	c #DDC1E3",
"g 	c #F3AEBB",
"h 	c #FF8181",
"i 	c #F73638",
"j 	c #CD829E",
"k 	c #C4C4F5",
"l 	c #9A9AC0",
"m 	c #E1E1FF",
"n 	c #E690A9",
"o 	c #FF6B6B",
"p 	c #FF8282",
"q 	c #FB9195",
"r 	c #FB989C",
"s 	c #FF8383",
"t 	c #FF5E5E",
"u 	c #FF3636",
"v 	c #EE5A67",
"w 	c #DAABD0",
"x 	c #D1C4F2",
"y 	c #CDCAFC",
"z 	c #C6C6F8",
"A 	c #9898BD",
"B 	c #757592",
"C 	c #DEDEFF",
"D 	c #CDC5F6",
"E 	c #D9758B",
"F 	c #FD3333",
"G 	c #FF4E4E",
"H 	c #FF5757",
"I 	c #FF4040",
"J 	c #FF3D3D",
"K 	c #FF4747",
"L 	c #F76D75",
"M 	c #ED8FA1",
"N 	c #E795AD",
"O 	c #E08CAA",
"P 	c #9C9CC3",
"Q 	c #686881",
"R 	c #DADAFF",
"S 	c #CEC0EF",
"T 	c #E76677",
"U 	c #FF3838",
"V 	c #FF3535",
"W 	c #FF3434",
"X 	c #FC3232",
"Y 	c #F33131",
"Z 	c #E62E2E",
"` 	c #D82B2B",
" .	c #C0292A",
"..	c #B55463",
"+.	c #9A9AC1",
"@.	c #5B5B71",
"#.	c #D4D4FF",
"$.	c #DFA4C4",
"%.	c #FF5858",
"&.	c #FF3F3F",
"*.	c #FF3333",
"=.	c #B42424",
"-.	c #7D1F21",
";.	c #834856",
">.	c #A382A1",
",.	c #B8A8D1",
"'.	c #8B8BAD",
").	c #525266",
"!.	c #CEC9FA",
"~.	c #ED9BAD",
"{.	c #FF6161",
"].	c #F53131",
"^.	c #EB2F2F",
"/.	c #F03030",
"(.	c #D12A2A",
"_.	c #912A2F",
":.	c #9D7792",
"<.	c #C0B6E3",
"[.	c #CCCBFE",
"}.	c #BABAE9",
"|.	c #CBCBFE",
"1.	c #D8BCE3",
"2.	c #FD696A",
"3.	c #D62B2B",
"4.	c #9A1F1F",
"5.	c #A82121",
"6.	c #CA2828",
"7.	c #C52727",
"8.	c #9C3F49",
"9.	c #BDABD5",
"0.	c #C8C8FA",
"a.	c #A7A7D1",
"b.	c #59596F",
"c.	c #BCBCEB",
"d.	c #C2C2F2",
"e.	c #CEBCE7",
"f.	c #F4616B",
"g.	c #BB2525",
"h.	c #864C5C",
"i.	c #9F7B98",
"j.	c #A67C98",
"k.	c #AC3F47",
"l.	c #BC2525",
"m.	c #A8414B",
"n.	c #C2A9D1",
"o.	c #CACAFD",
"p.	c #7B7B9A",
"q.	c #ABABD5",
"r.	c #C6A0C5",
"s.	c #C17086",
"t.	c #B396BA",
"u.	c #C5C0EF",
"v.	c #CAC8FA",
"w.	c #CBC9FB",
"x.	c #C4A5CD",
"y.	c #AF393F",
"z.	c #992A2D",
"A.	c #BC9BC1",
"B.	c #BEBEED",
"C.	c #9090B4",
"D.	c #9C97BE",
"E.	c #B5B2DE",
"F.	c #C6C5F6",
"G.	c #C096B8",
"H.	c #8E3D48",
"I.	c #A7809D",
"J.	c #8F8EB1",
"K.	c #737390",
"L.	c #7F7F9F",
"M.	c #B1B1DD",
"N.	c #B6B6E4",
"O.	c #9F9FC7",
"P.	c #72728E",
"Q.	c #55556A",
"R.	c #535368",
"S.	c #5F5F76",
"T.	c #6E6E89",
"U.	c #767693",
"V.	c #6D6D89",
"W.	c #58586E",
"                                          ",
"              . + @ # $ %                 ",
"          & . @ $ * = = = - ;             ",
"        . @ * ; > , ' ) ! ~ ~ {           ",
"      + ] ^ > / ( _ : < [ } | , 1         ",
"    # ] 2 3 4 ( 5 6 7 8 9 ( / } 0 a       ",
"    $ = b c d e f g h i j ( ( / k l       ",
"  m m ~ n o p q r s t u v w x y z A B     ",
"  C - { D E F G H G I J K L M N O P Q     ",
"  R ; , ( S T U U V W X Y Z `  ...+.@.    ",
"  ~ #./ ( ( $.%.&.*.X Z =.-.;.>.,.'.).    ",
"  { { / ( !.~.{.].^./.(._.:.<.[.}.B ).    ",
"  / / ( |.1.2.3.4.5.6.7.8.9.( 0.a.b.).    ",
"    c.d.e.f.g.h.i.j.k.l.m.n.o.}.p.).      ",
"    a.q.r.s.t.u.v.w.x.y.z.A.B.C.).).      ",
"      C.D.E.F.|.( ( [.G.H.I.J.).).        ",
"        K.L.+.M.0 k 1 N.O.P.).).          ",
"          Q.R.S.T.U.V.W.).).).            ",
"              ).).).).).).                ",
"                                          ",
"                                          "};
