/* XPM */
static char *magick[] = {
/* columns rows colors chars-per-pixel */
"21 21 167 2",
"   c #661515",
".  c #66181a",
"X  c #6f1616",
"o  c #661c22",
"O  c #661f26",
"+  c #67252f",
"@  c #662e3e",
"#  c #662f40",
"$  c #66364b",
"%  c #66374d",
"&  c #703142",
"*  c #783649",
"=  c #7b374a",
"-  c #7f425b",
";  c #7f445f",
":  c #664360",
">  c #6c4461",
",  c #664f73",
"<  c #664f74",
"1  c #66547c",
"2  c #764663",
"3  c #7c4560",
"4  c #7a5175",
"5  c #665883",
"6  c #6e5e8c",
"7  c #6e608e",
"8  c #666090",
"9  c #666293",
"0  c #676598",
"q  c #666699",
"w  c #6a6394",
"e  c #686597",
"r  c #6c6292",
"t  c #686698",
"y  c #6b6798",
"u  c #6b6799",
"i  c #6b6899",
"p  c #6f6999",
"a  c #70608e",
"s  c #746a99",
"d  c #766b98",
"f  c #7d6e9a",
"g  c #821a1a",
"h  c #911d1d",
"j  c #981e1e",
"k  c #822e3a",
"l  c #9b2020",
"z  c #9e2020",
"x  c #a32121",
"c  c #a62121",
"v  c #af2323",
"b  c #b12323",
"n  c #b22424",
"m  c #b52424",
"M  c #b72525",
"N  c #bc2525",
"B  c #be2626",
"V  c #bf343c",
"C  c #813c52",
"Z  c #8f3d52",
"A  c #a03542",
"S  c #a73d4f",
"D  c #b43540",
"F  c #9a4054",
"G  c #864763",
"H  c #8a5477",
"J  c #944f6f",
"K  c #ba4355",
"L  c #ab5773",
"P  c #a7627f",
"I  c #b6627b",
"U  c #c02626",
"Y  c #c52727",
"T  c #c12a2c",
"R  c #c82828",
"E  c #cb363f",
"W  c #d12a2a",
"Q  c #da2c2c",
"!  c #db2c2c",
"~  c #dd2c2c",
"^  c #e22d2d",
"/  c #e42e2e",
"(  c #e52e2e",
")  c #e62e2e",
"_  c #e92e2e",
"`  c #e92f2f",
"'  c #eb2f2f",
"]  c #ed2f2f",
"[  c #e23031",
"{  c #ee3030",
"}  c #ed3538",
"|  c #f23030",
" . c #f33131",
".. c #f53131",
"X. c #f73131",
"o. c #f83232",
"O. c #f93232",
"+. c #fc3232",
"@. c #fd3333",
"#. c #fe3333",
"$. c #ff3333",
"%. c #ff3434",
"&. c #ff3535",
"*. c #ff3636",
"=. c #ff3838",
"-. c #ff3939",
";. c #ff3d3d",
":. c #d14959",
">. c #d36573",
",. c #dd727e",
"<. c #ff4040",
"1. c #ff4141",
"2. c #ff4242",
"3. c #ff4545",
"4. c #ff4949",
"5. c #ff4c4c",
"6. c #ff4d4d",
"7. c #ff5151",
"8. c #ff5252",
"9. c #ff5a5a",
"0. c #fd5d5e",
"q. c #ff5c5c",
"w. c #e8767e",
"e. c #ff6161",
"r. c #ff6363",
"t. c #ff6969",
"y. c #ff6a6a",
"u. c #ff6d6d",
"i. c #ff6f6f",
"p. c #ff7474",
"a. c #ff7575",
"s. c #ff7777",
"d. c #fb7a7c",
"f. c #ff7979",
"g. c #ff7e7e",
"h. c #8c5e84",
"j. c #806c96",
"k. c #876f97",
"l. c #836f98",
"z. c #8b7096",
"x. c #9f6383",
"c. c #927599",
"v. c #9f7b9b",
"b. c #ad738f",
"n. c #a77794",
"m. c #a47d9b",
"M. c #b5718a",
"N. c #be798f",
"B. c #a281a0",
"V. c #c78194",
"C. c #cb899a",
"Z. c #cf94a4",
"A. c #e38d97",
"S. c #e98b92",
"D. c #e9959c",
"F. c #f58b8e",
"G. c #ff8383",
"H. c #ff8989",
"J. c #fc8e8f",
"K. c #ff8d8d",
"L. c #f88f91",
"P. c #fc9091",
"I. c #ff9191",
"U. c #ff9696",
"Y. c #fd9e9f",
"T. c #e597a0",
"R. c None",
/* pixels */
"R.R.R.R.R.R.R.R.R.R.R.R.z.P R.R.R.R.R.R.R.",
"R.R.R.R.R.R.R.R.R.R.R.p A.:.R.R.R.R.R.R.R.",
"R.R.R.R.R.R.R.R.R.R.R.m.H.E e R.R.R.R.R.R.",
"R.R.R.R.R.R.R.R.R.R.f D.i.T 6 R.R.R.R.R.R.",
"R.R.R.R.R.R.R.R.R.i T.K.6.U 4 R.R.R.R.R.R.",
"R.n.v.c.l.d u R.R.B.U.y.&.R G R.R.R.R.R.R.",
"R.I g.I.I.L.S.C.Z.Y.a.4.+.^ S R.R.R.R.R.R.",
"R.R.K &.8.e.y.a.f.y.6.=.&.+.} h.u R.R.R.R.",
"R.R.r D ~ ..=.1.1.;.&.&.&.=.3.0.,.b.j.u R.",
"R.R.R.a V ) ..+.+.+.+.+.&.&.;.6.e.a.d.w.>.",
"R.R.R.R.H [ ..+.+.+.+.+.+.+.&.+.+. .Q N x ",
"R.R.R.R.R.L 3.=.+.+.+.+.+.+. .Q b g   $ < ",
"R.R.R.R.R.M.y.1.+.+.+.+.+.O.W h . # , R.R.",
"R.R.R.R.k.K.i.1.+.+.+.+.+.] b + 5 R.R.R.R.",
"R.R.R.R.V.G.8...]  ...+.+.' c > R.R.R.R.R.",
"R.R.R.d F.0.Q v z c Y ) O.' v 2 R.R.R.R.R.",
"R.R.R.N.9.N X o @ % k N ) ' M 3 R.R.R.R.R.",
"R.R.x.O.l O : 8 R.R.q Z R ~ M - R.R.R.R.R.",
"R.R.J ; 1 8 R.R.R.R.R.w F R n C R.R.R.R.R.",
"R.R.R.R.R.R.R.R.R.R.R.R.R.A j = R.R.R.R.R.",
"R.R.R.R.R.R.R.R.R.R.R.R.R.7 = & R.R.R.R.R."
};
