/* XPM */
static char *magick[] = {
/* columns rows colors chars-per-pixel */
"21 21 65 1",
"  c #dc1504",
". c #db1d0c",
"X c #dd2414",
"o c #dc2718",
"O c #dd2b1c",
"+ c #de2f20",
"@ c #dd3223",
"# c #dd3628",
"$ c #de3a2d",
"% c #df3d31",
"& c #e41503",
"* c #e41806",
"= c #e21b0a",
"- c #e91402",
"; c #e91b0a",
": c #ed210f",
"> c #e12414",
", c #ed2614",
"< c #ec2b1a",
"1 c #e03122",
"2 c #ed3222",
"3 c #ec3929",
"4 c #f23b2a",
"5 c #df4134",
"6 c #e04337",
"7 c #e04539",
"8 c #e0493d",
"9 c #ef4738",
"0 c #eb4b3d",
"q c #f24a3a",
"w c #e14d43",
"e c #f14f41",
"r c #f45648",
"t c #f25e51",
"y c #f76356",
"u c #f76558",
"i c #f46a5d",
"p c #f86255",
"a c #f8675a",
"s c #f56d61",
"d c #fa7367",
"f c #f9796e",
"g c #f77e73",
"h c #fa8277",
"j c #f98479",
"k c #fb938a",
"l c #fd9d95",
"z c #fca39b",
"x c #fda9a2",
"c c #feb1ab",
"v c #feb6b0",
"b c #febcb6",
"n c #febeb9",
"m c #ffc2bd",
"M c #fec6c1",
"N c #fec9c4",
"B c #ffcfcb",
"V c #ffd0cc",
"C c #ffd9d6",
"Z c #ffdcd9",
"A c #ffe1de",
"S c #ffe5e3",
"D c #ffe8e6",
"F c white",
"G c None",
/* pixels */
"GGGGGGGGGGGGGGGGGGGGG",
"GGGGGDSZBbzji0@GGGGGG",
"GGGGSDSZVnzjt3* GGGGG",
"GGGCASDSCMxjr, ..GGGG",
"GGMVCSDDZNxh0*=.XoGGG",
"GxvmVZDDZMxg9&=XOO@GG",
"GkzcmVZCNcks2*Xo@##GG",
"Gfjkxcnclhiq&=o+#%%GG",
"Grtdhkkjuq3;*><#555GG",
"G24qrpur4,*&=O#%5wwGG",
"G&--:<2<;&&=o@%58wwGG",
"G**;;;*;==.X+55wwwwGG",
"G.>>>>>>>oO@%8wwwwwGG",
"GoO+@@11#$%55wwwwwwGG",
"GO@#$$5558wwwwwwwwwGG",
"GG#$5858wwwwwwwwwwGGG",
"GGG558wwwwwwwwwwwGGGG",
"GGGG8wwwwwwwwwwwGGGGG",
"GGGGGwwwwwwwwwwGGGGGG",
"GGGGGGGGGGGGGGGGGGGGG",
"GGGGGGGGGGGGGGGGGGGGG"
};
