/* XPM */
static char *magick[] = {
/* columns rows colors chars-per-pixel */
"21 21 66 1",
"  c #339604",
". c #359b03",
"X c #389d06",
"o c #3a9b0a",
"O c #3e9b11",
"+ c #34a000",
"@ c #3ba10a",
"# c #419e14",
"$ c #459d1a",
"% c #499f1f",
"& c #40a70f",
"* c #43a215",
"= c #46a21a",
"- c #4aa11f",
"; c #4aab1c",
": c #4ca123",
"> c #4eac21",
", c #52a42b",
"< c #50ad23",
"1 c #55ab2a",
"2 c #57a631",
"3 c #58a632",
"4 c #5ba836",
"5 c #5ea939",
"6 c #55b028",
"7 c #59b22d",
"8 c #61ab3d",
"9 c #62b43a",
"0 c #63b93a",
"q c #66ad43",
"w c #68b941",
"e c #6ebd48",
"r c #74bf51",
"t c #79c355",
"y c #7dc45b",
"u c #82c561",
"i c #88cb67",
"p c #8dcd6e",
"a c #90cd73",
"s c #95cf78",
"d c #94d077",
"f c #96d179",
"g c #98d17d",
"h c #a2d689",
"j c #a5d88c",
"k c #acdb95",
"l c #aedd98",
"z c #b1dd9c",
"x c #b5dfa1",
"c c #b5e0a1",
"v c #b8e1a5",
"b c #bce2a9",
"n c #c0e5af",
"m c #c3e6b2",
"M c #c7e8b8",
"N c #cae9bc",
"B c #ceebc1",
"V c #d1ebc4",
"C c #d6eecb",
"Z c #daf0cf",
"A c #def1d5",
"S c #e0f2d7",
"D c #e2f3da",
"F c #eaf6e4",
"G c white",
"H c None",
/* pixels */
"HHHHHHHHHHHHHHHHHHHHH",
"HHHHHFFSCMzgy9:HHHHHH",
"HHHHFFFDCMzft1  HHHHH",
"HHHSFFFFSBcsw= ooHHHH",
"HHBCSFFFDVxswX oO$HHH",
"HvmNCSFFDVxa9.o#$%%HH",
"HjlbNCSAVbhu<X#$::,HH",
"HpfjcmMmkfy9.o#:,,3HH",
"Httidhhfy06@X#-,245HH",
"H;60etye7=@ o$:358qHH",
"H..+&;<;@..o#:35qqqHH",
"HXX@X@XX.XX#:,5qqqqHH",
"Ho##**###$$:28qqqqqHH",
"H#$:::::,,348qqqqqqHH",
"H$:,,234488qqqqqqqqHH",
"HH,,34888qqqqqqqqqHHH",
"HHH358qqqqqqqqqqqHHHH",
"HHHH8qqqqqqqqqqqHHHHH",
"HHHHHqqqqqqqqqqHHHHHH",
"HHHHHHHHHHHHHHHHHHHHH",
"HHHHHHHHHHHHHHHHHHHHH"
};
