/* XPM */
static char * orange1_xpm[] = {
"21 21 211 2",
"  	c None",
". 	c #DFDFEF",
"+ 	c #DBDBED",
"@ 	c #D8D8EB",
"# 	c #D3D3E9",
"$ 	c #CDCDE6",
"% 	c #C8C8E3",
"& 	c #E1E1F0",
"* 	c #D7D7EB",
"= 	c #CECEE6",
"- 	c #C5C5E2",
"; 	c #C5C1D6",
"> 	c #DFC1A5",
", 	c #D8B696",
"' 	c #BDBAD7",
") 	c #B3B3D9",
"! 	c #C6C6E2",
"~ 	c #B2B2D9",
"{ 	c #A5A5D2",
"] 	c #A09FCE",
"^ 	c #BAACB9",
"/ 	c #F1BA71",
"( 	c #CC9B69",
"_ 	c #ADABD2",
": 	c #ACACD6",
"< 	c #A4A4D1",
"[ 	c #DBD9E8",
"} 	c #D2D2E8",
"| 	c #BABADC",
"1 	c #A4A4D2",
"2 	c #9B9BCD",
"3 	c #9999CC",
"4 	c #A7A0C2",
"5 	c #E2BF99",
"6 	c #FFB13C",
"7 	c #B38658",
"8 	c #9F9AC1",
"9 	c #A2A2D0",
"0 	c #9F9FCF",
"a 	c #9090C0",
"b 	c #D4D4E9",
"c 	c #E0CDC0",
"d 	c #C8BCC6",
"e 	c #ABA4C5",
"f 	c #A09CC6",
"g 	c #9D9BC9",
"h 	c #9F9CC8",
"i 	c #CBB5AF",
"j 	c #FFC876",
"k 	c #FFA113",
"l 	c #AF7F4A",
"m 	c #9D95B7",
"n 	c #9E9ECE",
"o 	c #8F8FBF",
"p 	c #7979A2",
"q 	c #E0BB93",
"r 	c #F5C178",
"s 	c #DFB98F",
"t 	c #D0B29D",
"u 	c #C7B1AC",
"v 	c #CDB7AF",
"w 	c #F0C68E",
"x 	c #FFBB54",
"y 	c #FF9901",
"z 	c #C48634",
"A 	c #A696AA",
"B 	c #9393C4",
"C 	c #73739A",
"D 	c #C3C3E1",
"E 	c #BAA9B1",
"F 	c #EB9D30",
"G 	c #FFAD31",
"H 	c #FDBA58",
"I 	c #F9C06D",
"J 	c #FBC16E",
"K 	c #FFBA52",
"L 	c #FFA928",
"M 	c #FF9B06",
"N 	c #F29612",
"O 	c #CD9E70",
"P 	c #AE9FB2",
"Q 	c #A89FBC",
"R 	c #9D98BD",
"S 	c #727298",
"T 	c #585875",
"U 	c #BCBCDE",
"V 	c #BBBBDD",
"W 	c #A494A4",
"X 	c #CC8728",
"Y 	c #F89500",
"Z 	c #FFA41B",
"` 	c #FFA722",
" .	c #FFA318",
"..	c #FF9D0A",
"+.	c #FF9C07",
"@.	c #FFA012",
"#.	c #F8AA38",
"$.	c #EBB367",
"%.	c #E3B377",
"&.	c #DCA768",
"*.	c #B18457",
"=.	c #4E4E68",
"-.	c #B5B5DA",
";.	c #9E9ECF",
">.	c #AD9494",
",.	c #DE922A",
"'.	c #FF9A03",
").	c #FF9B04",
"!.	c #FE9900",
"~.	c #FA9600",
"{.	c #F29100",
"].	c #DB8300",
"^.	c #B76E00",
"/.	c #936939",
"(.	c #44445B",
"_.	c #A9A9D4",
":.	c #9C9AC7",
"<.	c #CDA37E",
"[.	c #FFA927",
"}.	c #FF9E0C",
"|.	c #FF9900",
"1.	c #A86500",
"2.	c #794A06",
"3.	c #735533",
"4.	c #7F6D6C",
"5.	c #6B6375",
"6.	c #3E3E52",
"7.	c #A3A3D1",
"8.	c #9A9ACD",
"9.	c #9999CB",
"0.	c #A89FBD",
"a.	c #EBB978",
"b.	c #FFB13D",
"c.	c #FF9D09",
"d.	c #FC9700",
"e.	c #EE8F00",
"f.	c #BB7000",
"g.	c #7C5625",
"h.	c #847479",
"i.	c #918BAC",
"j.	c #8B8AB4",
"k.	c #9C9CCD",
"l.	c #9B9AC9",
"m.	c #C3ACA8",
"n.	c #FFBC57",
"o.	c #FD9800",
"p.	c #CC7A00",
"q.	c #D17E00",
"r.	c #E78B00",
"s.	c #E58900",
"t.	c #AF6B05",
"u.	c #886D5A",
"v.	c #9793BD",
"w.	c #9696C8",
"x.	c #7D7DA7",
"y.	c #434359",
"z.	c #8D8DBC",
"A.	c #9191C2",
"B.	c #9D99C1",
"C.	c #F1B25A",
"D.	c #DD8500",
"E.	c #824E00",
"F.	c #734D1B",
"G.	c #8C5E23",
"H.	c #B96F02",
"I.	c #D47F00",
"J.	c #B46F07",
"K.	c #947662",
"L.	c #9995BE",
"M.	c #8C8CBA",
"N.	c #5D5D7B",
"O.	c #8682A5",
"P.	c #DB9C4A",
"Q.	c #C57700",
"R.	c #7E634E",
"S.	c #887A86",
"T.	c #908AAA",
"U.	c #948CAA",
"V.	c #9D7B5E",
"W.	c #C07504",
"X.	c #B76E02",
"Y.	c #9B795D",
"Z.	c #918CB1",
"`.	c #6C6C90",
" +	c #736E89",
".+	c #96765B",
"++	c #887985",
"@+	c #9391BE",
"#+	c #9998C7",
"$+	c #9C95BA",
"%+	c #AA8056",
"&+	c #906A43",
"*+	c #706B84",
"=+	c #585771",
"-+	c #61607E",
";+	c #74749A",
">+	c #8585B1",
",+	c #8E87A4",
"'+	c #8C663B",
")+	c #744F1F",
"!+	c #4D4345",
"~+	c #404055",
"{+	c #3F3F53",
"]+	c #47475F",
"^+	c #53536E",
"/+	c #585876",
"(+	c #52526D",
"_+	c #424258",
":+	c #42404F",
"<+	c #484249",
"[+	c #46414D",
"                                          ",
"              . + @ # $ %                 ",
"          & . * = - ; > , ' )             ",
"        . @ ! ~ { ] ^ / ( _ : <           ",
"      [ } | 1 2 3 4 5 6 7 8 9 0 a         ",
"    b c d e f g h i j k l m 2 n o p       ",
"    $ q r s t u v w x y z A 3 2 B C       ",
"  D D E F G H I J K L M N O P Q R S T     ",
"  U V < W X Y Z `  ...+.@.#.$.%.&.*.=.    ",
"  -.) ;.3 >.,.'.).'.y y !.~.{.].^./.(.    ",
"  : _.2 3 :.<.[.}.|.!.Y ].1.2.3.4.5.6.    ",
"  < 7.8.9.0.a.b.c.~.d.e.f.g.h.i.j.T 6.    ",
"  2 k.3 l.m.n.o.p.q.r.s.t.u.v.w.x.y.6.    ",
"    z.A.B.C.D.E.F.G.H.I.J.K.L.M.N.6.      ",
"    x.O.P.Q.R.S.T.U.V.W.X.Y.Z.`.6.6.      ",
"       +.+++@+#+3 3 $+%+1.&+*+6.6.        ",
"        =+-+;+>+o B a ,+'+)+!+6.          ",
"          ~+{+]+^+/+(+_+:+<+[+            ",
"              6.6.6.6.6.6.                ",
"                                          ",
"                                          "};
