/* XPM */
static char *magick[] = {
/* columns rows colors chars-per-pixel */
"21 21 64 1",
"  c #dc5e04",
". c #db630c",
"X c #dc6613",
"o c #de6915",
"O c #dd6b1b",
"+ c #dc6f21",
"@ c #dd7125",
"# c #dd742b",
"$ c #df7932",
"% c #e46204",
"& c #e2640a",
"* c #e96302",
"= c #ea6608",
"- c #eb6a0e",
"; c #e06710",
": c #e16a14",
"> c #ed6f14",
", c #ec731a",
"< c #e07122",
"1 c #ed7722",
"2 c #ef7823",
"3 c #ec7b29",
"4 c #e07c37",
"5 c #e07e39",
"6 c #f27d2a",
"7 c #e1803e",
"8 c #ed853a",
"9 c #f0873b",
"0 c #f4893a",
"q c #e18343",
"w c #f18b41",
"e c #f28f48",
"r c #f59148",
"t c #f29551",
"y c #f79a56",
"u c #f59c5b",
"i c #f89a55",
"p c #f89d5a",
"a c #f59f61",
"s c #faa567",
"d c #f9a96e",
"f c #f7ab73",
"g c #faae77",
"h c #f9ae78",
"j c #fab07a",
"k c #fbba8a",
"l c #fdc095",
"z c #fcc49b",
"x c #fcc7a1",
"c c #fdc9a4",
"v c #fecca9",
"b c #fed0af",
"n c #fed2b2",
"m c #fed6b9",
"M c #ffd8bd",
"N c #fedcc2",
"B c #ffe1cc",
"V c #ffe6d5",
"C c #ffe8d7",
"Z c #ffe9da",
"A c #ffeee2",
"S c #fff0e6",
"D c white",
"F c None",
/* pixels */
"FFFFFFFFFFFFFFFFFFFFF",
"FFFFFSZZBmzju8@FFFFFF",
"FFFFSSSZBmzhr3. FFFFF",
"FFFCZSSSCMche> ..FFFF",
"FFNBCASSZNchw&%.XOFFF",
"FcnMBCSSZNxf8%.oOO+FF",
"FkzvMBCVNvku1&;O+@#FF",
"Fdjkxnmblhu9%&:+##$FF",
"Frisgkkjp03-&:O#$55FF",
"F260riir6,*%&O@$$7qFF",
"F%**-22,=%%.:@$5qqqFF",
"F%&&=*=&&&&X@#57qqqFF",
"FX:::::::o+@#77qqqqFF",
"FoOO<<<<##$$7qqqqqqFF",
"FO@@##$$577qqqqqqqqFF",
"FF#$$5777qqqqqqqqqFFF",
"FFF$$7qqqqqqqqqqqFFFF",
"FFFF7qqqqqqqqqqqFFFFF",
"FFFFF7qqqqqqqqqFFFFFF",
"FFFFFFFFFFFFFFFFFFFFF",
"FFFFFFFFFFFFFFFFFFFFF"
};
