/* XPM */
static char * step_red_on_xpm[] = {
"21 21 209 2",
"  	c None",
". 	c #3E3E52",
"+ 	c #424258",
"@ 	c #52526D",
"# 	c #6A475D",
"$ 	c #74465A",
"% 	c #4D465D",
"& 	c #3F3F53",
"* 	c #404055",
"= 	c #565672",
"- 	c #78789F",
"; 	c #8989B6",
"> 	c #8D85B0",
", 	c #8B353F",
"' 	c #B7576D",
") 	c #8A82AC",
"! 	c #74749A",
"~ 	c #60607F",
"{ 	c #565673",
"] 	c #6B6B8F",
"^ 	c #8B8BB9",
"/ 	c #9696C8",
"( 	c #9997CA",
"_ 	c #83607D",
": 	c #9F2020",
"< 	c #D55769",
"[ 	c #A193C1",
"} 	c #9494C6",
"| 	c #8888B5",
"1 	c #6C6C90",
"2 	c #443C4F",
"3 	c #403D51",
"4 	c #6D6B8F",
"5 	c #8E8EBE",
"6 	c #9898CA",
"7 	c #9999CC",
"8 	c #8B7499",
"9 	c #6C2126",
"0 	c #C32727",
"a 	c #E8525D",
"b 	c #A78EBA",
"c 	c #9999CB",
"d 	c #8C8CBB",
"e 	c #8080AB",
"f 	c #7D7DA7",
"g 	c #642B34",
"h 	c #653D4D",
"i 	c #7F6381",
"j 	c #8C789E",
"k 	c #9287B3",
"l 	c #9082AC",
"m 	c #763E4E",
"n 	c #901D1D",
"o 	c #E12D2D",
"p 	c #F44449",
"q 	c #AF84AC",
"r 	c #9191C2",
"s 	c #8D8DBC",
"t 	c #87313A",
"u 	c #A42121",
"v 	c #8E1C1C",
"w 	c #7A1818",
"x 	c #722227",
"y 	c #722328",
"z 	c #8D1C1C",
"A 	c #C52727",
"B 	c #F23030",
"C 	c #F53131",
"D 	c #B56986",
"E 	c #9B92C2",
"F 	c #9C9CCD",
"G 	c #9B9BCD",
"H 	c #5B5774",
"I 	c #C74F5F",
"J 	c #E92E2E",
"K 	c #DF2D2D",
"L 	c #CF2929",
"M 	c #CC2929",
"N 	c #DA2C2C",
"O 	c #F03030",
"P 	c #F93232",
"Q 	c #EC2F2F",
"R 	c #C03439",
"S 	c #975166",
"T 	c #8F6E90",
"U 	c #9483AD",
"V 	c #9A8DBB",
"W 	c #A69BC6",
"X 	c #A4A4D1",
"Y 	c #68688B",
"Z 	c #9B8BB7",
"` 	c #DD4753",
" .	c #FC3232",
"..	c #FF3434",
"+.	c #FE3333",
"@.	c #FD3333",
"#.	c #DD2C2C",
"$.	c #BE2626",
"%.	c #AA2729",
"&.	c #AC373F",
"*.	c #C24653",
"=.	c #D3697D",
"-.	c #ACACD6",
";.	c #44445B",
">.	c #9797C9",
",.	c #A67FA6",
"'.	c #CC3C44",
").	c #FF3333",
"!.	c #FF3939",
"~.	c #FF4646",
"{.	c #FF5C5C",
"].	c #FF7171",
"^.	c #FF8383",
"/.	c #EA8E99",
"(.	c #D69CB0",
"_.	c #B5B5DA",
":.	c #4E4E68",
"<.	c #75759C",
"[.	c #9995C6",
"}.	c #9D4251",
"|.	c #D62B2B",
"1.	c #FF3838",
"2.	c #FF4E4E",
"3.	c #FF7B7B",
"4.	c #FB9D9F",
"5.	c #E4A8B5",
"6.	c #BFA1C1",
"7.	c #ADA4CD",
"8.	c #BBBBDD",
"9.	c #BCBCDE",
"0.	c #585875",
"a.	c #727298",
"b.	c #9594C5",
"c.	c #8B7195",
"d.	c #862124",
"e.	c #D12A2A",
"f.	c #FF3535",
"g.	c #FF3D3D",
"h.	c #FF6161",
"i.	c #F69296",
"j.	c #BF9EBE",
"k.	c #A69BC7",
"l.	c #ADADD6",
"m.	c #C3C3E1",
"n.	c #73739A",
"o.	c #9392C3",
"p.	c #7A3C4A",
"q.	c #B52424",
"r.	c #FF4747",
"s.	c #FF6969",
"t.	c #FF5F5F",
"u.	c #FF4949",
"v.	c #FF4545",
"w.	c #FF6464",
"x.	c #E38795",
"y.	c #9F98C8",
"z.	c #9A9ACD",
"A.	c #BFBFDF",
"B.	c #CDCDE6",
"C.	c #7979A2",
"D.	c #8C7296",
"E.	c #BB2627",
"F.	c #FF9B9B",
"G.	c #EF9CA5",
"H.	c #EA8994",
"I.	c #FE6262",
"J.	c #FF5252",
"K.	c #FF6363",
"L.	c #E27785",
"M.	c #A296C5",
"N.	c #A1A1D0",
"O.	c #B9B9DC",
"P.	c #D1D1E8",
"Q.	c #D4D4E9",
"R.	c #D33D45",
"S.	c #FC6D6F",
"T.	c #E2A4B2",
"U.	c #B7A1C6",
"V.	c #A49AC8",
"W.	c #A397C5",
"X.	c #C382A0",
"Y.	c #FA5254",
"Z.	c #E77480",
"`.	c #AD9DC7",
" +	c #BABADC",
".+	c #D2D2E8",
"++	c #DADAED",
"@+	c #D7768A",
"#+	c #B4A1C6",
"$+	c #AFABD4",
"%+	c #A7A7D3",
"&+	c #A0A0D0",
"*+	c #A09CCC",
"=+	c #C77A97",
"-+	c #FD7072",
";+	c #F48C92",
">+	c #CDBCD4",
",+	c #D8D8EB",
"'+	c #DFDFEF",
")+	c #B3B3D9",
"!+	c #C0C0DF",
"~+	c #C5C4E1",
"{+	c #E79FAB",
"]+	c #FAA3A5",
"^+	c #E4D1DE",
"/+	c #E1E1F0",
"(+	c #C8C8E3",
"_+	c #D3D3E9",
":+	c #DBDBED",
"                                          ",
"              . . . . . .                 ",
"          . . . + @ # $ % & *             ",
"        . . = - ; > , ' ) ! ~ {           ",
"      . . ] ^ / ( _ : < [ } | ! 1         ",
"    2 3 4 5 6 7 8 9 0 a b c / d e f       ",
"    g h i j k l m n o p q 7 c / r s       ",
"  . t u v w x y z A B C D E 7 c 7 F G     ",
"  . H I J K L M N O P Q R S T U V W X     ",
"  . Y Z `  ... . .+.@.C #.$.%.&.*.=.-.    ",
"  ;.! >.,.'.B @.).)...!.~.{.].^./.(._.    ",
"  :.<.>.[.}.|.P ).).1.2.3.4.5.6.7.8.9.    ",
"  0.a.b.c.d.e...!.f.g.h.i.j.k.G l.m.m.    ",
"    n.o.p.q.r.s.t.u.v.w.x.y.z.X A.B.      ",
"    C.D.E.w.F.G.H.I.J.K.L.M.N.O.P.Q.      ",
"      R.S.T.U.V.W.X.Y.s.Z.`. +.+++        ",
"      @+#+$+-.%+&+*+=+-+;+>+,+'+          ",
"          )+8.!+A.!+~+{+]+^+/+            ",
"              (+B._+,+:+'+                ",
"                                          ",
"                                          "};
