/* XPM */
static char *magick[] = {
/* columns rows colors chars-per-pixel */
"21 21 147 2",
"   c #1b1b1b",
".  c #242424",
"X  c #20232c",
"o  c #282929",
"O  c #272a33",
"+  c #2c2f36",
"@  c gray20",
"#  c #393a39",
"$  c #293047",
"%  c #2b3248",
"&  c #353841",
"*  c #303a5a",
"=  c #333f64",
"-  c #3d413b",
";  c #3f465d",
":  c #35426a",
">  c #374570",
",  c #427a26",
"<  c #454545",
"1  c #4b4b4b",
"2  c #485243",
"3  c #50514f",
"4  c #515450",
"5  c #52555b",
"6  c #565f51",
"7  c #434d6e",
"8  c #404e79",
"9  c #4b5470",
"0  c #48557d",
"q  c #4f6e40",
"w  c #5b6059",
"e  c #527541",
"r  c #626262",
"t  c #6b7467",
"y  c #6b7a64",
"u  c #6e717b",
"i  c #777777",
"p  c #435794",
"a  c #465996",
"s  c #4c5f9d",
"d  c #515f8a",
"f  c #4e619f",
"g  c #5b6481",
"h  c #4b62ab",
"j  c #5669a7",
"k  c #5a6eae",
"l  c #606780",
"z  c #657096",
"x  c #7f7f81",
"c  c #3a9e09",
"v  c #3d9414",
"b  c #37a104",
"n  c #39a505",
"m  c #3ca30b",
"M  c #478927",
"N  c #488729",
"B  c #55833f",
"V  c #529f2d",
"C  c #43a514",
"Z  c #45a318",
"A  c #43a912",
"S  c #47a918",
"D  c #4baa1d",
"F  c #4ca322",
"G  c #4ea921",
"H  c #55a62d",
"J  c #53aa27",
"K  c #54aa2b",
"L  c #58ad2f",
"P  c #57a233",
"I  c #59a733",
"U  c #5bac34",
"Y  c #5faa39",
"T  c #5cb82f",
"R  c #5fb734",
"E  c #61ad3c",
"W  c #66bc3d",
"Q  c #5a8844",
"!  c #629848",
"~  c #729b5d",
"^  c #6c8162",
"/  c #6f8d60",
"(  c #7f877b",
")  c #749b61",
"_  c #789d66",
"`  c #66ae43",
"'  c #6aab4a",
"]  c #65b041",
"[  c #6fbe48",
"{  c #70bf49",
"}  c #7eac67",
"|  c #75c44f",
" . c #7ec55b",
".. c #7381ad",
"X. c #7d86a3",
"o. c #7c8ab7",
"O. c #81867e",
"+. c #85a077",
"@. c #85ab74",
"#. c #8ba77d",
"$. c #88ad75",
"%. c #8cb07a",
"&. c #84ca62",
"*. c #8dd06e",
"=. c #94d076",
"-. c #88898b",
";. c #8f9090",
":. c #979797",
">. c #95969b",
",. c #9095a7",
"<. c #94a18d",
"1. c #96a88c",
"2. c #9aa794",
"3. c #96b289",
"4. c #9da0aa",
"5. c #a8afa4",
"6. c #a6abba",
"7. c #a8b5a2",
"8. c #afbba9",
"9. c #b1b2b3",
"0. c #b4bab1",
"q. c #b9bfb6",
"w. c #bababa",
"e. c #a8aec0",
"r. c #afb4c3",
"t. c #b2b6c1",
"y. c #babcc0",
"u. c #9ac088",
"i. c #9dd682",
"p. c #a0d686",
"a. c #a5d98c",
"s. c #abd796",
"d. c #a9da91",
"f. c #b2df9c",
"g. c #b1caa5",
"h. c #bbc8b5",
"j. c #b4dfa0",
"k. c #c0e5ae",
"l. c #c4e7b4",
"z. c #cceabe",
"x. c gray78",
"c. c #ceebc1",
"v. c #d2ecc5",
"b. c #e1eddb",
"n. c #e2f3da",
"m. c #e7f5e0",
"M. c #eaf6e4",
/* pixels */
"h h h h h h h h h h h h h h h h h h h h h ",
"h h h h h h h h h h h h h h h h h h h h h ",
"h h h h h h p = $ X   X % > a h h h h h h ",
"h h h h h > X       . o o o + > h h h h h ",
"h h h h =     # O.7.g.3.) q # # 7 h h h h ",
"h h h *     4 5.n.n.z.d. .J , 2 < 9 h h h ",
"h h p X . 4 h.n.M.n.v.a.[ n c M 6 5 s h h ",
"h h :   - 1.v.n.M.M.v.i.R c c Z Q r g h h ",
"h h % o ^ s.k.v.n.n.z.=.A m Z F V y u h h ",
"h h O @ ~ *.i.f.l.z.f.| n Z G H I / x h h ",
"h h O # P T W | &.&.W n S J I Y E ~ -.h h ",
"h h # < v n n n n n A G L Y E ` ` _ ;.h h ",
"h h ; < N C C S D G L R ` ` ` ` ' +.>.h h ",
"h h 0 1 e F G J L U E ` ` ` ` ` ' 2.,.h h ",
"h h f 5 6 Q K U Y E ` ` ` ` ` ` @.9...h h ",
"h h h d r t ! E ` ` ` ` ` ` ` } 0.6.h h h ",
"h h h h u u ( ~ ' ` ` ` ` ' %.q.t.k h h h ",
"h h h h h z -.>.1.#.@.$.3.8.x.r.k h h h h ",
"h h h h h h j X.,.9.w.w.y.e.o.h h h h h h ",
"h h h h h h h h h h h h h h h h h h h h h ",
"h h h h h h h h h h h h h h h h h h h h h "
};
