/* XPM */
static char * step_green_on_xpm[] = {
"21 21 193 2",
"  	c None",
". 	c #3E3E52",
"+ 	c #424258",
"@ 	c #52526D",
"# 	c #585876",
"$ 	c #3F691D",
"% 	c #4C6D3A",
"& 	c #3F3F53",
"* 	c #404055",
"= 	c #565672",
"- 	c #78789F",
"; 	c #8989B6",
"> 	c #9090C0",
", 	c #6E7C7F",
"' 	c #408100",
") 	c #75A163",
"! 	c #74749A",
"~ 	c #60607F",
"{ 	c #565673",
"] 	c #6B6B8F",
"^ 	c #8B8BB9",
"/ 	c #9696C8",
"( 	c #9999CC",
"_ 	c #848CA6",
": 	c #31580F",
"< 	c #51A200",
"[ 	c #82B861",
"} 	c #9494C6",
"| 	c #8888B5",
"1 	c #6C6C90",
"2 	c #3A4A36",
"3 	c #5D686F",
"4 	c #8489AA",
"5 	c #9898CA",
"6 	c #9999CB",
"7 	c #506B46",
"8 	c #376E00",
"9 	c #5DBA00",
"0 	c #7AC33E",
"a 	c #8C8CBB",
"b 	c #8080AB",
"c 	c #7D7DA7",
"d 	c #3F730F",
"e 	c #396C0A",
"f 	c #3F6820",
"g 	c #486638",
"h 	c #5E7360",
"i 	c #4E6943",
"j 	c #306100",
"k 	c #4C9800",
"l 	c #63C600",
"m 	c #69C511",
"n 	c #959CBD",
"o 	c #9191C2",
"p 	c #8D8DBC",
"q 	c #434359",
"r 	c #728C76",
"s 	c #5AAE09",
"t 	c #54A800",
"u 	c #489000",
"v 	c #3F7F00",
"w 	c #418200",
"x 	c #4E9C00",
"y 	c #5DBB00",
"z 	c #64C800",
"A 	c #5CB801",
"B 	c #6C9756",
"C 	c #9397BF",
"D 	c #9798C6",
"E 	c #9C9CCD",
"F 	c #9B9BCD",
"G 	c #585875",
"H 	c #8C8CBA",
"I 	c #84AA7D",
"J 	c #60C000",
"K 	c #5FBE00",
"L 	c #62C400",
"M 	c #65C900",
"N 	c #41770F",
"O 	c #4E723A",
"P 	c #65865C",
"Q 	c #82A27E",
"R 	c #A4A4D1",
"S 	c #68688B",
"T 	c #9393C4",
"U 	c #78A664",
"V 	c #5EBB02",
"W 	c #67CC01",
"X 	c #66CC00",
"Y 	c #66CB00",
"Z 	c #65CA00",
"` 	c #6BCE09",
" .	c #7DD427",
"..	c #8CD642",
"+.	c #ACACD6",
"@.	c #44445B",
"#.	c #9797C9",
"$.	c #9398BE",
"%.	c #54931C",
"&.	c #5CB900",
"*.	c #68CD04",
"=.	c #78D21E",
"-.	c #95DC4E",
";.	c #B0E57B",
">.	c #BBE594",
",.	c #B3CBAE",
"'.	c #B3BACE",
").	c #B5B5DA",
"!.	c #4E4E68",
"~.	c #75759C",
"{.	c #848DA5",
"].	c #3C7406",
"^.	c #57AF00",
"/.	c #6ECF0D",
"(.	c #8CD93F",
"_.	c #AFE37E",
":.	c #B0C7B0",
"<.	c #9EA3C6",
"[.	c #A4A5D0",
"}.	c #BBBBDD",
"|.	c #BCBCDE",
"1.	c #727298",
"2.	c #9595C6",
"3.	c #9798C9",
"4.	c #466434",
"5.	c #438600",
"6.	c #6ACD06",
"7.	c #81D52D",
"8.	c #7AD321",
"9.	c #6FCF0F",
"0.	c #73D015",
"a.	c #91DA48",
"b.	c #A3C792",
"c.	c #ADADD6",
"d.	c #C3C3E1",
"e.	c #73739A",
"f.	c #7F8C99",
"g.	c #428400",
"h.	c #AAE372",
"i.	c #AEE17C",
"j.	c #99DA5B",
"k.	c #7FD42A",
"l.	c #95C080",
"m.	c #9A9ACD",
"n.	c #BFBFDF",
"o.	c #CDCDE6",
"p.	c #7979A2",
"q.	c #8C8FB8",
"r.	c #629E31",
"s.	c #86D736",
"t.	c #B5DE92",
"u.	c #B2CAAE",
"v.	c #9FA7C1",
"w.	c #9AA9B3",
"x.	c #84CC44",
"y.	c #7CD325",
"z.	c #8ED943",
"A.	c #90C26F",
"B.	c #A1A1D0",
"C.	c #B9B9DC",
"D.	c #D1D1E8",
"E.	c #D4D4E9",
"F.	c #7EA279",
"G.	c #8BC958",
"H.	c #A7B6B7",
"I.	c #9E9FCD",
"J.	c #959FB9",
"K.	c #7CC73A",
"L.	c #97DC52",
"M.	c #9BCA79",
"N.	c #BABADC",
"O.	c #D2D2E8",
"P.	c #DADAED",
"Q.	c #A7A7D3",
"R.	c #A0A0D0",
"S.	c #9E9ECE",
"T.	c #9F9FCF",
"U.	c #9BAEAC",
"V.	c #9CD864",
"W.	c #B1DE89",
"X.	c #D7D8E9",
"Y.	c #DFDFEF",
"Z.	c #B3B3D9",
"`.	c #C0C0DF",
" +	c #C5C5E2",
".+	c #CECEE6",
"++	c #CAD8CC",
"@+	c #C6E2B2",
"#+	c #DCE1E5",
"$+	c #C8C8E3",
"%+	c #D3D3E9",
"&+	c #D8D8EB",
"*+	c #DBDBED",
"                                          ",
"              . . . . . .                 ",
"          . . . + @ # $ % & *             ",
"        . . = - ; > , ' ) ! ~ {           ",
"      . . ] ^ / ( _ : < [ } | ! 1         ",
"    . 2 3 4 5 ( 6 7 8 9 0 6 / a b c       ",
"    . d e f g h i j k l m n 6 / o p       ",
"  . q r s t u v w x y z A B C D 6 E F     ",
"  . G H I l z J K L M M 9 k N O P Q R     ",
"  . S T ( U V M W X Y Y Z z z `  ...+.    ",
"  @.! #.( $.%.&.Z X X *.=.-.;.>.,.'.).    ",
"  !.~.#.( {.].^.Z W W /.(._.:.<.[.}.|.    ",
"  G 1.2.3.4.5.6.7.8.9.0.a.b.( F c.d.d.    ",
"    e.T f.g.8.h.i.j.k.8.(.l.m.R n.o.      ",
"    p.q.r.s.t.u.v.w.x.y.z.A.B.C.D.E.      ",
"      F.G.H.I.( ( ( J.K.L.M.N.O.P.        ",
"        R +.+.Q.R.S.T.U.V.W.X.Y.          ",
"          Z.}.`.n.`. +.+++@+#+            ",
"              $+o.%+&+*+Y.                ",
"                                          ",
"                                          "};
