/* XPM */
static char * step_red_xpm[] = {
"21 21 195 2",
"  	c None",
". 	c #DFDFEF",
"+ 	c #DBDBED",
"@ 	c #D8D8EB",
"# 	c #D3D3E9",
"$ 	c #CDCDE6",
"% 	c #C8C8E3",
"& 	c #E1E1F0",
"* 	c #D7D7EB",
"= 	c #CECEE6",
"- 	c #C5C5E2",
"; 	c #C0C0DF",
"> 	c #BFBFDF",
", 	c #BBBBDD",
"' 	c #B3B3D9",
") 	c #C6C6E2",
"! 	c #B2B2D9",
"~ 	c #A5A5D2",
"{ 	c #9F9FCF",
"] 	c #B49CC1",
"^ 	c #D4899F",
"/ 	c #B893B7",
"( 	c #ACACD6",
"_ 	c #A4A4D1",
": 	c #DADAED",
"< 	c #D2D2E8",
"[ 	c #BABADC",
"} 	c #A4A4D2",
"| 	c #9B9BCD",
"1 	c #9999CC",
"2 	c #9D99CA",
"3 	c #D69BB0",
"4 	c #F66367",
"5 	c #AA7DA3",
"6 	c #9D9DCE",
"7 	c #A2A2D0",
"8 	c #9090C0",
"9 	c #D4D4E9",
"0 	c #D1D1E8",
"a 	c #BFB4D4",
"b 	c #A5A0CC",
"c 	c #9C99CB",
"d 	c #9A99CC",
"e 	c #B89DC1",
"f 	c #F99699",
"g 	c #F93F42",
"h 	c #A47497",
"i 	c #9E9ECE",
"j 	c #8F8FBF",
"k 	c #7979A2",
"l 	c #D797AB",
"m 	c #D49CB2",
"n 	c #C698B4",
"o 	c #BB9ABD",
"p 	c #BB9FC1",
"q 	c #E7A2AE",
"r 	c #FF8181",
"s 	c #F53536",
"t 	c #B16682",
"u 	c #9393C4",
"v 	c #73739A",
"w 	c #C3C3E1",
"x 	c #ADADD6",
"y 	c #CD7790",
"z 	c #FF6B6B",
"A 	c #FF8282",
"B 	c #F88E91",
"C 	c #F79398",
"D 	c #FF8383",
"E 	c #FF5E5E",
"F 	c #FF3636",
"G 	c #E14D5A",
"H 	c #B486AB",
"I 	c #A395C4",
"J 	c #9B98CA",
"K 	c #9595C6",
"L 	c #727298",
"M 	c #585875",
"N 	c #BCBCDE",
"O 	c #9C94C5",
"P 	c #C25E75",
"Q 	c #FD3333",
"R 	c #FF4E4E",
"S 	c #FF5757",
"T 	c #FF4040",
"U 	c #FF3D3D",
"V 	c #FE4747",
"W 	c #EF656D",
"X 	c #DB7E8F",
"Y 	c #CF7D95",
"Z 	c #C3708C",
"` 	c #75759C",
" .	c #4E4E68",
"..	c #B5B5DA",
"+.	c #9E9ECF",
"@.	c #9F91C0",
"#.	c #D65466",
"$.	c #FF3838",
"%.	c #FF3535",
"&.	c #FF3434",
"*.	c #FC3232",
"=.	c #F33131",
"-.	c #E62E2E",
";.	c #D82B2B",
">.	c #BF2829",
",.	c #A74554",
"'.	c #74749A",
").	c #44445B",
"!.	c #A9A9D4",
"~.	c #BE83A4",
"{.	c #FF5858",
"].	c #FF3F3F",
"^.	c #FF3333",
"/.	c #B42424",
"(.	c #7B1D1F",
"_.	c #743A48",
":.	c #856482",
"<.	c #8F7FA8",
"[.	c #68688B",
"}.	c #3E3E52",
"|.	c #A3A3D1",
"1.	c #9A9ACD",
"2.	c #9D98C9",
"3.	c #DB899B",
"4.	c #FF6161",
"5.	c #F53131",
"6.	c #EB2F2F",
"7.	c #F03030",
"8.	c #D12A2A",
"9.	c #8D262A",
"0.	c #815B77",
"a.	c #9389B6",
"b.	c #9998CB",
"c.	c #8C8CBA",
"d.	c #9C9CCD",
"e.	c #9999CB",
"f.	c #B094BC",
"g.	c #FB6769",
"h.	c #D62B2B",
"i.	c #9A1F1F",
"j.	c #A82121",
"k.	c #CA2828",
"l.	c #C52727",
"m.	c #92353F",
"n.	c #9481AB",
"o.	c #9696C8",
"p.	c #7D7DA7",
"q.	c #434359",
"r.	c #8D8DBC",
"s.	c #9191C2",
"t.	c #A290BC",
"u.	c #EA5661",
"v.	c #BB2525",
"w.	c #773D4C",
"x.	c #835F7B",
"y.	c #8A5F7C",
"z.	c #A3363F",
"A.	c #BC2525",
"B.	c #9E3741",
"C.	c #9A80A9",
"D.	c #9898CA",
"E.	c #5D5D7B",
"F.	c #8080AB",
"G.	c #A07AA0",
"H.	c #AA5970",
"I.	c #907396",
"J.	c #9690C0",
"K.	c #9896C8",
"L.	c #9997C9",
"M.	c #9D7EA5",
"N.	c #A93239",
"O.	c #95262A",
"P.	c #98779B",
"Q.	c #8E8EBE",
"R.	c #6C6C90",
"S.	c #777297",
"T.	c #8986B2",
"U.	c #9494C5",
"V.	c #9D7396",
"W.	c #84333D",
"X.	c #8A6380",
"Y.	c #6C6A8E",
"Z.	c #565673",
"`.	c #60607F",
" +	c #8585B1",
".+	c #8989B6",
"++	c #78789F",
"@+	c #565672",
"#+	c #404055",
"$+	c #3F3F53",
"%+	c #47475F",
"&+	c #53536E",
"*+	c #585876",
"=+	c #52526D",
"-+	c #424258",
"                                          ",
"              . + @ # $ %                 ",
"          & . * = - ; > ; , '             ",
"        . @ ) ! ~ { ] ^ / ( ( _           ",
"      : < [ } | 1 2 3 4 5 6 7 { 8         ",
"    9 0 a b c 1 d e f g h 1 | i j k       ",
"    $ > l m n o p q r s t 1 1 | u v       ",
"  w w x y z A B C D E F G H I J K L M     ",
"  N , _ O P Q R S R T U V W X Y Z `  .    ",
"  ..' +.1 @.#.$.$.%.&.*.=.-.;.>.,.'.).    ",
"  ( !.| 1 1 ~.{.].^.*.-./.(._.:.<.[.}.    ",
"  _ |.1.1 2.3.4.5.6.7.8.9.0.a.b.c.M }.    ",
"  | d.1 e.f.g.h.i.j.k.l.m.n.1 o.p.q.}.    ",
"    r.s.t.u.v.w.x.y.z.A.B.C.D.c.E.}.      ",
"    p.F.G.H.I.J.K.L.M.N.O.P.Q.R.}.}.      ",
"      R.S.T.U.e.1 1 e.V.W.X.Y.}.}.        ",
"        Z.`.'. +j u 8 .+++@+}.}.          ",
"          #+$+%+&+*+=+-+}.}.}.            ",
"              }.}.}.}.}.}.                ",
"                                          ",
"                                          "};
