/* XPM */
static char *magick[] = {
/* columns rows colors chars-per-pixel */
"21 21 131 2",
"   c #1a1a1a",
".  c gray13",
"X  c #2d2926",
"o  c #2a2a2a",
"O  c #362f28",
"+  c #333333",
"@  c #3c3c3c",
"#  c #444444",
"$  c #4b4b4b",
"%  c #59514a",
"&  c #535353",
"*  c #595959",
"=  c #635c55",
"-  c #626262",
";  c #6c6c6c",
":  c #767676",
">  c #7e7e7e",
",  c #844f20",
"<  c #9c5c27",
"1  c #9c612f",
"2  c #966235",
"3  c #916138",
"4  c #996c45",
"5  c #9a785b",
"6  c #857669",
"7  c #857f79",
"8  c #a87244",
"9  c #ae784b",
"0  c #c5681b",
"q  c #d0640d",
"w  c #db650d",
"e  c #d76916",
"r  c #dd6714",
"t  c #de6915",
"y  c #dd6c1c",
"u  c #ce7127",
"i  c #cf732a",
"p  c #cc7c3d",
"a  c #dd6f20",
"s  c #dd7125",
"d  c #de742b",
"f  c #de7932",
"g  c #e46204",
"h  c #e2640a",
"j  c #e96302",
"k  c #ea6608",
"l  c #eb6a0e",
"z  c #e06710",
"x  c #e16a14",
"c  c #ed6f14",
"v  c #ec731a",
"b  c #e07123",
"n  c #ec7724",
"m  c #ee7822",
"M  c #ec7b29",
"N  c #e07c37",
"B  c #e07e39",
"V  c #f27d2a",
"C  c #aa815e",
"Z  c #bd8d64",
"A  c #bf9776",
"S  c #dc803c",
"D  c #e1803e",
"F  c #ef8538",
"G  c #f0873b",
"H  c #f4893a",
"J  c #d68749",
"K  c #de8746",
"L  c #df8847",
"P  c #d8894c",
"I  c #d38b52",
"U  c #c08f68",
"Y  c #c6956d",
"T  c #c29a79",
"R  c #d79863",
"E  c #e18343",
"W  c #ee9149",
"Q  c #f18b41",
"!  c #f28f48",
"~  c #f59148",
"^  c #f29551",
"/  c #f79a56",
"(  c #f69c5b",
")  c #f89a55",
"_  c #f89d5a",
"`  c #f59f61",
"'  c #faa567",
"]  c #f7ab73",
"[  c #f0ae7a",
"{  c #faae77",
"}  c #f9ae78",
"|  c #fbb07a",
" . c #838383",
".. c #8f8a83",
"X. c #8b8b8b",
"o. c #9c9289",
"O. c #919191",
"+. c gray61",
"@. c #a8a39c",
"#. c #a5a5a5",
"$. c #acacac",
"%. c #b8b1ac",
"&. c #b3b3b3",
"*. c #bbbbbb",
"=. c #fbba8a",
"-. c #d9c8ba",
";. c #fdc095",
":. c #fcc49b",
">. c #e7c1a1",
",. c #fcc7a1",
"<. c #fdc9a3",
"1. c #fecca9",
"2. c #fed0af",
"3. c #fdd2b3",
"4. c #fed6b9",
"5. c #ffd8bd",
"6. c #c3c3c3",
"7. c #c8c8c8",
"8. c #e6dacf",
"9. c #f6dbc5",
"0. c #fedcc2",
"q. c #f9ddc8",
"w. c #ffe1cd",
"e. c #ffe6d5",
"r. c #f9e7d9",
"t. c #ffe8d7",
"y. c #ffe9da",
"u. c #ffeee2",
"i. c #fff0e6",
"p. c white",
"a. c None",
/* pixels */
"a.a.a.a.a.                  . a.a.a.a.a.a.",
"a.a.a.    o o.-.9.3.:.[ I 3 O o + a.a.a.a.",
"a.a.    7 8.u.y.w.4.:.| ^ M q , + @ a.a.a.",
"a.    o.r.i.i.i.t.0.:.| W v g q < # # a.a.",
"a.  6 q.t.u.i.i.y.0.<.} Q g g w e 3 $ & a.",
"  X >.5.w.y.i.i.y.0.,.] F g w r e u = * a.",
"  5 :.1.5.w.t.e.0.1.=.` n g z y a s 8 - - ",
"  R | =.:.3.4.2.=.} ` F g h t a d d p ; ; ",
". ! ) ' { =.=.} ` Q M l h z a d f f K : : ",
"o v V H ~ / _ ~ V c j g h y a N f B E > > ",
"o g j j c v m v k j g w t a N N E E K X.X.",
"+ w h k k k k k h h h t a f N D D E K O.O.",
"+ 0 x x x x x x t x a a N B E E E E I +.+.",
"@ 1 y a a a b b d d N N B D E E E E Z #.#.",
"$ % i d d d N N N N D E E E E E E J @.&.$.",
"a.& 4 f N N B D D E E E E E E E K A &.&.a.",
"a.* - 9 S B E E E E E E E E E E Y &.*.*.a.",
"a.a.- ; C J E E E E E E E E P T *.6.6.a.a.",
"a.a.a.: > ..Z I K E E K I Y %.6.7.7.a.a.a.",
"a.a.a.a. .O.+.+.#.#.$.&.*.6.6.7.7.a.a.a.a.",
"a.a.a.a.a.a.+.#.$.&.*.*.6.6.7.a.a.a.a.a.a."
};
