/* XPM */
static char * step_green_click_xpm[] = {
"21 21 221 2",
"  	c None",
". 	c #4B62AB",
"+ 	c #435794",
"@ 	c #35426A",
"# 	c #293047",
"$ 	c #20232C",
"% 	c #1B1B1C",
"& 	c #455896",
"* 	c #374570",
"= 	c #20232D",
"- 	c #1A1A1A",
"; 	c #1B1B1B",
"> 	c #202020",
", 	c #2A2C34",
"' 	c #3F4D78",
") 	c #333F64",
"! 	c #1A1A1B",
"~ 	c #1E1E1E",
"{ 	c #242424",
"] 	c #282828",
"^ 	c #2A2A2A",
"/ 	c #2C2C2C",
"( 	c #303030",
"_ 	c #343434",
": 	c #424C6D",
"< 	c #303A5A",
"[ 	c #262626",
"} 	c #6E736C",
"| 	c #A3AE9D",
"1 	c #AFC5A5",
"2 	c #9FBE90",
"3 	c #789A68",
"4 	c #4F6943",
"5 	c #3E413C",
"6 	c #3F3F3F",
"7 	c #434343",
"8 	c #4A5370",
"9 	c #3B3D3A",
"0 	c #A8B1A5",
"a 	c #E2F2DA",
"b 	c #CFEBC2",
"c 	c #B8E1A5",
"d 	c #A3D68A",
"e 	c #88C66A",
"f 	c #60AF3A",
"g 	c #3A7B1B",
"h 	c #4B5745",
"i 	c #4F4F4F",
"j 	c #525459",
"k 	c #4D619E",
"l 	c #2E2F2D",
"m 	c #9DAC95",
"n 	c #D6EECA",
"o 	c #BDE4AB",
"p 	c #98D57B",
"q 	c #7AC656",
"r 	c #6CBD46",
"s 	c #62B33B",
"t 	c #49A31E",
"u 	c #349506",
"v 	c #48832C",
"w 	c #5B5F59",
"x 	c #5E5E5E",
"y 	c #59627F",
"z 	c #272727",
"A 	c #62725B",
"B 	c #B8E1A4",
"C 	c #ACDD95",
"D 	c #82CC5F",
"E 	c #5ABA2C",
"F 	c #46AE14",
"G 	c #40A70F",
"H 	c #40A211",
"I 	c #359706",
"J 	c #369609",
"K 	c #439C1A",
"L 	c #5E7D4F",
"M 	c #6A6A6A",
"N 	c #696C76",
"O 	c #242730",
"P 	c #252525",
"Q 	c #333333",
"R 	c #749D60",
"S 	c #94D176",
"T 	c #7EC85A",
"U 	c #54B525",
"V 	c #3CA907",
"W 	c #35A300",
"X 	c #339D00",
"Y 	c #339701",
"Z 	c #319401",
"` 	c #38960A",
" .	c #489F1E",
"..	c #609547",
"+.	c #7A7A7A",
"@.	c #7B7B7D",
"#.	c #272829",
"$.	c #2F2F2F",
"%.	c #3C3C3C",
"&.	c #61A342",
"*.	c #5CB630",
"=.	c #40A90E",
"-.	c #34A200",
";.	c #329900",
">.	c #309500",
",.	c #309201",
"'.	c #39970C",
").	c #4CA123",
"!.	c #63A145",
"~.	c #878787",
"{.	c #888888",
"].	c #33363F",
"^.	c #383838",
"/.	c #444444",
"(.	c #42901C",
"_.	c #45A517",
":.	c #42A413",
"<.	c #379E05",
"[.	c #329B00",
"}.	c #329700",
"|.	c #2F9300",
"1.	c #319303",
"2.	c #3D9911",
"3.	c #52A42B",
"4.	c #6AA44C",
"5.	c #949494",
"6.	c #939494",
"7.	c #3F465C",
"8.	c #404040",
"9.	c #4A4A4A",
"0.	c #418023",
"a.	c #369906",
"b.	c #339803",
"c.	c #329701",
"d.	c #309400",
"e.	c #2F9200",
"f.	c #359508",
"g.	c #469D1C",
"h.	c #5AA834",
"i.	c #78A761",
"j.	c #A0A0A0",
"k.	c #999BA0",
"l.	c #47547D",
"m.	c #494949",
"n.	c #525252",
"o.	c #507141",
"p.	c #3F9B13",
"q.	c #3C990F",
"r.	c #37970A",
"s.	c #339405",
"t.	c #329404",
"u.	c #429B17",
"v.	c #53A42C",
"w.	c #61AB3D",
"x.	c #91AB84",
"y.	c #ADADAD",
"z.	c #9398AA",
"A.	c #4B5F9C",
"B.	c #51545B",
"C.	c #5A5A5A",
"D.	c #626560",
"E.	c #568E3B",
"F.	c #4BA022",
"G.	c #479E1E",
"H.	c #439C18",
"I.	c #409B15",
"J.	c #499F1F",
"K.	c #55A52E",
"L.	c #60AB3C",
"M.	c #80AF69",
"N.	c #B4B7B2",
"O.	c #B8B8B8",
"P.	c #7381AE",
"Q.	c #515F8A",
"R.	c #616161",
"S.	c #6B6B6B",
"T.	c #747E6F",
"U.	c #689A50",
"V.	c #5AA835",
"W.	c #59A733",
"X.	c #58A632",
"Y.	c #5EAA39",
"Z.	c #63AC3F",
"`.	c #83B26C",
" +	c #B5BEB1",
".+	c #C2C2C2",
"++	c #A6ABBB",
"@+	c #5F677F",
"#+	c #757575",
"$+	c #828282",
"%+	c #8C908B",
"&+	c #86A078",
"*+	c #7AA863",
"=+	c #73AC57",
"-+	c #75AD59",
";+	c #84B16D",
">+	c #9EB891",
",+	c #C1C5C0",
"'+	c #C9C9C9",
")+	c #B5B8C4",
"!+	c #5A6EAE",
"~+	c #647095",
"{+	c #86878C",
"]+	c #979797",
"^+	c #A2A2A2",
"/+	c #ACACAC",
"(+	c #B3B3B3",
"_+	c #BBBBBB",
":+	c #C8C8C8",
"<+	c #CACBCB",
"[+	c #B0B5C4",
"}+	c #5B6FAF",
"|+	c #5669A7",
"1+	c #7C85A3",
"2+	c #9B9EA8",
"3+	c #AFB0B2",
"4+	c #B9B9B9",
"5+	c #C0C0C1",
"6+	c #BEBFC4",
"7+	c #ABB0C2",
"8+	c #7D8BB7",
". . . . . . . . . . . . . . . . . . . . . ",
". . . . . . . . . . . . . . . . . . . . . ",
". . . . . . + @ # $ % $ # @ & . . . . . . ",
". . . . . * = - - - - - ; > , ' . . . . . ",
". . . . ) ! - - - ~ { ] ^ / ( _ : . . . . ",
". . . < ! - - [ } | 1 2 3 4 5 6 7 8 . . . ",
". . + = - - 9 0 a b c d e f g h i j k . . ",
". . @ - - l m n o p q r s t u v w x y . . ",
". . # ; z A B C D E F G H I J K L M N . . ",
". . O P Q R S T U V W X Y Z `  ...+.@.. . ",
". . #.$.%.&.r *.=.-.X ;.>.,.'.).!.~.{.. . ",
". . ].^./.(._.:.<.[.}.>.|.1.2.3.4.5.6.. . ",
". . 7.8.9.0.a.b.c.>.d.e.,.f.g.h.i.j.k.. . ",
". . l.m.n.o.p.q.r.s.1.t.J u.v.w.x.y.z.. . ",
". . A.B.C.D.E.F.G.H.I.u.J.K.L.M.N.O.P.. . ",
". . . Q.R.S.T.U.V.W.X.W.Y.Z.`. +.+++. . . ",
". . . . @+#+$+%+&+*+=+-+;+>+,+'+)+!+. . . ",
". . . . . ~+{+]+^+/+(+_+.+:+<+[+}+. . . . ",
". . . . . . |+1+2+3+4+5+6+7+8+. . . . . . ",
". . . . . . . . . . . . . . . . . . . . . ",
". . . . . . . . . . . . . . . . . . . . . "};
