/* XPM */
static char *magick[] = {
/* columns rows colors chars-per-pixel */
"21 21 142 2",
"   c #1a1a1a",
".  c #242424",
"X  c #20232c",
"o  c #272829",
"O  c #2b2b2b",
"+  c #242730",
"@  c #2a2c34",
"#  c #302e2d",
"$  c #323232",
"%  c #33363f",
"&  c #3c3b3b",
"*  c #293047",
"=  c #303a5a",
"-  c #333f64",
";  c #3f465c",
":  c #35426a",
">  c #374570",
",  c #3f4d78",
"<  c #443d3c",
"1  c #424242",
"2  c #4b4b4b",
"3  c #5f4745",
"4  c gray32",
"5  c #51545a",
"6  c gray36",
"7  c #424c6d",
"8  c #47547d",
"9  c #4a5370",
"0  c #5c647f",
"q  c #615959",
"w  c #7a4843",
"e  c #7d5d5b",
"r  c gray38",
"t  c #686060",
"y  c #6a6a6a",
"u  c #696c76",
"i  c #766d6c",
"p  c gray46",
"a  c #7a7a7b",
"s  c #435794",
"d  c #455896",
"f  c #4b5f9c",
"g  c #515f8a",
"h  c #4d619e",
"j  c #4b62ab",
"k  c #5669a7",
"l  c #5a6eae",
"z  c #647095",
"x  c #7381ae",
"c  c #7c85a3",
"v  c #7d8bb7",
"b  c #a9261b",
"n  c #ad2e23",
"m  c #ac362c",
"M  c #b6453b",
"N  c #884641",
"B  c #93544f",
"V  c #85706f",
"C  c #ba4f47",
"Z  c #bf5850",
"A  c #b16e68",
"S  c #b96760",
"D  c #b47d78",
"F  c #d71301",
"G  c #db1302",
"H  c #dd1806",
"J  c #d81a09",
"K  c #c72a1c",
"L  c #da200f",
"P  c #da2414",
"I  c #db2718",
"U  c #db2b1d",
"Y  c #dc3122",
"T  c #de392c",
"R  c #df3e32",
"E  c #e21301",
"W  c #e91200",
"Q  c #f01400",
"!  c #f61a07",
"~  c #ee210f",
"^  c #e62211",
"/  c #e22e1e",
"(  c #e92515",
")  c #f2210e",
"_  c #f72614",
"`  c #fa3625",
"'  c #fd3d2c",
"]  c #de4134",
"[  c #e04539",
"{  c #e2483c",
"}  c #ed493b",
"|  c #f44030",
" . c #cc4f45",
".. c #cf564c",
"X. c #d04d42",
"o. c #d56057",
"O. c #d76259",
"+. c #c96962",
"@. c #d2726b",
"#. c #f55546",
"$. c #fb6356",
"%. c #fc675a",
"&. c #ff6c5f",
"*. c #f2756a",
"=. c #fc8176",
"-. c #ff857b",
";. c #848484",
":. c #86878c",
">. c #888888",
",. c #928b8b",
"<. c #949595",
"1. c #9398aa",
"2. c #999ba0",
"3. c #9b9ea8",
"4. c #bf8884",
"5. c #b79895",
"6. c #b69f9d",
"7. c gray63",
"8. c #acacac",
"9. c #a6abbb",
"0. c #afb0b2",
"q. c #b6a6a5",
"w. c gray70",
"e. c #bab2b2",
"r. c #b9b9b9",
"t. c #abb0c2",
"y. c #b0b5c4",
"u. c #b5b8c4",
"i. c #bebfc4",
"p. c #cc9591",
"a. c #d39590",
"s. c #c5b2b1",
"d. c #d5a9a5",
"f. c #f9938a",
"g. c #ff9d95",
"h. c #fdaba4",
"j. c #ffb2ab",
"k. c #c2c1c1",
"l. c #c9c9c9",
"z. c #ffc7c2",
"x. c #ffceca",
"c. c #feddda",
/* pixels */
"j j j j j j j j j j j j j j j j j j j j j ",
"j j j j j j j j j j j j j j j j j j j j j ",
"j j j j j j s : * X   X * - d j j j j j j ",
"j j j j j : X             . @ , j j j j j ",
"j j j j -           . o O O @ $ 7 j j j j ",
"j j j =       . i 6.d.a.A w < 1 1 9 j j j ",
"j j s X     < q.c.z.h.f.*.{ b 3 4 5 f j j ",
"j j :     O 5.x.j.-.$.#.} / H m q 6 0 j j ",
"j j *   o i h.g.&.' _ ) ^ H J I B y u j j ",
"j j + . $ S *.%.` ! W W E F J U C a a j j ",
"j j . # < X.#.' ) Q W E G F J Y  .>.>.j j ",
"j j % & 1 K ( ( E E E G F F P T ..<.<.j j ",
"j j 7 < 2 n H H G G F F F J U R +.2.2.j j ",
"j j 8 1 4 N P L J F F H J P T { 4.8.1.j j ",
"j j f 5 6 t M Y U I ^ I / R ] @.e.r.x j j ",
"j j j g r y i ..] R R R [ X.@.s.i.t.j j j ",
"j j j j u p z ,.D +.O.O.@.p.i.l.u.l j j j ",
"j j j j j z >.7.7.8.w.r.i.l.l.t.l j j j j ",
"j j j j j j k :.3.0.r.i.i.t.1.j j j j j j ",
"j j j j j j j j j j j j j j j j j j j j j ",
"j j j j j j j j j j j j j j j j j j j j j "
};
