/* XPM */
static char * step_orange_on_xpm[] = {
"21 21 205 2",
"  	c None",
". 	c #3E3E52",
"+ 	c #45404A",
"@ 	c #7E5521",
"# 	c #594A44",
"$ 	c #424258",
"% 	c #52526D",
"& 	c #604D40",
"* 	c #B56D01",
"= 	c #605252",
"- 	c #3F3F53",
"; 	c #404055",
"> 	c #565672",
", 	c #78789F",
"' 	c #8989B6",
") 	c #8B85A7",
"! 	c #744C14",
"~ 	c #DD8400",
"{ 	c #A38C8A",
"] 	c #74749A",
"^ 	c #60607F",
"/ 	c #565673",
"( 	c #6B6B8F",
"_ 	c #8B8BB9",
": 	c #9696C8",
"< 	c #9898C9",
"[ 	c #70512A",
"} 	c #955A00",
"| 	c #F89500",
"1 	c #C69E7D",
"2 	c #9494C6",
"3 	c #8888B5",
"4 	c #6C6C90",
"5 	c #7B5015",
"6 	c #62441C",
"7 	c #6C584D",
"8 	c #827685",
"9 	c #8F87A4",
"0 	c #938EB4",
"a 	c #827071",
"b 	c #744600",
"c 	c #C57700",
"d 	c #FF9B04",
"e 	c #D79C57",
"f 	c #9999CB",
"g 	c #8C8CBB",
"h 	c #8080AB",
"i 	c #7D7DA7",
"j 	c #674F3A",
"k 	c #BB7000",
"l 	c #A66400",
"m 	c #885409",
"n 	c #764C12",
"o 	c #704A18",
"p 	c #7E4D06",
"q 	c #B26B00",
"r 	c #E98C00",
"s 	c #FC9700",
"t 	c #DE8E1D",
"u 	c #9B98C4",
"v 	c #9191C2",
"w 	c #8D8DBC",
"x 	c #434359",
"y 	c #AF8660",
"z 	c #F09104",
"A 	c #E78B00",
"B 	c #D17E00",
"C 	c #C87800",
"D 	c #D37F00",
"E 	c #F99600",
"F 	c #F79400",
"G 	c #DA8300",
"H 	c #A37236",
"I 	c #897167",
"J 	c #897C89",
"K 	c #958DAD",
"L 	c #9D99C3",
"M 	c #9B9BCD",
"N 	c #585875",
"O 	c #8C8CBA",
"P 	c #CB9660",
"Q 	c #FA9600",
"R 	c #FF9901",
"S 	c #FD9800",
"T 	c #FE9900",
"U 	c #EB8D00",
"V 	c #CA7900",
"W 	c #AA6600",
"X 	c #A56300",
"Y 	c #C07506",
"Z 	c #DA912B",
"` 	c #C1A192",
" .	c #68688B",
"..	c #9393C4",
"+.	c #9C98C2",
"@.	c #BB874D",
"#.	c #FF9900",
"$.	c #FF9D0A",
"%.	c #FFA41C",
"&.	c #FFB03A",
"*.	c #FFBF60",
"=.	c #FDC777",
"-.	c #DDBC9C",
";.	c #BAAFC1",
">.	c #44445B",
",.	c #9797C9",
"'.	c #9999CC",
").	c #968181",
"!.	c #BD7200",
"~.	c #F19000",
"{.	c #FF9E0C",
"].	c #FFAF36",
"^.	c #FFC56F",
"/.	c #FCD295",
"(.	c #E1C6AC",
"_.	c #B0A9C5",
":.	c #B3B3D9",
"<.	c #B5B5DA",
"[.	c #4E4E68",
"}.	c #75759C",
"|.	c #9692BC",
"1.	c #77511F",
"2.	c #B16B00",
"3.	c #FF9A03",
"4.	c #FFA216",
"5.	c #FFBB55",
"6.	c #E7C297",
"7.	c #ABA4C3",
"8.	c #A4A4D1",
"9.	c #BBBBDD",
"0.	c #BCBCDE",
"a.	c #727298",
"b.	c #9595C6",
"c.	c #816E6C",
"d.	c #8E5601",
"e.	c #ED8E00",
"f.	c #FFAB2E",
"g.	c #FFAE34",
"h.	c #FFA621",
"i.	c #FF9F0F",
"j.	c #FFA51E",
"k.	c #FFB94F",
"l.	c #BEA8A8",
"m.	c #ADADD6",
"n.	c #C3C3E1",
"o.	c #73739A",
"p.	c #918EB6",
"q.	c #966627",
"r.	c #FFC369",
"s.	c #FFCE85",
"t.	c #F4C37F",
"u.	c #FFB84E",
"v.	c #FFA825",
"w.	c #FFA928",
"x.	c #FFB340",
"y.	c #C1A496",
"z.	c #9A9ACD",
"A.	c #BFBFDF",
"B.	c #CDCDE6",
"C.	c #7A799F",
"D.	c #A67D55",
"E.	c #FFA113",
"F.	c #F4C584",
"G.	c #D1BBB0",
"H.	c #B5AABD",
"I.	c #9F9CC7",
"J.	c #B5A2AA",
"K.	c #EEA540",
"L.	c #FFAA2B",
"M.	c #FFB648",
"N.	c #C6A38D",
"O.	c #A1A1D0",
"P.	c #B9B9DC",
"Q.	c #D1D1E8",
"R.	c #D4D4E9",
"S.	c #DE9D4B",
"T.	c #CCB0A0",
"U.	c #A6A4CD",
"V.	c #9D9DCE",
"W.	c #B09BA3",
"X.	c #F5A634",
"Y.	c #FFBE5D",
"Z.	c #D0AD91",
"`.	c #BABADC",
" +	c #D2D2E8",
".+	c #DADAED",
"++	c #ACACD6",
"@+	c #A7A7D3",
"#+	c #A0A0D0",
"$+	c #9E9ECE",
"%+	c #9F9FCF",
"&+	c #B9A5AB",
"*+	c #FAC06B",
"=+	c #EAC699",
"-+	c #D8D8EB",
";+	c #DFDFEF",
">+	c #C0C0DF",
",+	c #C5C5E2",
"'+	c #CECEE6",
")+	c #E1D0C5",
"!+	c #EBD6C0",
"~+	c #E1E1F0",
"{+	c #C8C8E3",
"]+	c #D3D3E9",
"^+	c #DBDBED",
"                                          ",
"              . . . + @ #                 ",
"          . . . $ % & * = - ;             ",
"        . . > , ' ) ! ~ { ] ^ /           ",
"      . . ( _ : < [ } | 1 2 3 ] 4         ",
"    5 6 7 8 9 0 a b c d e f : g h i       ",
"    j k l m n o p q r s t u f : v w       ",
"  . x y z A B C D r E F G H I J K L M     ",
"  . N O P Q R s Q S T Q U V W X Y Z `     ",
"  .  ...+.@.A s #.#.#.R $.%.&.*.=.-.;.    ",
"  >.] ,.'.).!.~.#.#.#.{.].^./.(._.:.<.    ",
"  [.}.,.|.1.2.~.3.R R 4.5.6.7.'.8.9.0.    ",
"  N a.b.c.d.e.f.g.h.i.j.k.l.'.M m.n.n.    ",
"    o.p.q.T r.s.t.u.v.w.x.y.z.8.A.B.      ",
"    C.D.E.F.G.H.I.J.K.L.M.N.O.P.Q.R.      ",
"      S.T.U.V.'.'.'.W.X.Y.Z.`. +.+        ",
"        8.++++@+#+$+%+&+*+=+-+;+          ",
"          :.9.>+A.>+,+'+)+!+~+            ",
"              {+B.]+-+^+;+                ",
"                                          ",
"                                          "};
