/* XPM */
static char *magick[] = {
/* columns rows colors chars-per-pixel */
"21 21 133 2",
"   c #1b1b1b",
".  c #242424",
"X  c #20232c",
"o  c #282929",
"O  c #272a33",
"+  c #2c2f36",
"@  c gray20",
"#  c #393a39",
"$  c #293047",
"%  c #2b3248",
"&  c #353841",
"*  c #303a5a",
"=  c #333f64",
"-  c #3e423b",
";  c #3f465d",
":  c #35426a",
">  c #374570",
",  c #41433f",
"<  c #454545",
"1  c #4b4b4b",
"2  c #4f5649",
"3  c #525350",
"4  c #52555b",
"5  c #434d6e",
"6  c #404e79",
"7  c #4b5470",
"8  c #48557d",
"9  c #5c6256",
"0  c #5e625b",
"q  c #667951",
"w  c #626262",
"e  c #6e717b",
"r  c #71776c",
"t  c #777777",
"y  c #435794",
"u  c #465996",
"i  c #4c5f9d",
"p  c #515f8a",
"a  c #4e619f",
"s  c #5b6481",
"d  c #4b62ab",
"f  c #5669a7",
"g  c #5a6eae",
"h  c #606780",
"j  c #657096",
"k  c #7f7f81",
"l  c #6a8f45",
"z  c #6b8254",
"x  c #779558",
"c  c #7c9a5d",
"v  c #76806c",
"b  c #7b896d",
"n  c #76a04b",
"m  c #7bb443",
"M  c #7381ad",
"N  c #7d86a3",
"B  c #7c8ab7",
"V  c #859971",
"C  c #8cbc5a",
"Z  c #8aad66",
"A  c #8fa975",
"S  c #91aa76",
"D  c #93ac7b",
"F  c #92b074",
"G  c #84c93e",
"H  c #83c442",
"J  c #86c24a",
"K  c #86ca40",
"L  c #89c64c",
"P  c #88cd42",
"I  c #8ccb4b",
"U  c #8bc351",
"Y  c #8fc954",
"T  c #8ed04b",
"R  c #91c55b",
"E  c #90cb54",
"W  c #94cb5c",
"Q  c #97c764",
"!  c #99c36d",
"~  c #98cb64",
"^  c #9ac96a",
"/  c #9bc570",
"(  c #9ed963",
")  c #a4dc6b",
"_  c #a9dc74",
"`  c #aee27a",
"'  c #858980",
"]  c #88898b",
"[  c #8f9090",
"{  c #979797",
"}  c #95969b",
"|  c #9095a7",
" . c #99aa86",
".. c #9da695",
"X. c #9da0aa",
"o. c #a3af97",
"O. c #a3ab9b",
"+. c #a0b28d",
"@. c #a0bb83",
"#. c #a3bb8a",
"$. c #aabc98",
"%. c #a6abba",
"&. c #acb1a8",
"*. c #b1baa9",
"=. c #b1b2b3",
"-. c #b8bcb4",
";. c #bababa",
":. c #a8aec0",
">. c #afb4c3",
",. c #b2b6c1",
"<. c #babcc0",
"1. c #b5cd9c",
"2. c #b1df82",
"3. c #b8c0b0",
"4. c #bec2ba",
"5. c #b6e487",
"6. c #b7e48a",
"7. c #bfe797",
"8. c #bde892",
"9. c #c5cebc",
"0. c #c3d3b3",
"q. c #c7eba2",
"w. c #cbebab",
"e. c #d3efb7",
"r. c #d2f0b5",
"t. c gray78",
"y. c #dbf3c4",
"u. c #e1f5ce",
"i. c #e4f6d2",
"p. c #e9f2e2",
"a. c #edf9e2",
"s. c #f0fae6",
"d. c #f2faea",
/* pixels */
"d d d d d d d d d d d d d d d d d d d d d ",
"d d d d d d d d d d d d d d d d d d d d d ",
"d d d d d d y = $ X   X % > u d d d d d d ",
"d d d d d > X       . o o o + > d d d d d ",
"d d d d =     # ] *.0.1.A q - # 7 d d d d ",
"d d d *     3 &.p.i.u.w.2.Y l 2 1 7 d d d ",
"d d y X . 3 9.d.d.s.u.w._ G H n 4 4 d d d ",
"d d :   - o.i.a.d.d.i.q.( G G C x w s d d ",
"d d % . b w.y.i.a.d.u.7.I P L U C r e d d ",
"d d O # F 8.q.r.y.u.e._ G I Y R Q V b d d ",
"d d o # C ) ) ` 6.6.) P I Y R Q Q A ] d d ",
"d d # < m G G P P P P E W ~ ^ ^ ^ D [ d d ",
"d d ; < n I I T I E W ~ ^ ^ ^ ^ ^  .} d d ",
"d d 8 1 z U Y Y W ~ ) ^ ^ ^ ^ ^ ! o.| d d ",
"d d a 4 0 c R R ~ ^ ^ ^ ^ ^ ^ ^ #.=.M d d ",
"d d d p w r Z ~ ^ ^ ^ ^ ^ ^ ^ @.-.%.d d d ",
"d d d d s t ' S ! ^ ^ ^ ^ / 1.-.%.g d d d ",
"d d d d d j ] { ..+.#.#.$.-.t.>.g d d d d ",
"d d d d d d f N X.=.;.;.;.:.B d d d d d d ",
"d d d d d d d d d d d d d d d d d d d d d ",
"d d d d d d d d d d d d d d d d d d d d d "
};
