/* XPM */
static char *magick[] = {
/* columns rows colors chars-per-pixel */
"21 21 133 2",
"   c #1a1a1a",
".  c #232323",
"X  c #2a2a2a",
"o  c #333333",
"O  c #3a3a3a",
"+  c #434343",
"@  c #4b4b4b",
"#  c #54504d",
"$  c #525252",
"%  c #585756",
"&  c #5a5a5a",
"*  c #6c5e4f",
"=  c #706355",
"-  c #636262",
";  c #6c6761",
":  c #6b6865",
">  c #6c6c6c",
",  c #767676",
"<  c #7c7c7c",
"1  c #ab7433",
"2  c #b0793a",
"3  c #b87b36",
"4  c #806342",
"5  c #86735c",
"6  c #897156",
"7  c #8f775d",
"8  c #82766a",
"9  c #867c71",
"0  c #ad7b43",
"q  c #d77505",
"w  c #d97604",
"e  c #d87608",
"r  c #dd7804",
"t  c #dc7b0c",
"y  c #d57f1c",
"u  c #da7d14",
"i  c #da7f19",
"p  c #e37c04",
"a  c #e57e09",
"s  c #ea7f05",
"d  c #8c8175",
"f  c #b1824e",
"g  c #b88243",
"h  c #b68855",
"j  c #b78b5b",
"k  c #bd8a51",
"l  c #a69077",
"z  c #bf9261",
"x  c #b79772",
"c  c #db811b",
"v  c #cc822c",
"b  c #dc8522",
"n  c #dd8728",
"m  c #df8826",
"M  c #dd892c",
"N  c #d78d3b",
"B  c #de8e35",
"V  c #df9038",
"C  c #e6800c",
"Z  c #ed8105",
"A  c #eb820b",
"S  c #e28314",
"D  c #e3851a",
"F  c #eb8817",
"G  c #ed8a1b",
"H  c #f38405",
"J  c #f1870c",
"K  c #f68a0d",
"L  c #f88705",
"P  c #fb8805",
"I  c #fd8b09",
"U  c #f28f1c",
"Y  c #fa931d",
"T  c #e68c23",
"R  c #e38e2a",
"E  c #e18e31",
"W  c #ee9025",
"Q  c #e0923b",
"!  c #fd9823",
"~  c #fa9d32",
"^  c #fca037",
"/  c #ffa53e",
"(  c #cd904e",
")  c #d49349",
"_  c #dd9649",
"`  c #d19552",
"'  c #d59855",
"]  c #d19a5d",
"[  c #c69763",
"{  c #ca9b67",
"}  c #cc9c69",
"|  c #e19542",
" . c #e09849",
".. c #f5a243",
"X. c #f5a74c",
"o. c #fcae54",
"O. c #ffb156",
"+. c #feb259",
"@. c #ecac62",
"#. c #eeb87b",
"$. c #f2b167",
"%. c #feba6b",
"&. c #faba70",
"*. c #ffc27c",
"=. c #838383",
"-. c gray54",
";. c #918d8a",
":. c #919191",
">. c gray61",
",. c #b6a18a",
"<. c #b9a084",
"1. c #a5a5a5",
"2. c #acacac",
"3. c #b5b2ad",
"4. c #beb0a1",
"5. c #b3b3b3",
"6. c #bbbbbb",
"7. c #c5aa8b",
"8. c #dab385",
"9. c #c2b4a4",
"0. c #c3bfba",
"q. c #feca8f",
"w. c #ffcc91",
"e. c #fcce98",
"r. c #ffd29d",
"t. c #f2d1ac",
"y. c #ffd7a8",
"u. c #fedbb2",
"i. c #ffe1bd",
"p. c #c4c4c4",
"a. c #c8c8c8",
"s. c white",
"d. c None",
/* pixels */
"d.d.d.d.d.                  . d.d.d.d.d.d.",
"d.d.d.          . . X X X X . X o d.d.d.d.",
"d.d.        X + @ @ $ # @ @ + o o O d.d.d.",
"d.      . + % 9 <.8.#.@.) 3 = # @ O @ d.d.",
"d.    X @ ; ,.t.u.y.w.&.X.G c 1 * $ @ $ d.",
"    . + ; 7.u.i.u.w.%.o.^ W p S 3 = % % d.",
"    O $ x e.u.r.%./ ! Y U G p S R 0 - - - ",
"  X @ 5 @.w.q.O.! I P L Z Z p t b N 7 > > ",
". o $ g O.*.+.Y I P L H Z p p r c V h , , ",
"X O % c ^ +.^ I P L L Z s p r e c V ( < =.",
"X + & S K ~ Y L L H Z s p p r e c V _ =.-.",
"X + & D Z H J Z Z Z s p p r r e c V _ :.:.",
"O @ & v F A A Z Z p p p r w w e M Q ` >.>.",
"O @ & 2 T F C p p p r r w w q c B | [ 1.1.",
"@ @ & 5 B R D C r e q q q e u M | _ <.2.2.",
"d.% & : f Q M c c e e e t c M V | { 3.6.d.",
"d.& - > , k Q Q B b c b M B | | ] 4.6.6.d.",
"d.d.- > < d h _ | Q V Q | |  .} 9.p.p.d.d.",
"d.d.d., < -.;.l j ` _ _ ' } 7.0.a.p.d.d.d.",
"d.d.d.d.=.:.>.>.1.1.2.5.5.p.a.a.a.d.d.d.d.",
"d.d.d.d.d.d.>.1.2.5.6.6.p.p.a.d.d.d.d.d.d."
};
