/* XPM */
static char *magick[] = {
/* columns rows colors chars-per-pixel */
"21 21 133 2",
"   c #1a1a1a",
".  c #232323",
"X  c #2b2b2b",
"o  c gray20",
"O  c #3b3b3a",
"+  c #443b3a",
"@  c #6b312c",
"#  c #444444",
"$  c #4b4b4b",
"%  c #5f4340",
"&  c #535353",
"*  c #5b5b5b",
"=  c #644e4d",
"-  c #6b4441",
";  c #615c5b",
":  c #646464",
">  c gray42",
",  c #747474",
"<  c #7e7e7e",
"1  c #a23127",
"2  c #a23228",
"3  c #aa3d33",
"4  c #b4392f",
"5  c #a94038",
"6  c #82524e",
"7  c #8c5d59",
"8  c #826b69",
"9  c #907a79",
"0  c #aa4942",
"q  c #b1544d",
"w  c #b75b54",
"e  c #a86761",
"r  c #a6746f",
"t  c #a57b78",
"y  c #bf6761",
"u  c #d71301",
"i  c #da1301",
"p  c #db1a09",
"a  c #cf2112",
"s  c #da2414",
"d  c #db2a1b",
"f  c #c83126",
"g  c #dd2f20",
"h  c #dd3224",
"j  c #dd3729",
"k  c #de392c",
"l  c #de3e32",
"z  c #e31200",
"x  c #e61a09",
"c  c #eb1300",
"v  c #ec1b09",
"b  c #f31400",
"n  c #f21a07",
"m  c #f31b08",
"M  c #fa1400",
"N  c #fd1905",
"B  c #e1200f",
"V  c #e22414",
"C  c #e22718",
"Z  c #e62e1f",
"A  c #ec2413",
"S  c #ed2b1a",
"D  c #f22917",
"F  c #f92816",
"G  c #fc2c1a",
"H  c #e33527",
"J  c #e13b2e",
"K  c #ee3221",
"L  c #fc3322",
"P  c #fa3e2e",
"I  c #cc4a3e",
"U  c #dd4135",
"Y  c #e04337",
"T  c #e04438",
"R  c #e0483d",
"E  c #f54e3f",
"W  c #fc4333",
"Q  c #ff493a",
"!  c #cf574e",
"~  c #c15a53",
"^  c #de5147",
"/  c #df5349",
"(  c #d65d54",
")  c #db6058",
"_  c #ca6e68",
"`  c #d96a63",
"'  c #d3746d",
"]  c #d77771",
"[  c #d57872",
"{  c #e14d42",
"}  c #e15147",
"|  c #e05248",
" . c #f55648",
".. c #fe5e50",
"X. c #e8685c",
"o. c #fd6154",
"O. c #ea7d74",
"+. c #f06d62",
"@. c #ff7165",
"#. c #fc786c",
"$. c #ba807b",
"%. c #d1817a",
"&. c #ff8479",
"*. c #828282",
"=. c #8b8b8b",
"-. c #968f8e",
";. c #959595",
":. c #9c9c9c",
">. c #b18380",
",. c #a3a3a3",
"<. c #ababab",
"1. c #b3b3b3",
"2. c #bdb5b5",
"3. c #bbbbbb",
"4. c #c2908d",
"5. c #cf9e9a",
"6. c #c8acaa",
"7. c #ccb0ae",
"8. c #fe968d",
"9. c #ff988f",
"0. c #fd9b93",
"q. c #ffa39b",
"w. c #f0ada8",
"e. c #ffada6",
"r. c #fdb4af",
"t. c #ffb7b1",
"y. c #ffb8b2",
"u. c #ffc1bc",
"i. c #c3c3c3",
"p. c #cbc3c2",
"a. c #cacaca",
"s. c white",
"d. c None",
/* pixels */
"d.d.d.d.d.                    d.d.d.d.d.d.",
"d.d.d.                      . X X d.d.d.d.",
"d.d.              . X X X X X X o O d.d.d.",
"d.          . = r %.O.X.I 1 @ O O O # d.d.",
"d.        + t w.y.e.8.#. .S p 1 % $ $ $ d.",
"        + $.r.u.r.8.#.o.E K z V 4 = & & d.",
"      X e 0.y.q.@.Q L G D A z V h 0 ; * ; ",
"    . - +.0.9.o.G N M b b c z p h U 7 : > ",
"  . o 3 ..&.o.G N M M b c z z i d U w , , ",
". X O a W o.P N M M b c c z i i s Y ! < < ",
". o # B m P F M b b b c z z i i s l ^ =.=.",
"X O # s m b n b b c c z z i i i d Y ^ ;.;.",
"o O $ f A v c c z z z z z u u p h R ( :.:.",
"# # $ 3 Z C x z z z z i u u i s l { _ <.<.",
"# $ & 6 l H C p z u u i u i s j T / 4.1.<.",
"d.& * : q U k g p p u p p s j U { ' 2.3.d.",
"d.* * > 8 ~ { U k g d d j l R { ` 6.i.3.d.",
"d.d.: > , 9 y ^ { U U T R { | ] 6.a.i.d.d.",
"d.d.d., < =.-.>._ ( | | ( [ 5.p.a.a.d.d.d.",
"d.d.d.d.*.=.;.,.<.1.1.3.i.a.a.a.a.d.d.d.d.",
"d.d.d.d.d.d.:.,.<.1.3.i.i.a.a.d.d.d.d.d.d."
};
