/* XPM */
static char * step_orange_click_xpm[] = {
"21 21 157 2",
"  	c None",
". 	c #3E3E52",
"+ 	c #424258",
"@ 	c #52526D",
"# 	c #585876",
"$ 	c #53536E",
"% 	c #47475F",
"& 	c #3F3F53",
"* 	c #404055",
"= 	c #565672",
"- 	c #78789F",
"; 	c #8989B6",
"> 	c #9090C0",
", 	c #9393C4",
"' 	c #8F8FBF",
") 	c #8585B1",
"! 	c #74749A",
"~ 	c #60607F",
"{ 	c #565673",
"] 	c #6B6B8F",
"^ 	c #8B8BB9",
"/ 	c #9696C8",
"( 	c #9999CC",
"_ 	c #9A91B2",
": 	c #A49097",
"< 	c #9999CB",
"[ 	c #9494C6",
"} 	c #8888B5",
"| 	c #6C6C90",
"1 	c #8E8EBE",
"2 	c #9898CA",
"3 	c #87674A",
"4 	c #B9864D",
"5 	c #8C8CBB",
"6 	c #8080AB",
"7 	c #7D7DA7",
"8 	c #5D5D7B",
"9 	c #8C8CBA",
"0 	c #9991B3",
"a 	c #9998CA",
"b 	c #897D8E",
"c 	c #855000",
"d 	c #CE8B33",
"e 	c #9191C2",
"f 	c #8D8DBC",
"g 	c #434359",
"h 	c #9F7D61",
"i 	c #875A1E",
"j 	c #7C624D",
"k 	c #7E6960",
"l 	c #6D4B1E",
"m 	c #A66400",
"n 	c #D38617",
"o 	c #9C97C0",
"p 	c #9C9CCD",
"q 	c #9B9BCD",
"r 	c #585875",
"s 	c #9E98BE",
"t 	c #BC8032",
"u 	c #B56D00",
"v 	c #A56300",
"w 	c #B26B00",
"x 	c #D58000",
"y 	c #DD8400",
"z 	c #B27C39",
"A 	c #9F7F68",
"B 	c #A48D8D",
"C 	c #A198B9",
"D 	c #9A9ACD",
"E 	c #A3A3D1",
"F 	c #A4A4D1",
"G 	c #68688B",
"H 	c #9E96B8",
"I 	c #BE7E27",
"J 	c #ED8E00",
"K 	c #FA9600",
"L 	c #FF9E0D",
"M 	c #FFA319",
"N 	c #FFA928",
"O 	c #F6AD44",
"P 	c #B79FA0",
"Q 	c #A9A9D4",
"R 	c #ACACD6",
"S 	c #44445B",
"T 	c #9797C9",
"U 	c #9C7449",
"V 	c #FF9B06",
"W 	c #FFA41B",
"X 	c #FFB74C",
"Y 	c #F5C583",
"Z 	c #D1B8AA",
"` 	c #A6A0C3",
" .	c #9E9ECF",
"..	c #B3B3D9",
"+.	c #B5B5DA",
"@.	c #4E4E68",
"#.	c #75759C",
"$.	c #968AA0",
"%.	c #BB7002",
"&.	c #FFA51E",
"*.	c #FFB13C",
"=.	c #FFB13D",
"-.	c #FFC164",
";.	c #C2ADAC",
">.	c #BBBBDD",
",.	c #BCBCDE",
"'.	c #727298",
").	c #9595C6",
"!.	c #9B98C4",
"~.	c #C48739",
"{.	c #FCB041",
"].	c #E2BB91",
"^.	c #D5B191",
"/.	c #F9B757",
"(.	c #FFC46C",
"_.	c #BDA6A6",
":.	c #ADADD6",
"<.	c #C3C3E1",
"[.	c #73739A",
"}.	c #A998AA",
"|.	c #D2A476",
"1.	c #AAA1BE",
"2.	c #B8A2A3",
"3.	c #FCC470",
"4.	c #C7ACA0",
"5.	c #BFBFDF",
"6.	c #CDCDE6",
"7.	c #7979A2",
"8.	c #9E9ECE",
"9.	c #BEA6A3",
"0.	c #C3ABA6",
"a.	c #A1A1D0",
"b.	c #B9B9DC",
"c.	c #D1D1E8",
"d.	c #D4D4E9",
"e.	c #9F9FCF",
"f.	c #A2A2D0",
"g.	c #9D9DCE",
"h.	c #A4A4D2",
"i.	c #BABADC",
"j.	c #D2D2E8",
"k.	c #DADAED",
"l.	c #A7A7D3",
"m.	c #A0A0D0",
"n.	c #A5A5D2",
"o.	c #B2B2D9",
"p.	c #C6C6E2",
"q.	c #D8D8EB",
"r.	c #DFDFEF",
"s.	c #C0C0DF",
"t.	c #C5C5E2",
"u.	c #CECEE6",
"v.	c #D7D7EB",
"w.	c #E1E1F0",
"x.	c #C8C8E3",
"y.	c #D3D3E9",
"z.	c #DBDBED",
"                                          ",
"              . . . . . .                 ",
"          . . . + @ # $ % & *             ",
"        . . = - ; > , ' ) ! ~ {           ",
"      . . ] ^ / ( ( _ : < [ } ! |         ",
"    . . | 1 2 ( ( ( 3 4 ( < / 5 6 7       ",
"    . 8 9 0 a ( ( b c d ( ( < / e f       ",
"  . g 7 / h i j k l m n o ( ( < ( p q     ",
"  . r 9 ( s t u v w x y z A B C D E F     ",
"  . G , ( ( H I y J K L M N O P q Q R     ",
"  S ! T ( ( ( U y V W X Y Z ` (  ...+.    ",
"  @.#.T ( ( $.%.&.*.=.-.;.( ( ( F >.,.    ",
"  r '.).( !.~.{.].^./.(._.( ( q :.<.<.    ",
"    [., q }.|.1.( ( 2.3.4.( D F 5.6.      ",
"    7.' 8.q ( ( ( ( ( 9.0.D a.b.c.d.      ",
"      > e.f.g.( ( ( ( ( q h.i.j.k.        ",
"        F R R l.m.8.e.n.o.p.q.r.          ",
"          ..>.s.5.s.t.u.v.r.w.            ",
"              x.6.y.q.z.r.                ",
"                                          ",
"                                          "};
