/* XPM */
static char *magick[] = {
/* columns rows colors chars-per-pixel */
"21 21 171 2",
"   c #664008",
".  c #66420f",
"X  c #6a4000",
"o  c #6f4300",
"O  c #6c440d",
"+  c #664416",
"@  c #6b4922",
"#  c #664d3b",
"$  c #755129",
"%  c #7e5c3c",
"&  c #665043",
"*  c #665350",
"=  c #66565e",
"-  c #66575f",
";  c #695450",
":  c #745d58",
">  c #665862",
",  c #7d604e",
"<  c #7a6055",
"1  c #6d627a",
"2  c #74677d",
"3  c #786671",
"4  c #7e6b74",
"5  c #666187",
"6  c #666289",
"7  c #66638c",
"8  c #69658c",
"9  c #6c668c",
"0  c #666492",
"q  c #676697",
"w  c #666699",
"e  c #686797",
"r  c #6b6894",
"t  c #6d6b97",
"y  c #6e6b97",
"u  c #696898",
"i  c #6a6899",
"p  c #6b6998",
"a  c #706787",
"s  c #726886",
"d  c #746881",
"f  c #746983",
"g  c #787295",
"h  c #7c7392",
"j  c #7c7493",
"k  c #8d5500",
"l  c #8e590e",
"z  c #945a04",
"x  c #9f6000",
"c  c #9b6726",
"v  c #976b3f",
"b  c #a56300",
"n  c #a66400",
"m  c #a7670a",
"M  c #ad6800",
"N  c #a96d1a",
"B  c #b26b00",
"V  c #b56d00",
"C  c #b66d00",
"Z  c #b6710e",
"A  c #be7200",
"S  c #bf7814",
"D  c #806047",
"F  c #826657",
"G  c #947059",
"H  c #977d7a",
"J  c #c07300",
"K  c #c07301",
"L  c #c37500",
"P  c #c77800",
"I  c #c57808",
"U  c #ca7900",
"Y  c #cd7b00",
"T  c #cf7c00",
"R  c #c97b09",
"E  c #d47f00",
"W  c #88798b",
"Q  c #837994",
"!  c #b28050",
"~  c #a1867d",
"^  c #ad907f",
"/  c #ba8e62",
"(  c #d88200",
")  c #d98200",
"_  c #da8300",
"`  c #da8404",
"'  c #dd8500",
"]  c #d28414",
"[  c #dd8d1d",
"{  c #cd8420",
"}  c #c28338",
"|  c #e28800",
" . c #e58900",
".. c #e78b00",
"X. c #e98c00",
"o. c #eb8d00",
"O. c #ec8e00",
"+. c #ee8f00",
"@. c #f09000",
"#. c #f29100",
"$. c #f39200",
"%. c #f59300",
"&. c #f79400",
"*. c #f89500",
"=. c #f99600",
"-. c #fa9600",
";. c #fc9700",
":. c #fd9800",
">. c #fe9900",
",. c #ff9900",
"<. c #ff9901",
"1. c #ff9a03",
"2. c #ff9b04",
"3. c #ff9b06",
"4. c #ff9e0c",
"5. c #ff9e0d",
"6. c #ff9f0f",
"7. c #ffa012",
"8. c #ffa113",
"9. c #ffa216",
"0. c #ffa41b",
"q. c #ffa621",
"w. c #ffa722",
"e. c #ffa927",
"r. c #ffa928",
"t. c #ffaa2a",
"y. c #f5a938",
"u. c #ffac30",
"i. c #ffad33",
"p. c #ffae34",
"a. c #ffb23f",
"s. c #cb8e45",
"d. c #d3984e",
"f. c #d5a161",
"g. c #d7af7e",
"h. c #ffb545",
"j. c #ffb648",
"k. c #ffb74b",
"l. c #ffb84e",
"z. c #ffbb55",
"x. c #ffbd5a",
"c. c #e2ab62",
"v. c #eebc77",
"b. c #efbd77",
"n. c #ffc061",
"m. c #ffc163",
"M. c #fdc167",
"N. c #ffc267",
"B. c #ffc46c",
"V. c #f4c27b",
"C. c #fdc672",
"Z. c #ffc772",
"A. c #ffc773",
"S. c #ffc876",
"D. c #ffc978",
"F. c #ffcc7f",
"G. c #94838e",
"H. c #9b888d",
"J. c #918496",
"K. c #928494",
"L. c #998993",
"P. c #9b8d99",
"I. c #a68f8a",
"U. c #a7918d",
"Y. c #b79a88",
"T. c #bc9e86",
"R. c #ceae8f",
"E. c #d1ad86",
"W. c #ddba90",
"Q. c #e0ba8b",
"!. c None",
/* pixels */
"!.!.!.!.!.!.!.!.!.!.!.!.h H !.!.!.!.!.!.!.",
"!.!.!.!.!.!.!.!.!.!.!.!.E.s.!.!.!.!.!.!.!.",
"!.!.!.!.!.!.!.!.!.!.!.K.C.{ q !.!.!.!.!.!.",
"!.!.!.!.!.!.!.!.!.!.i Q.z.I 9 !.!.!.!.!.!.",
"!.!.!.!.!.!.!.!.!.i R.D.t.K 3 !.!.!.!.!.!.",
"!.H.Q t !.!.!.!.!.K.F.l.3.L F !.!.!.!.!.!.",
"!.f.C.V.g.T.U.L.P.W.m.q.;.( v !.!.!.!.!.!.",
"!.e [ q.j.x.N.C.S.m.i.4.>.$.] r !.!.!.!.!.",
"!.!.4 S X.4.q.t.e.0.4.>.>.3.4.d.^ G.j i !.",
"!.!.!.f R ..&.>.>.>.>.>.>.3.7.i.z.N.N.c./ ",
"!.!.!.!.G ` $.>.>.>.>.>.>.>.>.4.9.7.&.E B ",
"!.!.!.!.!.! 4.3.>.>.>.>.>.>.*...U x o + = ",
"!.!.!.!.!.~ a.7.>.>.>.>.>.*.' b o . & 0 !.",
"!.!.!.!.g v.l.7.>.>.>.>.>.$.C O = 7 !.!.!.",
"!.!.!.!.Y.B.p.3.*.*.;.>.>.X.n ; !.!.!.!.!.",
"!.!.!.t v.h.%.T A L ( +.*.X.M : !.!.!.!.!.",
"!.!.!.I.j.( k X   @ z P +.X.B < !.!.!.!.!.",
"!.!.W y.K   # > 5 !.1 c E | C , !.!.!.!.!.",
"!.!.} m * 6 !.!.!.!.!.a Z Y C D !.!.!.!.!.",
"!.!.s 8 !.!.!.!.!.!.!.!.f N n % !.!.!.!.!.",
"!.!.!.!.!.!.!.!.!.!.!.!.!.2 l $ !.!.!.!.!."
};
