/* XPM */
static char * verte1_xpm[] = {
"21 21 207 2",
"  	c None",
". 	c #DFDFEF",
"+ 	c #DBDBED",
"@ 	c #D8D8EB",
"# 	c #D3D3E9",
"$ 	c #CDCDE6",
"% 	c #C8C8E3",
"& 	c #E1E1F0",
"* 	c #D7D7EB",
"= 	c #CECEE6",
"- 	c #C5C5E2",
"; 	c #BEC5D3",
"> 	c #AED88E",
", 	c #9BC87D",
"' 	c #BBBBDD",
") 	c #B3B3D9",
"! 	c #C6C6E2",
"~ 	c #B2B2D9",
"{ 	c #A5A5D2",
"] 	c #A0A1CC",
"^ 	c #ABC2AD",
"/ 	c #95DC4F",
"( 	c #81AA6F",
"_ 	c #ACACD6",
": 	c #A4A4D1",
"< 	c #D8DAE8",
"[ 	c #D2D2E8",
"} 	c #BABADC",
"| 	c #A4A4D2",
"1 	c #9B9BCD",
"2 	c #9999CC",
"3 	c #A2B0B9",
"4 	c #B1E183",
"5 	c #78D21E",
"6 	c #6D955D",
"7 	c #9C9DCB",
"8 	c #A2A2D0",
"9 	c #9F9FCF",
"0 	c #9090C0",
"a 	c #D4D4E9",
"b 	c #C1DBB3",
"c 	c #B7CAB9",
"d 	c #A3B2B7",
"e 	c #9CA4BF",
"f 	c #9B9EC7",
"g 	c #9FA6C3",
"h 	c #B2D29F",
"i 	c #A3E066",
"j 	c #66CB00",
"k 	c #659744",
"l 	c #959AC0",
"m 	c #9E9ECE",
"n 	c #8F8FBF",
"o 	c #7979A2",
"p 	c #9BD26E",
"q 	c #A2E064",
"r 	c #A6DA78",
"s 	c #A6D287",
"t 	c #ABCB9E",
"u 	c #B2D39E",
"v 	c #ACE375",
"w 	c #8BD83D",
"x 	c #65CA00",
"y 	c #64AE23",
"z 	c #8EA0A6",
"A 	c #9393C4",
"B 	c #73739A",
"C 	c #C3C3E1",
"D 	c #A2AFB9",
"E 	c #6BB925",
"F 	c #74D118",
"G 	c #8CD93F",
"H 	c #97DC52",
"I 	c #87D737",
"J 	c #73D016",
"K 	c #6ACD06",
"L 	c #6BCC08",
"M 	c #83C057",
"N 	c #97AFA2",
"O 	c #9BA7B7",
"P 	c #959BBC",
"Q 	c #727298",
"R 	c #585875",
"S 	c #BCBCDE",
"T 	c #899C9E",
"U 	c #5EAB17",
"V 	c #62C400",
"W 	c #6ECF0D",
"X 	c #71D012",
"Y 	c #6CCE0A",
"Z 	c #68CD03",
"` 	c #68CD04",
" .	c #70CF10",
"..	c #7DD427",
"+.	c #8FD44D",
"@.	c #96CF66",
"#.	c #8AC45D",
"$.	c #6AA93B",
"%.	c #4E4E68",
"&.	c #B5B5DA",
"*.	c #9E9ECF",
"=.	c #88A490",
"-.	c #69C510",
";.	c #67CC01",
">.	c #66CC00",
",.	c #64C800",
"'.	c #5FBE00",
").	c #58AF00",
"!.	c #4E9C00",
"~.	c #418300",
"{.	c #4D772F",
"].	c #44445B",
"^.	c #A9A9D4",
"/.	c #9999CB",
"(.	c #8BCD51",
"_.	c #7AD321",
":.	c #63C600",
"<.	c #56AD00",
"[.	c #3F7F00",
"}.	c #30580A",
"|.	c #4A673C",
"1.	c #6E7C80",
"2.	c #63677F",
"3.	c #3E3E52",
"4.	c #A3A3D1",
"5.	c #9A9ACD",
"6.	c #999ACB",
"7.	c #9DACB4",
"8.	c #A0DC65",
"9.	c #7ED428",
"0.	c #65C900",
"a.	c #60C000",
"b.	c #499200",
"c.	c #406525",
"d.	c #75828A",
"e.	c #8E92B7",
"f.	c #8C8CBA",
"g.	c #9C9CCD",
"h.	c #9A9CC8",
"i.	c #A7D386",
"j.	c #8ED942",
"k.	c #5AB400",
"l.	c #4C9800",
"m.	c #52A500",
"n.	c #5DBA00",
"o.	c #5CB900",
"p.	c #458B00",
"q.	c #627B62",
"r.	c #9899CA",
"s.	c #9696C8",
"t.	c #7D7DA7",
"u.	c #434359",
"v.	c #8D8DBC",
"w.	c #9191C2",
"x.	c #99ADA7",
"y.	c #81D52D",
"z.	c #4A9400",
"A.	c #2D5902",
"B.	c #42622E",
"C.	c #4D782E",
"D.	c #4B9600",
"E.	c #56AB00",
"F.	c #478E00",
"G.	c #678463",
"H.	c #9898CA",
"I.	c #5D5D7B",
"J.	c #808A9C",
"K.	c #6BC515",
"L.	c #4D8619",
"M.	c #5A7158",
"N.	c #748289",
"O.	c #9294BE",
"P.	c #8E93B5",
"Q.	c #668D54",
"R.	c #4D9A00",
"S.	c #478F00",
"T.	c #65875B",
"U.	c #8D8EBC",
"V.	c #6C6C90",
"W.	c #6A7C74",
"X.	c #608153",
"Y.	c #7A8297",
"Z.	c #9192C0",
"`.	c #9798C8",
" +	c #9499BE",
".+	c #699552",
"++	c #438600",
"@+	c #5A7D49",
"#+	c #6A6C89",
"$+	c #565772",
"%+	c #60607F",
"&+	c #74749A",
"*+	c #8585B1",
"=+	c #848AA7",
"-+	c #4E7A2F",
";+	c #3E6320",
">+	c #3E454A",
",+	c #404055",
"'+	c #3F3F53",
")+	c #47475F",
"!+	c #53536E",
"~+	c #585876",
"{+	c #52526D",
"]+	c #424258",
"^+	c #3F454B",
"/+	c #3E4A42",
"(+	c #3F444C",
"                                          ",
"              . + @ # $ %                 ",
"          & . * = - ; > , ' )             ",
"        . @ ! ~ { ] ^ / ( _ _ :           ",
"      < [ } | 1 2 3 4 5 6 7 8 9 0         ",
"    a b c d e f g h i j k l 1 m n o       ",
"    $ p q r s t u v w x y z 2 1 A B       ",
"  C C D E F G H H I J K L M N O P Q R     ",
"  S ' : T U V W X Y Z `  ...+.@.#.$.%.    ",
"  &.) *.2 =.-.` ;.>.j j ,.'.).!.~.{.].    ",
"  _ ^.1 2 /.(._.` >.>.:.<.[.}.|.1.2.3.    ",
"  : 4.5.6.7.8.9.,.:.0.a.b.c.d.e.f.R 3.    ",
"  1 g.2 h.i.j.k.l.m.n.o.p.q.r.s.t.u.3.    ",
"    v.w.x.y.z.A.B.C.D.E.F.G.H.f.I.3.      ",
"    t.J.K.L.M.N.O.P.Q.R.S.T.U.V.3.3.      ",
"      W.X.Y.Z.`.2 2  +.+++@+#+3.3.        ",
"        $+%+&+*+n A 0 =+-+;+>+3.          ",
"          ,+'+)+!+~+{+]+^+/+(+            ",
"              3.3.3.3.3.3.                ",
"                                          ",
"                                          "};
